<?xml version="1.0" encoding="UTF-8" standalone="no"?>
<svg width="98px" height="98px" viewBox="0 0 98 98" version="1.1" xmlns="http://www.w3.org/2000/svg" xmlns:xlink="http://www.w3.org/1999/xlink">
    <!-- Generator: Sketch 41 (35326) - http://www.bohemiancoding.com/sketch -->
    <title>smarty_business_10</title>
    <desc>Created with Sketch.</desc>
    <defs></defs>
    <g id="Welcome" stroke="none" stroke-width="1" fill="none" fill-rule="evenodd">
        <g id="Style-2-iteration-3" transform="translate(-685.000000, -340.000000)">
            <g id="What-we-do" transform="translate(0.000000, 116.000000)">
                <g id="Cards" transform="translate(189.000000, 224.000000)">
                    <g id="Grow-sales-card" transform="translate(458.000000, 0.000000)">
                        <g id="smarty_business_10" transform="translate(38.000000, 0.000000)">
                            <g id="Layer_19">
                                <g id="Group">
                                    <g>
                                        <ellipse id="Oval" fill="#45A8A3" cx="49" cy="48.9044834" rx="49" ry="48.9044834"></ellipse>
                                        <g transform="translate(20.671875, 26.171540)">
                                            <rect id="Rectangle-path" fill="#F8F4EA" x="1.94353906" y="2.04271735" width="52.7689805" height="41.3802612"></rect>
                                            <path d="M54.7127109,3.92324756 L1.94353906,3.92324756 C0.902671875,3.92324756 0.058953125,3.08155556 0.058953125,2.04271735 C0.058953125,1.00368811 0.902671875,0.161423002 1.94353906,0.161423002 L54.7125195,0.161423002 C55.7533867,0.161423002 56.5971055,1.00349708 56.5971055,2.04271735 C56.5971055,3.08155556 55.7533867,3.92324756 54.7127109,3.92324756 Z" id="Shape" fill="#343434"></path>
                                            <path d="M54.7127109,45.3042729 L1.94353906,45.3042729 C0.902671875,45.3042729 0.058953125,44.4618168 0.058953125,43.4229786 C0.058953125,42.3841404 0.902671875,41.5420663 1.94353906,41.5420663 L54.7125195,41.5420663 C55.7533867,41.5420663 56.5971055,42.3841404 56.5971055,43.4229786 C56.5971055,44.4618168 55.7533867,45.3042729 54.7127109,45.3042729 Z" id="Shape" fill="#343434"></path>
                                            <polygon id="Shape" fill="#343434" points="20.8479688 33.0726121 13.090082 21.4579883 5.92344922 25.0347018 5.50216406 24.1930097 13.4126016 20.245501 20.7314023 31.2025887 28.2697461 16.1549084 36.0278242 27.7695322 43.4051953 24.0881326 51.1540859 27.9550253 50.7328008 28.7963353 43.4051953 25.1395789 35.7054961 28.9822105 28.3865039 18.0253138"></polygon>
                                            <g transform="translate(4.210938, 15.664717)" id="Oval">
                                                <ellipse fill="#FFD066" cx="46.7326016" cy="12.7107719" rx="1.41353516" ry="1.41077973"></ellipse>
                                                <ellipse fill="#B8B6B6" cx="39.1942578" cy="8.9491384" rx="1.41353516" ry="1.41077973"></ellipse>
                                                <ellipse fill="#70D893" cx="31.6557227" cy="12.7107719" rx="1.41353516" ry="1.41077973"></ellipse>
                                                <ellipse fill="#FFD066" cx="16.5786523" cy="16.4727875" rx="1.41353516" ry="1.41077973"></ellipse>
                                                <ellipse fill="#B8B6B6" cx="9.04011719" cy="5.18731384" rx="1.41353516" ry="1.41077973"></ellipse>
                                                <ellipse fill="#70D893" cx="1.50177344" cy="8.9491384" rx="1.41353516" ry="1.41077973"></ellipse>
                                                <ellipse fill="#EC604B" cx="24.1171875" cy="1.42529825" rx="1.41353516" ry="1.41077973"></ellipse>
                                            </g>
                                            <g transform="translate(5.550781, 9.551657)" id="Rectangle-path">
                                                <rect fill="#B8B6B6" x="0.161929687" y="3.77634308" width="7.53853516" height="3.76201559"></rect>
                                                <rect fill="#EC604B" x="15.2388086" y="0.0145185185" width="7.53853516" height="3.76163353"></rect>
                                                <rect fill="#70D893" x="26.5463242" y="22.585848" width="7.53853516" height="3.76201559"></rect>
                                                <rect fill="#FFD066" x="37.8544141" y="7.53835867" width="7.53853516" height="3.76201559"></rect>
                                            </g>
                                        </g>
                                    </g>
                                    <path d="M97.9898555,48.1153255 L76.7173477,26.8839025 C77.0582422,27.2245146 77.2691719,27.6950292 77.2691719,28.2144483 C77.2691719,29.2532865 76.4254531,30.0949786 75.3845859,30.0949786 L75.3845859,67.7139883 C76.4254531,67.7139883 77.2691719,68.5560624 77.2691719,69.5949006 C77.2691719,70.6337388 76.4254531,71.4761949 75.3845859,71.4761949 L32.0373867,71.4761949 L22.6154141,71.4761949 C22.0949805,71.4761949 21.6235469,71.2656764 21.2826523,70.9246823 L21.2826523,70.9254464 L26.9358359,76.5676101 L48.208918,97.7992242 C48.4728672,97.8036179 48.7352852,97.8093489 49,97.8093489 C76.0619727,97.8093489 98,75.9140858 98,48.9048655 C98,48.6406667 97.9940664,48.3783782 97.9898555,48.1153255 Z" id="Shape" fill="#3A8F8B"></path>
                                </g>
                            </g>
                        </g>
                    </g>
                </g>
            </g>
        </g>
    </g>
</svg>