<?xml version="1.0" encoding="UTF-8" standalone="no"?>
<svg width="367px" height="367px" viewBox="0 0 367 367" version="1.1" xmlns="http://www.w3.org/2000/svg" xmlns:xlink="http://www.w3.org/1999/xlink">
    <!-- Generator: Sketch 41 (35326) - http://www.bohemiancoding.com/sketch -->
    <title>Lightbulb</title>
    <desc>Created with Sketch.</desc>
    <defs></defs>
    <g id="Welcome" stroke="none" stroke-width="1" fill="none" fill-rule="evenodd">
        <g id="Style-2-iteration-3" transform="translate(-645.000000, -787.000000)">
            <g id="Contact-us" transform="translate(-135.000000, 702.000000)">
                <g id="Lightbulb" transform="translate(780.000000, 85.000000)">
                    <circle id="Oval-2" fill-opacity="0.170000002" fill="#FFD066" style="mix-blend-mode: hard-light;" cx="183.5" cy="183.5" r="183.5"></circle>
                    <g id="smarty_game_design_7" transform="translate(89.000000, 89.000000)">
                        <g id="Layer_16">
                            <g id="Group">
                                <g>
                                    <path d="M189,94.4992617 C189,146.690947 146.690209,189 94.5,189 C42.309791,189 0,146.690947 0,94.4992617 C0,42.3090527 42.309791,0 94.5,0 C146.690209,0 189,42.3090527 189,94.4992617 Z" id="Shape"></path>
                                    <g transform="translate(60.908203, 36.175781)">
                                        <rect id="Rectangle-path" fill="#3B4250" x="27.2126777" y="103.638445" width="12.7586074" height="12.7578691"></rect>
                                        <path d="M33.5917969,80.3737266 L33.5917969,0.169435547 C15.1506387,0.169435547 0.201919922,13.8903926 0.201919922,33.5600508 C0.201919922,53.229709 17.1347695,66.0488555 17.1347695,80.3737266 L22.2377695,80.3737266 C25.3876465,80.3737266 29.43675,80.3737266 33.5917969,80.3737266 Z" id="Shape" fill="#EA9036"></path>
                                        <path d="M33.5917969,0.169435547 L33.5917969,80.3737266 L44.9458242,80.3737266 L50.0488242,80.3737266 C50.0488242,66.0484863 66.9816738,53.229709 66.9816738,33.5600508 C66.9816738,13.8903926 52.0329551,0.169435547 33.5917969,0.169435547 Z" id="Shape" fill="#E67933"></path>
                                        <path d="M33.5917969,113.526615 L44.9458242,113.526615 C47.7527695,113.526615 50.0488242,111.229453 50.0488242,108.422139 L50.0488242,85.477834 L33.5917969,85.477834 L33.5917969,113.526615 Z" id="Shape" fill="#FFFFFF"></path>
                                        <path d="M17.1347695,85.477834 L17.1347695,108.422139 C17.1347695,111.229453 19.4319316,113.526615 22.2377695,113.526615 L33.5917969,113.526615 L33.5917969,85.477834 L17.1347695,85.477834 Z" id="Shape" fill="#FFFFFF"></path>
                                        <path d="M22.2377695,80.3737266 L17.1347695,80.3737266 L17.1347695,85.4774648 L33.5917969,85.4774648 L33.5917969,80.3737266 L22.2377695,80.3737266 Z" id="Shape" fill="#F0B14E"></path>
                                        <path d="M44.9458242,80.3737266 L33.5917969,80.3737266 L33.5917969,85.4774648 L50.0488242,85.4774648 L50.0488242,80.3737266 L44.9458242,80.3737266 Z" id="Shape" fill="#F0B14E"></path>
                                    </g>
                                </g>
                                <g transform="translate(79.365234, 45.773438)" id="Shape">
                                    <path d="M38.9915143,0.112587891 L38.9635313,0.141488376 C38.972706,0.151121871 38.981422,0.160296628 38.9915143,0.169471386 L38.9915143,0.112587891 Z" fill="#2D313B"></path>
                                    <path d="M0.141380859,102.620624 L0.279460956,102.481627 C0.232669694,102.433918 0.18633717,102.38575 0.141380859,102.335748 L0.141380859,102.620624 Z" fill="#2D313B"></path>
                                    <path d="M62.7934043,23.9653477 L39.0148418,0.160945312 C44.884916,6.03323437 48.5275957,14.2754062 48.5275957,23.9627637 C48.4725938,34.5700195 43.5368145,43.1828086 38.9860488,51.1141641 C35.0971523,57.8919551 31.4899102,64.1747285 31.4899102,70.7768086 L31.4899102,75.8805469 L31.4899102,98.8248516 C31.4323242,101.689383 29.2599316,103.927113 26.4884238,103.927113 L21.4943203,103.927113 L21.4943203,106.880238 L15.1340273,106.880238 L8.77299609,106.880238 L8.77299609,103.927113 L3.78110742,103.927113 C2.3879707,103.925637 1.14950391,103.362697 0.252492188,102.454242 L1.72536328,103.927113 L3.77667773,105.976951 L15.1343965,117.335777 L38.1912891,140.391932 C38.4567012,140.325486 38.7224824,140.258672 38.986418,140.189273 C60.5737617,134.575752 79.1599922,121.521094 91.8429258,103.927113 C93.016793,102.299941 94.1400879,100.632902 95.2105957,98.9293184 C100.955531,89.7853359 105.177393,79.5881953 107.521436,68.6922715 L62.7934043,23.9653477 Z"></path>
                                </g>
                            </g>
                        </g>
                    </g>
                </g>
            </g>
        </g>
    </g>
</svg>