<svg width="212" height="212" viewBox="0 0 212 212" xmlns="http://www.w3.org/2000/svg"><title>paper-plane</title><g fill="none" fill-rule="evenodd"><circle fill="#45A8A3" cx="106" cy="106" r="106"/><path fill="#FDFDFF" d="M45.356 109.566l114.153-41.902L75 120.764z"/><path fill="#ABADB3" d="M75 120.764l4.864 30.707 79.645-83.807z"/><path fill="#C2C3C6" d="M91.476 126.64l-11.612 24.83 22.782-23.243z"/><path fill="#FDFDFF" d="M159.51 67.664L91.475 126.64l31.57 11.932z"/><path d="M45.356 109.566l33.115 33.117-3.47-21.92zM161.59 69.744l-2.08-2.08-4.406 8.566-32.059 62.343-21.976-8.308-.308-.114-17.237 17.586-3.66 3.735 56.198 56.198a105.069 105.069 0 0 0 5.58-1.817c36.987-13.205 64.49-46.37 69.527-86.53l-49.58-49.58z" fill="#308480"/></g></svg>