<?xml version="1.0" encoding="UTF-8" standalone="no"?>
<svg width="212px" height="212px" viewBox="0 0 212 212" version="1.1" xmlns="http://www.w3.org/2000/svg" xmlns:xlink="http://www.w3.org/1999/xlink">
    <!-- Generator: Sketch 41 (35326) - http://www.bohemiancoding.com/sketch -->
    <title>paper-plane</title>
    <desc>Created with Sketch.</desc>
    <defs></defs>
    <g id="Welcome" stroke="none" stroke-width="1" fill="none" fill-rule="evenodd">
        <g id="Style-2-iteration-3" transform="translate(-520.000000, -414.000000)">
            <g id="paper-plane" transform="translate(520.000000, 414.000000)">
                <g id="Layer_2">
                    <g id="Group">
                        <g>
                            <circle id="Oval" fill="#45A8A3" cx="106" cy="106" r="106"></circle>
                            <g transform="translate(45.132812, 67.492188)" id="Shape">
                                <polygon fill="#FDFDFF" points="0.223179688 42.0741328 114.376484 0.171421875 29.8675703 53.271625"></polygon>
                                <polygon fill="#ABADB3" points="29.8675703 53.271625 34.7311484 83.9785 114.376484 0.171421875"></polygon>
                                <polygon fill="#C2C3C6" points="46.3427031 59.148 34.7311484 83.9785 57.5132813 60.7346875"></polygon>
                                <polygon fill="#FDFDFF" points="114.376484 0.171421875 46.3427031 59.148 77.9124844 71.079625"></polygon>
                            </g>
                        </g>
                        <g transform="translate(45.132812, 67.492188)" id="Shape" fill="#308480">
                            <polygon points="0.223179688 42.0741328 33.3386563 75.1912656 29.8675703 53.271625"></polygon>
                            <path d="M116.456734,2.25167187 L114.376898,0.171835937 L109.971688,8.73796094 L77.9124844,71.0804531 L55.9357031,62.7731172 L55.6284688,62.6584219 L38.3914609,80.2448984 L34.7311484,83.9797422 L90.9289531,140.177547 C92.8108672,139.622703 94.6716641,139.016102 96.5084453,138.361055 C133.496648,125.156187 160.999508,91.9910234 166.036164,51.8315156 L116.456734,2.25167187 Z"></path>
                        </g>
                    </g>
                </g>
            </g>
        </g>
    </g>
</svg>