<svg width="93" height="93" viewBox="0 0 93 93" xmlns="http://www.w3.org/2000/svg"><title>smarty_game_design_13</title><g fill="none" fill-rule="evenodd"><path d="M93 46.5C93 72.18 72.18 93 46.5 93S0 72.181 0 46.5 20.82 0 46.5 0 93 20.819 93 46.5z" fill="#EC604B"/><g transform="translate(24.885 19.617)"><path fill="#FFD066" d="M32.346 53.71l-10.73-5.366-10.732 5.366V13.469h21.462z"/><g fill="#EEAE26"><path d="M21.615 42.979a5.365 5.365 0 0 1-5.365-5.365V5.422a5.365 5.365 0 1 1 10.73 0v32.192a5.365 5.365 0 0 1-5.365 5.365z"/><path d="M37.711 26.882H5.52a5.366 5.366 0 0 1 0-10.73h32.192a5.366 5.366 0 1 1 0 10.73z"/><path d="M29.668 40.823a5.363 5.363 0 0 1-4.651-2.683L8.92 10.26a5.365 5.365 0 1 1 9.294-5.365l16.096 27.88a5.366 5.366 0 0 1-4.642 8.048z"/><path d="M7.68 34.932a5.366 5.366 0 0 1-2.688-10.013l27.88-16.097a5.366 5.366 0 0 1 5.366 9.294l-27.88 16.096a5.343 5.343 0 0 1-2.677.72z"/><path d="M35.55 34.932c-.91 0-1.833-.232-2.678-.72L4.992 18.116a5.366 5.366 0 0 1 5.366-9.294l27.88 16.097a5.366 5.366 0 0 1-2.688 10.013z"/><path d="M13.562 40.823a5.365 5.365 0 0 1-4.641-8.049L25.017 4.895a5.366 5.366 0 0 1 9.293 5.365L18.214 38.14a5.364 5.364 0 0 1-4.652 2.683z"/></g><ellipse fill="#FFD066" cx="21.615" cy="21.517" rx="14.754" ry="14.754"/></g><path fill="#DE5B47" d="M46.5 45.037l4.845 2.548-.925-5.395 3.92-3.822-5.417-.787-2.423-4.909-2.422 4.91-5.418.786 3.92 3.822-.925 5.395z"/><path d="M71.889 37.207l-6.803-6.803a5.365 5.365 0 0 1-.302 5.831 5.365 5.365 0 0 1 0 9.798 5.367 5.367 0 0 1-4.35 8.516c-.183 0-.366-.012-.55-.031a5.352 5.352 0 0 1-2.653 5.203v13.606L46.5 67.961l-1.66.83-9.071 4.536 10.73 10.73 8.219 8.218a46.111 46.111 0 0 0 10.437-3.169c13.254-5.811 23.277-17.626 26.63-32.003L71.89 37.207z" fill="#D15643"/><path d="M33.115 54.518a5.32 5.32 0 0 1-.55.031c-.942 0-1.872-.25-2.688-.721l3.92 3.921a5.394 5.394 0 0 1-.682-3.231zm26.77-26.768a5.39 5.39 0 0 1 3.239.69l-3.93-3.93a5.39 5.39 0 0 1 .69 3.24z" fill="#D46250"/></g></svg>