<?xml version="1.0" encoding="UTF-8" standalone="no"?>
<svg width="93px" height="93px" viewBox="0 0 93 93" version="1.1" xmlns="http://www.w3.org/2000/svg" xmlns:xlink="http://www.w3.org/1999/xlink">
    <!-- Generator: Sketch 41 (35326) - http://www.bohemiancoding.com/sketch -->
    <title>smarty_game_design_13</title>
    <desc>Created with Sketch.</desc>
    <defs></defs>
    <g id="Welcome" stroke="none" stroke-width="1" fill="none" fill-rule="evenodd">
        <g id="Style-2-iteration-3" transform="translate(-454.000000, -348.000000)">
            <g id="What-we-do" transform="translate(0.000000, 116.000000)">
                <g id="smarty_game_design_13" transform="translate(454.000000, 232.000000)">
                    <g id="Layer_21">
                        <g id="Group">
                            <g>
                                <path d="M93,46.4996367 C93,72.1812598 72.1808965,93 46.5,93 C20.8191035,93 0,72.1812598 0,46.4996367 C0,20.8187402 20.8191035,0 46.5,0 C72.1808965,0 93,20.8187402 93,46.4996367 Z" id="Shape" fill="#EC604B"></path>
                                <g transform="translate(24.884766, 19.617188)">
                                    <polygon id="Shape" fill="#FFD066" points="32.3461992 53.7098613 21.6152344 48.3440156 10.8842695 53.7098613 10.8842695 13.4690156 32.3461992 13.4690156"></polygon>
                                    <g id="Shape" fill="#EEAE26">
                                        <g>
                                            <path d="M21.6152344,42.9785332 C18.6521309,42.9785332 16.249752,40.5766992 16.249752,37.6137773 L16.249752,5.42160938 C16.249752,2.45796094 18.6523125,0.0561269531 21.6152344,0.0561269531 C24.5781563,0.0561269531 26.9807168,2.45796094 26.9807168,5.42160938 L26.9807168,37.6137773 C26.9807168,40.5768809 24.5783379,42.9785332 21.6152344,42.9785332 Z"></path>
                                            <path d="M37.7113184,26.8824492 L5.51915039,26.8824492 C2.55604687,26.8824492 0.153667969,24.480252 0.153667969,21.5173301 C0.153667969,18.5536816 2.55622852,16.1518477 5.51915039,16.1518477 L37.7113184,16.1518477 C40.6744219,16.1518477 43.0771641,18.5536816 43.0771641,21.5173301 C43.0771641,24.480252 40.6744219,26.8824492 37.7113184,26.8824492 Z"></path>
                                        </g>
                                        <g transform="translate(2.179688, 2.179688)">
                                            <path d="M27.4887656,38.6433164 C25.6343965,38.6433164 23.8307051,37.681166 22.8371309,35.9603027 L6.74068359,8.0802832 C5.25922266,5.51388281 6.13872656,2.23308984 8.70476367,0.751447266 C11.2711641,-0.730013672 14.5526836,0.149126953 16.0343262,2.71552734 L32.1304102,30.594457 C33.6122344,33.1608574 32.7327305,36.442377 30.1666934,37.9240195 C29.3215195,38.4117246 28.3987852,38.6433164 27.4887656,38.6433164 Z"></path>
                                            <path d="M5.50098633,32.752166 C3.64661719,32.752166 1.84328906,31.7896523 0.849351563,30.0687891 C-0.632109375,27.5023887 0.24703125,24.2208691 2.81343164,22.7392266 L30.6923613,6.6427793 C33.2587617,5.16168164 36.539918,6.04082227 38.0219238,8.60685938 C39.5033848,11.1732598 38.6242441,14.454416 36.0578438,15.9364219 L8.17873242,32.0323242 C7.33374023,32.5200293 6.41100586,32.752166 5.50098633,32.752166 Z"></path>
                                        </g>
                                        <g transform="translate(2.179688, 2.179688)">
                                            <path d="M33.3701074,32.752166 C32.4597246,32.752166 31.5377168,32.5202109 30.6923613,32.0323242 L2.81306836,15.9362402 C0.24703125,14.454416 -0.632472656,11.1730781 0.849351562,8.60667773 C2.33117578,6.04027734 5.61251367,5.1615 8.17855078,6.64259766 L36.0578437,22.7390449 C38.6242441,24.2205059 39.5033848,27.502207 38.0219238,30.0686074 C37.0278047,31.7896523 35.2244766,32.752166 33.3701074,32.752166 Z"></path>
                                            <path d="M11.3823281,38.6433164 C10.4719453,38.6433164 9.5499375,38.4120879 8.70458203,37.9238379 C6.13854492,36.442377 5.25904102,33.1606758 6.74122852,30.5942754 L22.8369492,2.7153457 C24.3184102,0.148945313 27.6004746,-0.730195312 30.1665117,0.751265625 C32.7325488,2.23272656 33.6120527,5.51370117 32.1305918,8.08010156 L16.0345078,35.9601211 C15.040752,37.681166 13.2366973,38.6433164 11.3823281,38.6433164 Z"></path>
                                        </g>
                                    </g>
                                    <ellipse id="Oval" fill="#FFD066" cx="21.615416" cy="21.5173301" rx="14.7544863" ry="14.7544863"></ellipse>
                                </g>
                                <polygon id="Shape" fill="#DE5B47" points="46.5 45.037248 51.3454453 47.5849395 50.420168 42.189668 54.3403359 38.3679492 48.9227227 37.581082 46.5 32.6722441 44.0776406 37.581082 38.6600273 38.3679492 42.579832 42.189668 41.6545547 47.5849395"></polygon>
                            </g>
                            <g transform="translate(29.789062, 24.339844)" id="Shape">
                                <path d="M42.0997559,12.8670586 L42.0997559,12.866332 L35.2967695,6.06370898 L35.2971328,6.06370898 C36.3891562,7.95495117 36.1975254,10.2339961 34.9945195,11.8956445 C36.8666895,12.7331895 38.1721406,14.6099004 38.1728672,16.7939473 L38.1721406,16.7939473 C38.1721406,16.7939473 38.1721406,16.7939473 38.1721406,16.7946738 C38.1721406,18.9785391 36.8665078,20.8559766 34.9941562,21.6933398 C36.1967988,23.3549883 36.388793,25.6340332 35.2967695,27.5256387 C34.3030137,29.2466836 32.4995039,30.2090156 30.6451348,30.2090156 C30.462041,30.2090156 30.278584,30.1970273 30.0953086,30.1777734 C30.306375,32.2186875 29.3415,34.2888457 27.4417207,35.3808691 L27.4417207,48.9872051 L16.7107559,43.6213594 L16.7107559,43.6213594 L15.0507422,44.451457 L5.97979102,48.9872051 L16.7107559,59.7178066 L24.928541,67.9355918 C28.5724336,67.2864082 32.0693789,66.2118223 35.365793,64.7661445 C48.6199277,58.9550977 58.6430391,47.1402832 61.9963066,32.7627012 L42.0997559,12.8670586 Z" fill="#D15643"></path>
                                <path d="M3.32638477,30.1779551 C3.14292773,30.1970273 2.9594707,30.2091973 2.77655859,30.2091973 C1.83366211,30.2091973 0.904388672,29.9590781 0.0877324219,29.4879023 L4.00862695,33.4095234 C3.45117187,32.4352031 3.20958984,31.3024922 3.32638477,30.1779551 Z" fill="#D46250"></path>
                                <path d="M30.0956719,3.40993945 C31.2231152,3.29350781 32.359459,3.53908594 33.3346875,4.10108203 L29.4048926,0.170923828 C29.9665254,1.14669727 30.2122852,2.28249609 30.0956719,3.40993945 Z" fill="#D46250"></path>
                            </g>
                        </g>
                    </g>
                </g>
            </g>
        </g>
    </g>
</svg>