<svg width="210" height="235" viewBox="0 0 210 235" xmlns="http://www.w3.org/2000/svg"><title>signpost</title><g fill="none" fill-rule="evenodd"><g transform="translate(-38 -31)"><ellipse cx="84.963" cy="84.845" rx="84.963" ry="84.845"/><path fill="#343434" d="M79.652 37.12h10.62v96h-10.62z"/><path fill="#343434" d="M79.653 37.817h10.62l-5.31-6z"/><path fill="#EC604B" d="M47.791 47.644h42.481v21.293h-42.48z"/><path fill="#EC604B" d="M48.62 47v23L38 58.5z"/><path fill="#FDFDFF" d="M79.652 79.502h42.481v21.293h-42.48z"/><path fill="#FDFDFF" d="M121 79v23l11-11.5z"/><path fill="#343434" d="M63.722 132.57h42.481v5.303h-42.48z"/></g><path fill="#3A8F8B" d="M41.653 48.502V37.936H9.792l31.86 31.817z"/><path d="M89.444 43.24L52.274 6.12v42.422h31.86l10.62 10.627-10.62 10.584h-31.86v31.817h15.93v5.303H25.722l113.647 127.82a84.554 84.554 0 0 0 38.483-14.598c14.73-10.25 26.056-25.04 31.945-42.338L89.444 43.239z" fill="#3A8F8B"/></g></svg>