<?xml version="1.0" encoding="UTF-8" standalone="no"?>
<svg width="259px" height="271px" viewBox="0 0 259 271" version="1.1" xmlns="http://www.w3.org/2000/svg" xmlns:xlink="http://www.w3.org/1999/xlink">
    <!-- Generator: Sketch 41 (35326) - http://www.bohemiancoding.com/sketch -->
    <title>swiss-army-knife</title>
    <desc>Created with Sketch.</desc>
    <defs></defs>
    <g id="Welcome" stroke="none" stroke-width="1" fill="none" fill-rule="evenodd">
        <g id="Style-2-v3-Services-page-" transform="translate(-765.000000, -1113.000000)">
            <g id="3.-Prototyping" transform="translate(-85.000000, 917.000000)">
                <g id="swiss-army-knife" transform="translate(784.000000, 140.000000)">
                    <g id="Layer_15">
                        <g id="Group">
                            <g>
                                <circle id="Oval" cx="115.499098" cy="115.499098" r="115.499098"></circle>
                                <g transform="translate(65.871094, 56.847656)">
                                    <path d="M39.0773496,107.74616 C37.8506133,107.74616 36.8557793,106.751326 36.8557793,105.52459 L36.8557793,50.8299258 C36.8557793,49.6031895 37.8506133,48.6092578 39.0773496,48.6092578 C40.3040859,48.6092578 41.2989199,49.6031895 41.2989199,50.8299258 L41.2989199,105.525041 C41.2989199,106.751326 40.3040859,107.74616 39.0773496,107.74616 Z" id="Shape" fill="#F8F4EA"></path>
                                    <path d="M9.29053125,111.713314 C8.43826758,111.713314 7.58645508,111.387117 6.93496289,110.736979 C5.63333203,109.43625 5.63333203,107.32657 6.93496289,106.025391 L47.2724355,65.6888203 C48.5731641,64.3871895 50.6828438,64.3871895 51.9840234,65.6888203 C53.284752,66.9895488 53.284752,69.0992285 51.9840234,70.3995059 L11.6465508,110.736979 C10.9964121,111.387568 10.1432461,111.713314 9.29053125,111.713314 Z" id="Shape" fill="#F8F4EA"></path>
                                    <path d="M35.3123203,0.0785039063 C34.0900957,0.0785039063 32.3842148,0.785039063 31.5206719,1.64858203 L10.998668,22.1714883 C10.135125,23.0350313 10.1333203,24.4494551 10.998668,25.312998 L16.2083496,30.523582 C17.0718926,31.387125 18.4863164,31.387125 19.348957,30.523582 L39.8727656,10.0006758 C40.7363086,9.13713281 41.4437461,7.43125195 41.4437461,6.20992969 L41.4437461,2.29917188 C41.4437461,1.07784961 40.443498,0.0785039063 39.2221758,0.0785039063 L35.3123203,0.0785039063 Z" id="Shape" fill="#F8F4EA"></path>
                                    <path d="M87.2922832,57.3859043 C86.4278379,58.2494473 85.7222051,59.9553281 85.7222051,61.1775527 L85.7222051,90.2014395 C85.7222051,91.4227617 86.7206484,92.4221074 87.942873,92.4221074 L95.3114121,92.4221074 C96.5327344,92.4221074 97.5329824,91.4227617 97.5329824,90.2014395 L97.5338848,61.1775527 C97.5338848,59.9553281 96.8273496,58.2494473 95.9638066,57.3859043 L93.1985742,54.6206719 C92.3341289,53.7571289 90.9206074,53.7571289 90.0570645,54.6206719 L87.2922832,57.3859043 Z" id="Shape" fill="#F8F4EA"></path>
                                    <path d="M88.8465703,22.3303008 C87.982125,21.4667578 86.2762441,20.7602227 85.0549219,20.7602227 L29.0820879,20.7602227 C27.8598633,20.7602227 26.8614199,21.7595684 26.8614199,22.9808906 L26.8614199,39.8610352 C26.8614199,41.0823574 27.8598633,42.0826055 29.0820879,42.0826055 L85.0549219,42.0826055 C86.2762441,42.0826055 87.982125,41.375168 88.8465703,40.511625 L96.3676055,32.9914922 C97.2311484,32.1279492 97.2311484,30.7144277 96.3676055,29.8508848 L88.8465703,22.3303008 Z" id="Shape" fill="#F8F4EA"></path>
                                    <g transform="translate(0.000000, 18.498047)" fill="#EC604B">
                                        <rect id="Rectangle-path" transform="translate(49.627231, 49.539481) rotate(-45.000000) translate(-49.627231, -49.539481) " x="31.8577714" y="5.11729871" width="35.5389189" height="88.8443648"></rect>
                                        <path d="M93.6050801,68.3931445 C100.543652,75.3326191 100.543652,86.5834922 93.6050801,93.5220645 C86.6656055,100.460637 75.4147324,100.460637 68.4743555,93.5220645 C61.5366855,86.5834922 61.5366855,75.3326191 68.4743555,68.3931445 C75.4142813,61.4536699 86.6656055,61.4536699 93.6050801,68.3931445 Z" id="Shape"></path>
                                        <path d="M30.7812012,5.57016797 C37.7215781,12.5087402 37.7215781,23.7596133 30.7812012,30.6981855 C23.8417266,37.6376602 12.5917559,37.6376602 5.65228125,30.6981855 C-1.28629102,23.7596133 -1.28629102,12.5087402 5.65228125,5.57016797 C12.5913047,-1.37020898 23.8417266,-1.37020898 30.7812012,5.57016797 Z" id="Shape"></path>
                                    </g>
                                    <path d="M81.0399434,29.1736758 L70.7288613,29.1736758 C69.502125,29.1736758 68.507291,28.1788418 68.507291,26.9521055 C68.507291,25.7253691 69.502125,24.7305352 70.7288613,24.7305352 L81.0399434,24.7305352 C82.2666797,24.7305352 83.2606113,25.7253691 83.2606113,26.9521055 C83.2606113,28.1788418 82.2666797,29.1736758 81.0399434,29.1736758 Z" id="Shape"></path>
                                    <g opacity="0.4" transform="translate(5.865234, 26.619141)" id="Shape">
                                        <path d="M23.5859121,37.1449805 C22.7336484,37.1449805 21.8809336,36.8187832 21.2303438,36.1686445 L3.71224219,18.6514453 C1.40810742,16.3473105 0.138960938,13.2788906 0.138960938,10.0133086 C0.138960938,6.74772656 1.40855859,3.67930664 3.71404688,1.37426953 C5.01477539,0.0735410156 7.12445508,0.0735410156 8.42563477,1.37607422 C9.72636328,2.67680273 9.72636328,4.78648242 8.42473242,6.08675977 C7.37891602,7.13347852 6.80231836,8.52759961 6.80231836,10.0133086 C6.80231836,11.4990176 7.3775625,12.894041 8.42473242,13.9398574 L25.9419316,31.457959 C27.2426602,32.7586875 27.2426602,34.8683672 25.9419316,36.1686445 C25.2922441,36.8187832 24.4390781,37.1449805 23.5859121,37.1449805 Z"></path>
                                    </g>
                                    <g opacity="0.4" transform="translate(35.191406, 66.322266)" id="Shape">
                                        <path d="M10.471248,13.6533633 C9.61898438,13.6533633 8.76717188,13.3280684 8.11567969,12.6779297 L1.2271875,5.79033984 C-0.0735410156,4.48961133 -0.0735410156,2.37993164 1.2271875,1.0796543 C2.5297207,-0.221976563 4.63849805,-0.221976563 5.93877539,1.07875195 L12.8272676,7.96543945 C14.1279961,9.26707031 14.1279961,11.37675 12.8281699,12.6779297 C12.1771289,13.3280684 11.3244141,13.6533633 10.471248,13.6533633 Z"></path>
                                    </g>
                                </g>
                            </g>
                            <g transform="translate(72.638672, 57.298828)" id="Shape" fill="#4D9E6A">
                                <path d="M34.6757168,1.848 L34.6757168,5.75875781 C34.6757168,6.98008008 33.9682793,8.68596094 33.103834,9.54950391 L22.3451895,20.3090508 L54.0260273,20.3090508 L34.1428828,0.42590625 C34.4695312,0.811658203 34.6757168,1.30524023 34.6757168,1.848 Z"></path>
                                <path d="M89.6000273,32.5398691 L82.0789922,40.060002 C81.2154492,40.9244473 79.508666,41.6309824 78.2873438,41.6309824 L75.3493125,41.6309824 L244.598014,214.419391 C247.707039,208.465275 250.315264,202.207973 252.361328,195.701172 L89.6000273,29.3992617 C90.4635703,30.2628047 90.4635703,31.6763262 89.6000273,32.5398691 Z"></path>
                                <polygon points="55.4246602 55.0280801 68.822209 41.6309824 42.0275625 41.6309824"></polygon>
                                <path d="M240.361328,208.701172 L75.3493125,41.6309824 L68.822209,41.6309824 L55.4246602,55.0276289 L78.9541758,78.5553398 L78.9541758,60.7259297 C78.9541758,59.5037051 79.6607109,57.7978242 80.5242539,56.9342813 L83.288584,54.1690488 C84.152127,53.3055059 85.5665508,53.3055059 86.4300937,54.1690488 L89.1953262,56.9342813 C90.0588691,57.7978242 90.7654043,59.5037051 90.7654043,60.7259297 L90.764502,89.7498164 C90.764502,90.2961855 90.5556094,90.7924746 90.2253516,91.1809336 C93.4796543,97.812709 92.352627,106.05201 86.8370508,111.568488 C79.8975762,118.507061 68.6467031,118.507061 61.7063262,111.568488 L34.5313418,84.3926016 L34.5313418,105.073418 C34.5313418,106.300154 33.5365078,107.294988 32.3097715,107.294988 C31.0830352,107.294988 30.0882012,106.300154 30.0882012,105.073418 L30.0882012,85.0765781 L4.87897266,110.285807 C4.22793164,110.935945 3.37566797,111.262143 2.52250195,111.262143 C1.66933594,111.262143 0.816621094,110.935945 0.166933594,110.285807 L157.053344,269.230391 C193.345158,263.180176 223.907541,240.211016 240.361328,208.701172 Z"></path>
                            </g>
                        </g>
                    </g>
                </g>
            </g>
        </g>
    </g>
</svg>