<svg width="259" height="271" viewBox="0 0 259 271" xmlns="http://www.w3.org/2000/svg"><title>swiss-army-knife</title><g fill="none" fill-rule="evenodd"><g transform="translate(-66 -56)"><circle cx="115.499" cy="115.499" r="115.499"/><path d="M104.948 164.594a2.222 2.222 0 0 1-2.221-2.222v-54.694a2.221 2.221 0 0 1 4.443 0v54.695a2.222 2.222 0 0 1-2.222 2.22z" fill="#F8F4EA"/><path d="M75.162 168.561a3.33 3.33 0 0 1-2.356-5.688l40.338-40.337a3.33 3.33 0 1 1 4.711 4.711l-40.337 40.338c-.65.65-1.504.976-2.356.976zm26.021-111.635c-1.222 0-2.928.707-3.791 1.57L76.87 79.02a2.227 2.227 0 0 0 0 3.142l5.21 5.21a2.228 2.228 0 0 0 3.14 0l20.524-20.523c.863-.863 1.57-2.57 1.57-3.79v-3.911c0-1.221-1-2.22-2.22-2.22h-3.91zm51.98 57.308c-.864.863-1.57 2.569-1.57 3.791v29.024c0 1.221.999 2.22 2.221 2.22h7.369c1.22 0 2.221-.999 2.221-2.22l.001-29.024c0-1.222-.707-2.928-1.57-3.791l-2.765-2.766a2.229 2.229 0 0 0-3.142 0l-2.765 2.766z" fill="#F8F4EA"/><path d="M154.718 79.178c-.865-.864-2.57-1.57-3.792-1.57H94.953c-1.222 0-2.22 1-2.22 2.22v16.88c0 1.222.998 2.222 2.22 2.222h55.973c1.221 0 2.927-.707 3.792-1.57l7.52-7.52a2.228 2.228 0 0 0 0-3.141l-7.52-7.521z" fill="#F8F4EA"/><g fill="#EC604B"><path d="M71.522 106.038l25.13-25.13 62.822 62.823-25.13 25.13z"/><path d="M159.476 143.739c6.939 6.94 6.939 18.19 0 25.129-6.94 6.938-18.19 6.938-25.13 0-6.938-6.939-6.938-18.19 0-25.13 6.94-6.939 18.19-6.939 25.13 0zM96.652 80.916c6.94 6.938 6.94 18.19 0 25.128-6.94 6.94-18.19 6.94-25.129 0-6.938-6.939-6.938-18.19 0-25.128 6.94-6.94 18.19-6.94 25.13 0z"/></g><path d="M146.911 86.021H136.6a2.222 2.222 0 0 1 0-4.443h10.311a2.221 2.221 0 0 1 0 4.443z"/><path d="M95.322 120.612a3.324 3.324 0 0 1-2.355-.977l-17.518-17.517a12.135 12.135 0 0 1-3.574-8.638c0-3.265 1.27-6.334 3.575-8.639a3.33 3.33 0 0 1 4.712.002 3.33 3.33 0 0 1 0 4.71 5.517 5.517 0 0 0-1.623 3.927 5.51 5.51 0 0 0 1.622 3.927l17.517 17.518a3.331 3.331 0 0 1-2.356 5.687zm16.212 16.211a3.324 3.324 0 0 1-2.356-.975l-6.888-6.888a3.331 3.331 0 0 1 4.71-4.71l6.889 6.886a3.334 3.334 0 0 1 0 4.713 3.325 3.325 0 0 1-2.356.975z" opacity=".4"/></g><g fill="#4D9E6A"><path d="M41.314 3.147v3.91c0 1.222-.707 2.928-1.571 3.791l-10.76 10.76h31.682L40.782 1.725a2.2 2.2 0 0 1 .532 1.422zm54.925 30.692l-7.521 7.52c-.864.864-2.57 1.57-3.792 1.57h-2.938l169.249 172.79A114.9 114.9 0 0 0 259 197L96.239 30.698a2.228 2.228 0 0 1 0 3.14zM62.063 56.327L75.461 42.93H48.666z"/><path d="M247 210L81.988 42.93h-6.527L62.063 56.326l23.53 23.528v-17.83c0-1.221.706-2.927 1.57-3.79l2.764-2.766a2.229 2.229 0 0 1 3.142 0l2.765 2.765c.864.864 1.57 2.57 1.57 3.792v29.024c0 .546-.21 1.042-.54 1.43 3.254 6.633 2.127 14.872-3.388 20.388-6.94 6.939-18.19 6.939-25.131 0L41.17 85.691v20.681a2.222 2.222 0 0 1-4.443 0V86.375l-25.21 25.21a3.325 3.325 0 0 1-2.356.976 3.32 3.32 0 0 1-2.355-.976l156.886 158.944C199.984 264.48 230.546 241.51 247 210z"/></g></g></svg>