<?xml version="1.0" encoding="UTF-8" standalone="no"?>
<svg width="104px" height="95px" viewBox="0 0 104 95" version="1.1" xmlns="http://www.w3.org/2000/svg" xmlns:xlink="http://www.w3.org/1999/xlink">
    <!-- Generator: Sketch 41 (35326) - http://www.bohemiancoding.com/sketch -->
    <title>smarty_finance_1</title>
    <desc>Created with Sketch.</desc>
    <defs></defs>
    <g id="Welcome" stroke="none" stroke-width="1" fill="none" fill-rule="evenodd">
        <g id="Style-2-iteration-3" transform="translate(-222.000000, -343.000000)">
            <g id="What-we-do" transform="translate(0.000000, 116.000000)">
                <g id="Cards" transform="translate(189.000000, 224.000000)">
                    <g id="smarty_finance_1" transform="translate(33.000000, 3.000000)">
                        <g id="Layer_10">
                            <g id="Group">
                                <g>
                                    <ellipse id="Oval" fill="#F0B14E" cx="52" cy="47.5" rx="52" ry="47.5"></ellipse>
                                    <g transform="translate(33.921875, 25.419922)">
                                        <path d="M36.0780469,42.175918 C36.0780469,43.1812109 35.1777969,44.0031836 34.0780781,44.0031836 L2.07796875,44.0031836 C0.97784375,44.0031836 0.078,43.1812109 0.078,42.175918 L0.078,1.98405273 C0.078,0.978759766 0.97784375,0.156787109 2.07796875,0.156787109 L34.0782812,0.156787109 C35.178,0.156787109 36.07825,0.978759766 36.07825,1.98405273 L36.07825,42.175918 L36.0780469,42.175918 Z" id="Shape" fill="#FFFFFF"></path>
                                        <rect id="Rectangle-path" fill="#242C3C" x="0.078203125" y="14.3156836" width="35.9998437" height="0.913261719"></rect>
                                        <rect id="Rectangle-path" fill="#6DBEC4" x="4.07834375" y="3.81057617" width="27.9995625" height="7.30813477"></rect>
                                        <g transform="translate(4.062500, 31.171875)" id="Rectangle-path" fill="#C2C3C6">
                                            <rect x="0.01584375" y="5.52354492" width="3.99973437" height="3.65397461"></rect>
                                            <rect x="6.01554687" y="5.52354492" width="4.00014063" height="3.65397461"></rect>
                                            <rect x="12.0156562" y="5.52354492" width="3.99973437" height="3.65397461"></rect>
                                            <rect x="18.0153594" y="0.0423046875" width="4.00014062" height="9.13521484"></rect>
                                            <rect x="24.0154687" y="5.52354492" width="3.99973438" height="3.65397461"></rect>
                                        </g>
                                        <g transform="translate(4.062500, 31.171875)" id="Rectangle-path" fill="#C2C3C6">
                                            <rect x="0.01584375" y="0.0423046875" width="3.99973437" height="3.6543457"></rect>
                                            <rect x="6.01554687" y="0.0423046875" width="4.00014063" height="3.6543457"></rect>
                                            <rect x="12.0156562" y="0.0423046875" width="3.99973437" height="3.6543457"></rect>
                                            <rect x="24.0154687" y="0.0423046875" width="3.99973438" height="3.6543457"></rect>
                                        </g>
                                        <g transform="translate(4.062500, 25.605469)" id="Rectangle-path" fill="#C2C3C6">
                                            <rect x="0.01584375" y="0.128027344" width="3.99973437" height="3.65397461"></rect>
                                            <rect x="6.01554687" y="0.128027344" width="4.00014063" height="3.65397461"></rect>
                                            <rect x="12.0156562" y="0.128027344" width="3.99973437" height="3.65397461"></rect>
                                            <rect x="18.0153594" y="0.128027344" width="4.00014062" height="3.65397461"></rect>
                                            <rect x="24.0154687" y="0.128027344" width="3.99973438" height="3.65397461"></rect>
                                        </g>
                                        <g transform="translate(4.062500, 20.224609)" id="Rectangle-path">
                                            <rect fill="#C2C3C6" x="0.01584375" y="0.0285742188" width="3.99973437" height="3.65360352"></rect>
                                            <rect fill="#C2C3C6" x="6.01554687" y="0.0285742188" width="4.00014063" height="3.65360352"></rect>
                                            <rect fill="#C2C3C6" x="12.0156562" y="0.0285742188" width="3.99973437" height="3.65360352"></rect>
                                            <rect fill="#F4C47A" x="18.0153594" y="0.0285742188" width="4.00014062" height="3.65360352"></rect>
                                            <rect fill="#E36A5C" x="24.0154687" y="0.0285742188" width="3.99973438" height="3.65360352"></rect>
                                        </g>
                                    </g>
                                </g>
                                <path d="M70.8248125,27.4039746 L69.4128906,26.1138672 C69.7750625,26.4446973 70.000125,26.9016992 70.000125,27.4039746 L70.000125,67.5958398 C70.000125,68.0981152 69.7752656,68.5551172 69.4124844,68.8866895 C69.0499062,69.2171484 68.5500156,69.4231055 68.0001562,69.4231055 L35.9998437,69.4231055 C35.4499844,69.4231055 34.9500937,69.217334 34.5879219,68.8866895 L35.9998437,70.1760547 L62.1767656,94.087666 C64.1608906,93.7280762 66.1039844,93.2649512 67.9999531,92.7051563 C81.2847344,88.7843652 92.2309375,80.1154297 98.4404687,68.8866895 C98.6760937,68.4597461 98.9042031,68.0296484 99.1260156,67.5958398 C100.866797,64.1958789 102.18,60.5769727 103.001641,56.7957129 L70.8248125,27.4039746 Z" id="Shape" fill="#D89938"></path>
                            </g>
                        </g>
                    </g>
                </g>
            </g>
        </g>
    </g>
</svg>