<?xml version="1.0" encoding="UTF-8" standalone="no"?>
<svg width="232px" height="335px" viewBox="0 0 232 335" version="1.1" xmlns="http://www.w3.org/2000/svg" xmlns:xlink="http://www.w3.org/1999/xlink">
    <!-- Generator: Sketch 41 (35326) - http://www.bohemiancoding.com/sketch -->
    <title>coffee</title>
    <desc>Created with Sketch.</desc>
    <defs></defs>
    <g id="Welcome" stroke="none" stroke-width="1" fill="none" fill-rule="evenodd">
        <g id="Style-2-iteration-3" transform="translate(0.000000, -913.000000)">
            <g id="Contact-us" transform="translate(-135.000000, 702.000000)">
                <g id="coffee" transform="translate(204.500000, 378.500000) scale(-1, 1) translate(-204.500000, -378.500000) translate(41.000000, 210.000000)">
                    <g id="Layer_25">
                        <g id="Group">
                            <g transform="translate(0.897037, 0.895677)">
                                <g>
                                    <g fill="#FDFDFF">
                                        <rect id="Rectangle-path" x="0.493391237" y="0.102488483" width="112.243007" height="120.405334"></rect>
                                        <ellipse id="Oval" cx="17.7200938" cy="120.573624" rx="17.2267026" ry="17.2005956"></ellipse>
                                        <ellipse id="Oval" cx="95.5096959" cy="120.573624" rx="17.2267026" ry="17.2005956"></ellipse>
                                        <rect id="Rectangle-path" x="17.720677" y="86.2382356" width="77.7896021" height="51.5354022"></rect>
                                        <path d="M112.736399,35.0027287 C130.198133,35.0027287 144.405001,49.1874842 144.405001,66.6233374 C144.405001,84.0591907 130.198716,98.2439462 112.736399,98.2439462 C95.2758308,98.2439462 81.0689626,84.0591907 81.0689626,66.6233374 C81.0689626,49.1874842 95.2752476,35.0027287 112.736399,35.0027287 L112.736399,35.0027287 Z M112.736399,23.5362473 C88.9049019,23.5362473 69.583911,42.8267927 69.583911,66.6233374 C69.583911,90.4198822 88.9049019,109.710428 112.736399,109.710428 C136.570228,109.710428 155.888886,90.4198822 155.888886,66.6233374 C155.888886,42.8267927 136.570228,23.5362473 112.736399,23.5362473 L112.736399,23.5362473 Z" id="Shape"></path>
                                    </g>
                                    <rect id="Rectangle-path" fill="#717070" x="69.042697" y="0.168290748" width="2.8717003" height="86.0699448"></rect>
                                    <path d="M87.7052497,80.6409668 C87.7052497,83.794817 85.1204861,86.3744987 81.9630155,86.3744987 L58.9923291,86.3744987 C55.8336921,86.3744987 53.2489285,83.794817 53.2489285,80.6409668 L53.2489285,57.7039278 C53.2489285,54.5512423 55.8336921,51.9715605 58.9923291,51.9715605 L81.9630155,51.9715605 C85.1204861,51.9715605 87.7052497,54.5512423 87.7052497,57.7039278 L87.7052497,80.6409668 Z" id="Shape" fill="#343434"></path>
                                    <rect id="Rectangle-path" fill="#FFD066" x="53.2495117" y="61.6066426" width="34.4557379" height="7.56667814"></rect>
                                </g>
                            </g>
                            <g transform="translate(6.145880, 0.895677)" id="Shape">
                                <g fill="#3A8F8B">
                                    <path d="M139.155575,66.6233374 C139.155575,49.1880665 124.94929,35.0027287 107.486972,35.0027287 L107.486972,98.2439462 C124.94929,98.2439462 139.155575,84.0591907 139.155575,66.6233374 Z"></path>
                                    <path d="M120.273737,12.8681279 L107.487556,0.102488483 L107.487556,23.5362473 C108.176904,23.5362473 108.86042,23.5531346 109.540436,23.5863269 C132.41956,24.6554681 150.640626,43.5139314 150.640626,66.6233374 C150.640626,90.4198822 131.321968,109.710428 107.488139,109.710428 L107.488139,120.50724 C107.488139,130.073026 99.7752556,137.773055 90.2620194,137.773055 L12.4718341,137.773055 C7.73212887,137.773055 3.44032495,135.86246 0.324845058,132.768589 L194.586793,335.024194 C256.412331,326.545019 306.166697,280.272634 319.719793,220.299984 L120.273737,12.8681279 Z"></path>
                                </g>
                                <polygon fill="#D89938" points="0.257193305 132.70104 0.257193305 132.703714 0.257193305 132.703714"></polygon>
                                <path d="M0.257193305,132.703369 C0.283304141,132.728104 0.309414977,132.754175 0.334186796,132.778909 L0.257193305,132.703369 L0.257193305,132.703369 Z" fill="#D89938"></path>
                            </g>
                        </g>
                    </g>
                </g>
            </g>
        </g>
    </g>
</svg>