<?xml version="1.0" encoding="UTF-8"?>
<svg width="512px" height="512px" viewBox="0 0 512 512" version="1.1" xmlns="http://www.w3.org/2000/svg" xmlns:xlink="http://www.w3.org/1999/xlink">
    <!-- Generator: Sketch 41.1 (35376) - http://www.bohemiancoding.com/sketch -->
    <title>connected</title>
    <desc>Created with Sketch.</desc>
    <defs></defs>
    <g id="icons" stroke="none" stroke-width="1" fill="none" fill-rule="evenodd">
        <g id="connected" transform="translate(-1.000000, 0.000000)">
            <g id="Layer_23">
                <g id="Group">
                    <circle id="Oval" fill="#EC604B" cx="256.998" cy="256" r="256"></circle>
                    <path d="M369.385,143.615 L369.385,143.613 L369.383,143.613 C365.82,140.05 360.897,137.847 355.459,137.847 C349.02,137.847 343.318,140.952 339.727,145.732 C324.727,134.461 307.35,126.197 288.485,121.791 L270.924,104.228 C267.36,100.665 262.436,98.46 256.998,98.46 C246.121,98.46 237.307,107.276 237.307,118.153 C237.307,118.624 237.344,119.085 237.375,119.549 C213.922,122.893 192.365,132.131 174.27,145.731 C170.678,140.952 164.977,137.846 158.538,137.846 C147.661,137.846 138.847,146.66 138.847,157.537 C138.847,163.976 141.952,169.678 146.73,173.269 C133.125,191.376 123.882,212.947 120.542,236.419 C120.081,236.388 119.622,236.349 119.153,236.349 C108.276,236.349 99.462,245.165 99.462,256.04 C99.462,261.478 101.665,266.399 105.228,269.966 L105.234,269.968 L122.802,287.54 C127.214,306.38 135.472,323.739 146.734,338.724 C141.953,342.318 138.847,348.017 138.847,354.458 C138.847,359.896 141.048,364.817 144.611,368.38 L144.613,368.382 L144.615,368.384 L286.523,510.292 C404.308,496.763 497.765,403.306 511.294,285.521 L369.385,143.615 Z" id="Shape" fill="#D15643"></path>
                    <g transform="translate(99.000000, 98.000000)">
                        <path d="M157.998,30 C228.576,30 285.998,87.422 285.998,158 C285.998,228.578 228.576,286 157.998,286 C87.42,286 29.998,228.578 29.998,158 C29.998,87.422 87.42,30 157.998,30 L157.998,30 Z M157.998,20.154 C81.869,20.154 20.152,81.869 20.152,158 C20.152,234.129 81.869,295.846 157.998,295.846 C234.127,295.846 295.844,234.129 295.844,158 C295.844,81.869 234.127,20.154 157.998,20.154 L157.998,20.154 Z" id="Shape" fill="#F8F4EA"></path>
                        <rect id="Rectangle-path" fill="#F8F4EA" x="153.074" y="20.154" width="9.848" height="275.691"></rect>
                        <rect id="Rectangle-path" fill="#F8F4EA" x="20.152" y="153.078" width="275.691" height="9.844"></rect>
                        <path d="M157.998,101.385 C193.367,101.385 226.465,107.951 251.193,119.875 C273.312,130.539 285.998,144.434 285.998,158 C285.998,171.564 273.312,185.461 251.193,196.125 C226.464,208.049 193.367,214.615 157.998,214.615 C122.631,214.615 89.531,208.049 64.803,196.125 C42.686,185.461 29.998,171.564 29.998,158 C29.998,144.434 42.686,130.539 64.803,119.875 C89.531,107.951 122.631,101.385 157.998,101.385 L157.998,101.385 Z M157.998,91.539 C81.869,91.539 20.152,121.293 20.152,158 C20.152,194.705 81.869,224.461 157.998,224.461 C234.127,224.461 295.844,194.705 295.844,158 C295.844,121.293 234.127,91.539 157.998,91.539 L157.998,91.539 Z" id="Shape" fill="#F8F4EA"></path>
                        <path d="M157.998,30 C171.564,30 185.461,42.688 196.123,64.805 C208.047,89.532 214.613,122.629 214.613,158 C214.613,193.367 208.047,226.465 196.123,251.195 C185.461,273.313 171.564,286 157.998,286 C144.434,286 130.537,273.312 119.873,251.195 C107.951,226.465 101.383,193.367 101.383,158 C101.383,122.629 107.951,89.531 119.873,64.805 C130.537,42.688 144.434,30 157.998,30 L157.998,30 Z M157.998,20.154 C121.291,20.154 91.537,81.869 91.537,158 C91.537,234.129 121.291,295.846 157.998,295.846 C194.705,295.846 224.459,234.129 224.459,158 C224.459,81.869 194.705,20.154 157.998,20.154 L157.998,20.154 Z" id="Shape" fill="#F8F4EA"></path>
                        <rect id="Rectangle-path" fill="#F8F4EA" transform="translate(158.511217, 157.484137) rotate(44.991897) translate(-158.511217, -157.484137) " x="153.588264" y="18.964964" width="9.84590567" height="277.038346"></rect>
                        <rect id="Rectangle-path" fill="#F8F4EA" transform="translate(157.952522, 158.039125) rotate(45.000000) translate(-157.952522, -158.039125) " x="20.2208425" y="153.115672" width="275.463358" height="9.84690557"></rect>
                        <circle id="Oval" fill="#4A4A4A" cx="295.843" cy="158.043" r="19.692"></circle>
                        <circle id="Oval" fill="#4A4A4A" cx="20.153" cy="158.043" r="19.692"></circle>
                        <circle id="Oval" fill="#FFD066" cx="157.955" cy="295.846" r="19.691"></circle>
                        <circle id="Oval" fill="#45A8A3" cx="256.459" cy="256.461" r="19.691"></circle>
                        <circle id="Oval" fill="#45A8A3" cx="59.537" cy="59.539" r="19.691"></circle>
                        <circle id="Oval" fill="#45A8A3" cx="256.459" cy="59.539" r="19.691"></circle>
                        <circle id="Oval" fill="#45A8A3" cx="59.537" cy="256.461" r="19.691"></circle>
                        <circle id="Oval" fill="#FFD066" cx="157.998" cy="20.154" r="19.691"></circle>
                    </g>
                </g>
            </g>
        </g>
    </g>
</svg>