<?xml version="1.0" encoding="UTF-8" standalone="no"?>
<svg width="297px" height="325px" viewBox="0 0 297 325" version="1.1" xmlns="http://www.w3.org/2000/svg" xmlns:xlink="http://www.w3.org/1999/xlink">
    <!-- Generator: Sketch 41 (35326) - http://www.bohemiancoding.com/sketch -->
    <title>developer</title>
    <desc>Created with Sketch.</desc>
    <defs></defs>
    <g id="Welcome" stroke="none" stroke-width="1" fill="none" fill-rule="evenodd">
        <g id="Style-2-v3-Services-page-" transform="translate(0.000000, -1446.000000)">
            <g id="4.-Delivery" transform="translate(-95.000000, 1280.000000)">
                <g id="developer" transform="translate(273.000000, 308.000000) scale(-1, 1) translate(-273.000000, -308.000000) translate(83.000000, 125.000000)">
                    <g id="Layer_13">
                        <g id="Group">
                            <g>
                                <ellipse id="Oval" cx="124.501425" cy="124.526627" rx="124.501425" ry="124.526627"></ellipse>
                                <g transform="translate(71.004719, 40.860300)">
                                    <g transform="translate(0.000000, 19.943718)">
                                        <path d="M86.9807804,43.6840381 C86.9807804,19.7121759 67.5522358,0.279698479 43.5852252,0.279698479 C19.6182147,0.279698479 0.189670139,19.7121759 0.189670139,43.6840381 C0.189670139,45.4055214 0.293259215,47.1031696 0.488765358,48.7735776 L0.189670139,48.7735776 L0.189670139,87.089837 L10.3647436,87.089837 L10.3647436,106.246994 C10.3647436,116.826893 18.9412382,125.405124 29.5189959,125.405124 L48.6732483,125.405124 L48.6732483,144.563253 L86.981753,144.563253 L86.981753,87.0893506 L86.981753,48.7730911 L86.6836305,48.7730911 C86.878164,47.1031696 86.9807804,45.4055214 86.9807804,43.6840381 Z" id="Shape" fill="#FDFDFF"></path>
                                        <ellipse id="Oval" fill="#343434" cx="22.9340378" cy="52.3644196" rx="6.06993078" ry="6.07115951"></ellipse>
                                    </g>
                                    <path d="M106.804228,32.8648145 C106.804228,50.7771915 92.2871672,65.2971909 74.3774428,65.2971909 C56.468691,65.2971909 41.9516304,50.7771915 41.9516304,32.8648145 C41.9516304,14.9514646 56.468691,0.431465306 74.3774428,0.431465306 C92.2876536,0.431465306 106.804228,14.9509782 106.804228,32.8648145 Z" id="Shape" fill="#343434"></path>
                                    <path d="M91.9073406,25.0731445 C91.9331163,24.826037 91.9462473,24.5755245 91.9462473,24.3216069 C91.9462473,20.3503749 88.7281773,17.1316535 84.7577491,17.1316535 C83.4305444,17.1316535 82.1913662,17.4916132 81.1243501,18.1186243 C80.0797053,15.4374103 77.4758747,13.5374064 74.4260762,13.5374064 C71.4881343,13.5374064 68.9645488,15.3007229 67.8493857,17.8243328 C66.9146523,17.3807067 65.8700076,17.1316535 64.7670028,17.1316535 C60.7956019,17.1316535 57.5785045,20.3503749 57.5785045,24.3216069 C57.5785045,24.4660772 57.5843405,24.6095747 57.5926082,24.7520993 C54.8321782,25.7560953 52.8610677,28.4042318 52.8610677,31.5110739 C52.8610677,35.4823058 56.0781651,38.7010273 60.049566,38.7010273 L74.3297821,38.7010273 L74.4255898,38.7010273 L88.705806,38.7010273 C92.6752615,38.7010273 95.8943042,35.4823058 95.8943042,31.5110739 C95.8952769,28.6907403 94.2699497,26.2512832 91.9073406,25.0731445 Z" id="Shape" fill="#70D893"></path>
                                </g>
                            </g>
                            <g transform="translate(138.118768, 65.181906)" id="Shape" fill="#F8F4EA">
                                <polygon points="7.21621928 0.0102150749 7.21621928 14.3794204 14.3988815 14.3794204"></polygon>
                                <polygon points="7.21621928 27.7481393 7.21621928 13.3794204 0.0330706909 13.3794204"></polygon>
                            </g>
                            <polygon id="Shape" fill="#F0B14E" points="71.1939025 147.893368 71.2128483 147.912318 71.2328768 147.893368"></polygon>
                            <g transform="translate(71.004719, 50.588942)" id="Shape">
                                <polygon fill="#999690" points="0.206205484 97.3214506 10.3642573 107.481559 10.3642573 97.3044255 0.224199831 97.3044255"></polygon>
                                <path d="M121.531385,24.4310541 L97.3066173,0.202355769 C103.17472,6.07067308 106.804228,14.1794968 106.804228,23.1356853 C106.804228,36.5855339 98.6182592,48.1212721 86.958409,53.0361824 C86.980294,55.6201099 86.8776776,57.3177581 86.6821715,58.988166 L86.980294,97.3044255 L86.980294,154.777355 L57.6509682,154.777355 L48.6722756,154.777355 L48.6722756,145.797332 L48.6722756,135.619226 L38.4972022,135.619226 L29.5180233,135.619226 C24.2330351,135.619226 19.4475116,133.477951 15.982384,130.015041 L211.414964,314.856842 C213.542674,314.371383 215.649471,313.834362 217.734384,313.24286 C220.034742,312.58715 222.305921,311.861393 224.550837,311.079697 C271.163976,294.852807 305.166482,251.698007 307.929344,200.236892 L121.531385,24.4310541 Z" fill="#A19E97"></path>
                            </g>
                            <path d="M86.9798077,180.596687 C86.9819729,180.599935 86.9852208,180.603184 86.9884687,180.60535 L86.9798077,180.596687 L86.9798077,180.596687 Z" id="Shape" fill="#6DBEC4"></path>
                            <path d="M86.9720264,180.588904 C86.9752742,180.592152 86.9774395,180.595401 86.9806873,180.597567 L86.9806873,180.597567 L86.9720264,180.588904 Z" id="Shape" fill="#6DBEC4"></path>
                        </g>
                    </g>
                </g>
            </g>
        </g>
    </g>
</svg>