<?xml version="1.0" encoding="UTF-8"?>
<svg width="512px" height="512px" viewBox="0 0 512 512" version="1.1" xmlns="http://www.w3.org/2000/svg" xmlns:xlink="http://www.w3.org/1999/xlink">
    <!-- Generator: Sketch 41.1 (35376) - http://www.bohemiancoding.com/sketch -->
    <title>devices</title>
    <desc>Created with Sketch.</desc>
    <defs></defs>
    <g id="icons" stroke="none" stroke-width="1" fill="none" fill-rule="evenodd">
        <g id="devices">
            <g id="Layer_11">
                <g id="Group">
                    <g>
                        <path d="M512,255.998 C512,397.385 397.383,512 256,512 C114.617,512 0,397.385 0,255.998 C0,114.615 114.617,0 256,0 C397.383,0 512,114.615 512,255.998 Z" id="Shape" fill="#45A8A3"></path>
                        <g transform="translate(91.000000, 139.000000)">
                            <path d="M130.23,216.691 C130.23,225.83 137.707,233.306 146.845,233.306 L313,233.306 C322.137,233.306 329.615,225.829 329.615,216.691 L329.615,17.309 C329.615,8.17 322.136,0.692 313,0.692 L146.846,0.692 C137.707,0.692 130.231,8.171 130.231,17.309 L130.231,216.691 L130.23,216.691 Z" id="Shape" fill="#343434"></path>
                            <path d="M116.691,183.461 C116.691,192.6 109.214,200.076 100.078,200.076 L17,200.076 C7.861,200.076 0.385,192.599 0.385,183.461 L0.385,17.309 C0.385,8.17 7.862,0.692 17,0.692 L100.078,0.692 C109.215,0.692 116.691,8.171 116.691,17.309 L116.691,183.461 Z" id="Shape" fill="#343434"></path>
                            <rect id="Rectangle-path" fill="#FDFDFF" x="146.846" y="17.309" width="166.154" height="182.768"></rect>
                            <rect id="Rectangle-path" fill="#FDFDFF" x="17" y="17.309" width="83.078" height="149.535"></rect>
                            <rect id="Rectangle-path" fill="#70D893" x="155.154" y="26.445" width="149.537" height="164.492"></rect>
                            <rect id="Rectangle-path" fill="#70D893" x="25.309" y="25.615" width="66.459" height="132.924"></rect>
                            <circle id="Oval" fill="#FDFDFF" cx="229.922" cy="108.691" r="28.195"></circle>
                            <polygon id="Shape" fill="#70D893" points="231.277 129.365 213.996 112.25 220.926 105.254 228.566 112.824 237.984 94.08 246.785 98.502"></polygon>
                            <circle id="Oval" fill="#FDFDFF" cx="58.539" cy="92.076" r="28.195"></circle>
                            <polygon id="Shape" fill="#70D893" points="59.893 112.748 42.611 95.633 49.541 88.639 57.184 96.209 66.6 77.465 75.398 81.883"></polygon>
                            <circle id="Oval" fill="#FDFDFF" cx="229.923" cy="216.691" r="8.308"></circle>
                            <circle id="Oval" fill="#FDFDFF" cx="58.539" cy="182.734" r="8.309"></circle>
                        </g>
                    </g>
                    <path d="M511.535,240.527 L427.314,156.308 L415.601,144.593 C418.521,147.601 420.308,151.747 420.308,156.308 L420.308,322.46 L420.308,355.69 C420.308,357.608 419.988,359.456 419.402,361.17 C418.566,363.633 417.181,365.832 415.384,367.615 C412.464,370.513 408.468,372.304 403.999,372.304 L403.69,372.304 L237.846,372.304 C228.707,372.304 220.922,364.827 220.922,355.689 L220.922,322.459 L220.922,162.689 L214.539,156.306 L202.654,144.419 L202.58,144.493 C205.559,147.513 207.385,151.694 207.385,156.306 L207.385,322.458 C207.385,327.126 205.51,331.36 202.461,334.384 C199.543,337.282 195.549,339.073 191.078,339.073 L190.769,339.073 L108,339.073 C107.898,339.073 107.795,339.067 107.691,339.067 C103.892,338.997 100.343,337.635 97.507,335.409 L107.691,345.595 L190.769,428.673 L202.46,440.364 L273.499,511.403 C321.796,508.143 366.423,491.485 403.69,465.118 C407.672,462.302 411.573,459.37 415.383,456.333 C433.74,441.708 450.041,424.616 463.787,405.554 C481.631,380.802 495.164,352.74 503.283,322.458 C508.967,301.263 511.998,278.985 511.998,255.995 C512,250.805 511.842,245.648 511.535,240.527 Z" id="Shape" fill="#3A8F8B"></path>
                </g>
            </g>
        </g>
    </g>
</svg>