<?xml version="1.0" encoding="UTF-8"?>
<svg width="380px" height="369px" viewBox="0 0 380 369" version="1.1" xmlns="http://www.w3.org/2000/svg" xmlns:xlink="http://www.w3.org/1999/xlink">
    <!-- Generator: Sketch 41.2 (35397) - http://www.bohemiancoding.com/sketch -->
    <title>devices</title>
    <desc>Created with Sketch.</desc>
    <defs></defs>
    <g id="Page-1" stroke="none" stroke-width="1" fill="none" fill-rule="evenodd">
        <g id="devices">
            <g transform="translate(-104.000000, 31.000000)" id="Welcome">
                <g>
                    <g id="Style-2-v3-Services-page-">
                        <g id="4.-Delivery">
                            <g id="devices" transform="translate(219.000000, 208.000000) scale(-1, 1) translate(-219.000000, -208.000000) ">
                                <g id="Layer_11">
                                    <g id="Group">
                                        <g transform="translate(0.587891, 0.744141)">
                                            <path d="M70.9651758,118.079666 C70.9651758,123.059707 75.0395566,127.133543 80.0190527,127.133543 L170.560547,127.133543 C175.539498,127.133543 179.614424,123.059162 179.614424,118.079666 L179.614424,9.43205273 C179.614424,4.45201172 175.538953,0.377085937 170.560547,0.377085937 L80.0195977,0.377085937 C75.0395566,0.377085937 70.9657207,4.45255664 70.9657207,9.43205273 L70.9657207,118.079666 L70.9651758,118.079666 Z" id="Shape" fill="#343434"></path>
                                            <path d="M63.5874785,99.9719121 C63.5874785,104.951953 59.5130977,109.025789 54.5346914,109.025789 L9.26367188,109.025789 C4.28363086,109.025789 0.209794922,104.951408 0.209794922,99.9719121 L0.209794922,9.43205273 C0.209794922,4.45201172 4.28417578,0.377085937 9.26367188,0.377085937 L54.5346914,0.377085937 C59.5136426,0.377085937 63.5874785,4.45255664 63.5874785,9.43205273 L63.5874785,99.9719121 Z" id="Shape" fill="#343434"></path>
                                            <rect id="Rectangle-path" fill="#FDFDFF" x="80.0195977" y="9.43205273" width="90.5409492" height="99.5942812"></rect>
                                            <rect id="Rectangle-path" fill="#FDFDFF" x="9.26367188" y="9.43205273" width="45.2710195" height="81.4848926"></rect>
                                            <rect id="Rectangle-path" fill="#45A8A3" x="84.5468086" y="14.410459" width="81.4859824" height="89.6352891"></rect>
                                            <rect id="Rectangle-path" fill="#45A8A3" x="13.7914277" y="13.9581738" width="36.2149629" height="72.4331953"></rect>
                                            <ellipse id="Oval" fill="#FFFFFF" transform="translate(125.289527, 59.228104) scale(-1, 1) translate(-125.289527, -59.228104) " cx="125.289527" cy="59.2281035" rx="15.3640723" ry="15.3640723"></ellipse>
                                            <polygon id="Shape" fill="#45A8A3" transform="translate(125.544822, 60.880034) scale(-1, 1) translate(-125.544822, -60.880034) " points="126.027895 70.4938184 116.611101 61.1674805 120.387409 57.355207 124.550612 61.4802656 129.682686 51.26625 134.478544 53.6758945"></polygon>
                                            <ellipse id="Oval" fill="#FFFFFF" transform="translate(31.899182, 50.174227) scale(-1, 1) translate(-31.899182, -50.174227) " cx="31.8991824" cy="50.1742266" rx="15.3640723" ry="15.3640723"></ellipse>
                                            <polygon id="Shape" fill="#45A8A3" transform="translate(32.152843, 51.825612) scale(-1, 1) translate(-32.152843, -51.825612) " points="32.6370064 61.4388516 23.2196665 52.1125137 26.9959751 48.3013301 31.160813 52.4263887 36.2917974 42.212373 41.08602 44.6198379"></polygon>
                                            <circle id="Oval" fill="#FDFDFF" cx="125.290072" cy="118.079666" r="4.52721094"></circle>
                                            <circle id="Oval" fill="#FDFDFF" cx="31.8991816" cy="99.5757539" r="4.52775586"></circle>
                                        </g>
                                        <path d="M437.018929,268.073178 L183.852746,10.1756484 L177.470076,3.79188867 C179.061248,5.43101367 180.035023,7.69025977 180.035023,10.1756484 L180.035023,100.715508 L180.035023,118.823262 C180.035023,119.868422 179.860648,120.875437 179.541324,121.809434 C179.08577,123.151576 178.331053,124.349859 177.351828,125.321455 C175.760656,126.900639 173.583148,127.876594 171.147893,127.876594 L80.6074883,127.876594 C75.6274473,127.876594 71.3852305,123.802213 71.3852305,118.822717 L71.3852305,100.714963 L71.3852305,13.6527949 L67.9069941,10.1745586 L61.4305977,3.69707227 C63.0135957,5.38306055 64.008623,7.66137891 64.008623,10.1745586 L64.008623,100.714418 C64.008623,103.258113 62.9868945,105.565313 61.3254277,107.213156 C59.7353457,108.79234 57.5589277,109.768295 55.122582,109.768295 L9.8515625,109.768295 C7.61302344,109.726881 5.6790957,108.984697 4.13369727,107.771701 L9.68318164,113.322275 L54.9542012,158.593295 L61.3248828,164.963977 L307.307906,415.679436 C333.625998,413.902991 357.944226,404.825682 378.25183,390.457727 C380.421709,388.923227 382.547449,387.325516 384.623601,385.670588 C394.626732,377.701106 403.509504,368.387301 411,358 C420.723586,344.512094 428.098013,329.220497 432.522234,312.719172 C435.61957,301.169553 437.271228,289.029784 437.271228,276.50203 C437.272318,273.673885 437.18622,270.863723 437.018929,268.073178 Z" id="Shape" fill="#A19E97"></path>
                                    </g>
                                </g>
                            </g>
                        </g>
                    </g>
                </g>
            </g>
        </g>
    </g>
</svg>