<?xml version="1.0" encoding="UTF-8" standalone="no"?>
<svg width="271px" height="297px" viewBox="0 0 271 297" version="1.1" xmlns="http://www.w3.org/2000/svg" xmlns:xlink="http://www.w3.org/1999/xlink">
    <!-- Generator: Sketch 41 (35326) - http://www.bohemiancoding.com/sketch -->
    <title>smarty_business_2</title>
    <desc>Created with Sketch.</desc>
    <defs></defs>
    <g id="Welcome" stroke="none" stroke-width="1" fill="none" fill-rule="evenodd">
        <g id="Style-2-v3-Services-page-" transform="translate(-93.000000, -725.000000)">
            <g id="2.-Discovery" transform="translate(-135.000000, 522.000000)">
                <g id="smarty_business_2" transform="translate(402.000000, 330.000000) scale(-1, 1) translate(-402.000000, -330.000000) translate(228.000000, 160.000000)">
                    <g id="Layer_11">
                        <g id="Group">
                            <g transform="translate(89.235085, 54.947353)" id="Shape" fill="#DBA349">
                                <path d="M108.225051,50.1900204 L58.1479858,0.179617818 C65.5628203,7.5836582 70.1484865,17.8140242 70.1484865,29.1124005 C70.1484865,39.4166453 66.3257109,48.8232627 60.0316321,56.0181338 C53.4601385,63.5269897 44.1912486,68.6177003 33.7285504,69.77298 L33.7285504,83.6705046 L36.005201,83.6705046 C37.256804,83.6705046 38.2809268,84.6932641 38.2809268,85.943201 L38.2809268,96.0729071 L38.2809268,120.041958 L38.2809268,135.954065 C38.2809268,137.204002 37.256804,138.226762 36.005201,138.226762 L33.7285504,138.226762 L24.6233352,138.226762 L22.3466847,138.226762 C21.7215767,138.226762 21.1519517,137.970495 20.7399908,137.559544 L173.310173,284.774316 C187.826363,280.799175 201.230582,274.139926 212.946733,265.352967 C235.653594,248.32529 252.030313,223.333479 257.915668,194.528599 L108.225051,50.1900204 Z"></path>
                                <path d="M24.6233352,69.7725182 C15.1297393,68.7243628 0.211297585,58.0396423 0.211297585,58.0396423 L144.764915,199.052647 L24.6233352,76.052647 L24.6233352,69.7725182 Z"></path>
                            </g>
                            <g>
                                <ellipse id="Oval" cx="118.363636" cy="118.20607" rx="118.363636" ry="118.20607"></ellipse>
                                <g transform="translate(77.213778, 42.942049)">
                                    <rect id="Rectangle-path" fill="#3B4250" x="36.644642" y="77.2993821" width="9.1052152" height="72.9317601"></rect>
                                    <path d="M50.3022337,147.958908 C50.3022337,149.208844 49.2781108,150.231604 48.0265078,150.231604 L34.3679915,150.231604 C33.1173132,150.231604 32.0922656,149.208844 32.0922656,147.958908 L32.0922656,97.9480432 C32.0922656,96.6981064 33.1173132,95.6753469 34.3679915,95.6753469 L48.0265078,95.6753469 C49.2781108,95.6753469 50.3022337,96.6981064 50.3022337,97.9480432 L50.3022337,147.958908 Z" id="Shape" fill="#343434"></path>
                                    <g id="Shape">
                                        <path d="M70.1692926,12.1849218 C62.7544581,4.78088145 52.5123047,0.201319713 41.1970185,0.201319713 L41.1970185,41.1177045 L70.1692926,12.1849218 Z" fill="#EC604B"></path>
                                        <path d="M41.1970185,0.201319713 C18.5696825,0.201319713 0.225168324,18.5204902 0.225168324,41.1177045 C0.225168324,63.7158423 18.5696825,82.0359363 41.1970185,82.0359363 C52.5123047,82.0359363 62.7544581,77.455451 70.1692926,70.0504872 L41.1970185,41.1177045 L41.1970185,0.201319713 Z" fill="#45A8A3"></path>
                                        <path d="M82.1697933,41.1177045 C82.1697933,29.8193282 77.5841271,19.5889622 70.1692926,12.1849218 L41.1970185,41.1177045 L70.1692926,70.0504872 C77.5841271,62.6464468 82.1697933,52.417466 82.1697933,41.1177045 Z" fill="#F8F4EA"></path>
                                    </g>
                                    <path d="M41.1970185,9.29349053 C58.7693949,9.29349053 73.0655028,23.569644 73.0655028,41.1177045 C73.0655028,58.6666885 58.7693949,72.9437654 41.1970185,72.9437654 C23.6255668,72.9437654 9.33038352,58.6666885 9.33038352,41.1177045 C9.33038352,23.569644 23.6255668,9.29349053 41.1970185,9.29349053 L41.1970185,9.29349053 Z M41.1970185,0.201319713 C18.5696825,0.201319713 0.225168324,18.5204902 0.225168324,41.1177045 C0.225168324,63.7158423 18.5696825,82.0359363 41.1970185,82.0359363 C63.8252791,82.0359363 82.1697933,63.7158423 82.1697933,41.1177045 C82.1697933,18.5200284 63.8252791,0.201319713 41.1970185,0.201319713 L41.1970185,0.201319713 Z" id="Shape" fill="#343434"></path>
                                </g>
                            </g>
                        </g>
                    </g>
                </g>
            </g>
        </g>
    </g>
</svg>