<?xml version="1.0" encoding="UTF-8" standalone="no"?>
<svg width="94px" height="94px" viewBox="0 0 94 94" version="1.1" xmlns="http://www.w3.org/2000/svg" xmlns:xlink="http://www.w3.org/1999/xlink">
    <!-- Generator: Sketch 41 (35326) - http://www.bohemiancoding.com/sketch -->
    <title>gull</title>
    <desc>Created with Sketch.</desc>
    <defs></defs>
    <g id="Welcome" stroke="none" stroke-width="1" fill="none" fill-rule="evenodd">
        <g id="Style-2-iteration-3" transform="translate(-224.000000, -341.000000)">
            <g id="gull" transform="translate(224.000000, 341.000000)">
                <g id="Layer_22">
                    <g id="Group">
                        <g>
                            <ellipse id="Oval" fill="#1DA1F2" cx="47" cy="46.703614" rx="47" ry="46.703614"></ellipse>
                            <g transform="translate(20.195312, 22.439627)">
                                <g opacity="0.6" transform="translate(22.031250, 48.710410)" id="Rectangle-path" fill="#0077D9">
                                    <g>
                                        <rect x="0.091796875" y="0.0912179961" width="7.25195313" height="10.4900696"></rect>
                                    </g>
                                </g>
                                <path d="M23.5917969,51.7904768 C23.1041719,51.677184 22.6242578,51.5538573 22.1531562,51.4192195 C22.1351641,51.4812478 22.1230469,51.5460126 22.1230469,51.614426 L22.1230469,58.4493905 L23.5917969,58.4493905 L23.5917969,51.7904768 Z" id="Shape" fill="#FFD066"></path>
                                <path d="M27.9980469,52.4831862 L27.9980469,58.4493905 L29.4667969,58.4493905 L29.4667969,52.5778705 C28.970543,52.5572553 28.4814492,52.5244168 27.9980469,52.4831862 Z" id="Shape" fill="#FFD066"></path>
                                <path d="M27.9980469,52.4831862 C28.4814492,52.5245992 28.970543,52.5572553 29.4667969,52.578053 C29.9465273,52.5979385 30.4306641,52.6116212 30.9226953,52.6116212 C52.2324219,52.6116212 54.9016914,29.2598142 63.9824219,29.2598142 L43.4199219,29.2598142 C43.4199219,37.4716231 36.7209531,44.1276178 28.4573984,44.1276178 L28.4573984,29.2598142 L16.9824219,29.2598142 L16.9824219,4.93434628 C16.9824219,2.24761142 14.3518906,0.069872985 11.1074219,0.069872985 C7.86295313,0.069872985 5.23242188,2.24779386 5.23242188,4.93434628 L5.21810156,5.17808077 L5.23242188,5.17808077 C5.63798047,5.17808077 5.96679688,5.50445876 5.96679688,5.90782474 C5.96679688,6.31046097 5.63798047,6.63756871 5.23242188,6.63756871 L5.12942578,6.63756871 L3.76367188,29.2596317 L3.73778516,29.2596317 C3.73778516,38.0300596 10.335043,48.0341197 22.1531563,51.4192195 C22.6242578,51.5538573 23.1041719,51.677184 23.5917969,51.7904768 C24.9935352,52.116125 26.4626523,52.3505553 27.9980469,52.4831862 Z M11.1074219,4.4483368 C11.7158516,4.4483368 12.2089844,4.937995 12.2089844,5.54295275 C12.2089844,6.14736319 11.7158516,6.63756871 11.1074219,6.63756871 C10.4989922,6.63756871 10.0058594,6.14718076 10.0058594,5.54295275 C10.0058594,4.93781257 10.4989922,4.4483368 11.1074219,4.4483368 Z" id="Shape" fill="#FDFDFF"></path>
                                <path d="M5.96679688,5.90782474 C5.96679688,5.50445876 5.63798047,5.17808077 5.23242188,5.17808077 L5.21810156,5.17808077 L0.826171875,5.17808077 C0.420613281,5.17808077 0.091796875,5.50445876 0.091796875,5.90782474 C0.091796875,6.31046097 0.420613281,6.63756871 0.826171875,6.63756871 L5.12942578,6.63756871 L5.23242188,6.63756871 C5.63798047,6.63756871 5.96679688,6.31046097 5.96679688,5.90782474 Z" id="Shape" fill="#FFD066"></path>
                                <ellipse id="Oval" fill="#343434" cx="11.1074219" cy="5.54295275" rx="1.1015625" ry="1.09461595"></ellipse>
                                <path d="M43.4199219,29.2596317 L28.4573984,29.2596317 L28.4573984,44.1274354 C36.7209531,44.1274354 43.4199219,37.4714406 43.4199219,29.2596317 Z" id="Shape" fill="#343434"></path>
                                <g transform="translate(6.242188, 58.379518)" id="Shape">
                                    <path d="M37.5384961,0.069872985 L29.4732227,0.069872985 C32.7044727,0.069872985 35.3482227,2.6965864 35.3482227,5.90782474 L35.3482227,10.2271793 C38.1645508,9.30076932 40.8617266,8.11639486 43.4134961,6.70251592 L43.4134961,5.90800717 C43.4134961,2.6965864 40.7699297,0.069872985 37.5384961,0.069872985 Z" fill="#343434"></path>
                                    <path d="M35.3482227,10.2271793 L35.3482227,5.90782474 C35.3482227,2.6965864 32.7044727,0.069872985 29.4732227,0.069872985 L23.2246094,0.069872985 L21.7558594,0.069872985 L17.3496094,0.069872985 L15.8808594,0.069872985 L14.0384961,0.069872985 L5.97322266,0.069872985 C2.74160547,0.069872985 0.0982226563,2.6965864 0.0982226563,5.90782474 L0.0982226563,7.93961438 C6.28441406,10.9176995 13.2273789,12.5880835 20.5625,12.5880835 C25.7290117,12.5880835 30.6988945,11.7578173 35.3482227,10.2271793 Z" fill="#4C4C4C"></path>
                                </g>
                            </g>
                        </g>
                        <g transform="translate(19.828125, 23.899115)" id="Shape">
                            <path d="M0.67415625,5.03121979 L1.19335938,5.52434428 L4.73469922,9.0320411 L5.23591016,9.52443585 L5.29355859,8.60860716 L5.49661328,5.29064377 L1.19335938,5.29064377 C0.990488281,5.29064377 0.806894531,5.16385076 0.67415625,5.03121979 Z" fill="#0284DC"></path>
                            <path d="M0.154953125,4.46968181 L0.69518301,5.00945454 C0.556687018,4.87145748 0.471297075,4.68059018 0.471297075,4.46968181 L0.154953125,4.46968181 Z" fill="#66B3B3"></path>
                            <path d="M31.9704648,16.3172576 L20.0936016,4.49248631 L16.2480469,0.705479982 C16.9128398,1.49360347 17.2578125,2.44081114 17.2578125,3.47485834 L17.2578125,4.46968181 L17.2578125,21.556272 L17.2578125,27.9127068 L22.4816055,27.9127068 L23.6549531,27.9127068 L28.8245859,27.9127068 L43.593418,27.9127068 L31.9704648,16.3172576 Z" fill="#0284DC"></path>
                            <polygon fill="#66B3B3" points="15.6412695 0.0456089981 15.6412695 0.0456089981 15.6434305 0.047768089"></polygon>
                            <path d="M64.3496094,27.8214888 C60.2453711,27.8214888 57.4505234,32.5905481 53.6523359,37.8169744 C53.0369297,38.6629301 52.3958203,39.5212914 51.7189102,40.3732675 C49.9141836,42.6424064 47.8533437,44.8668484 45.3504102,46.7008775 C44.8339609,47.0792497 44.298418,47.4413852 43.7428633,47.7834526 C40.4321172,49.8216276 36.3506445,51.1627145 31.2438008,51.1627145 C30.7517695,51.1627145 30.4763789,51.1384505 29.7420039,51.118565 L29.7420039,57.1024656 L34.9744258,57.1024656 L36.0824141,57.1024656 L44.1476875,57.1024656 C47.3793047,57.1024656 49.9375,59.616616 49.9375,62.8278543 L49.9375,63.5789433 L55.788082,59.7975925 L55.8238828,59.8110927 C59.5635039,56.9455706 62.8678242,53.5327405 65.5930898,49.6937399 C68.5663906,45.5048271 70.8699414,40.8085598 72.333,35.7609208 L64.3496094,27.8214888 Z" fill="#0284DC"></path>
                            <path d="M22.3984375,54.6915739 L22.3984375,50.1549381 C22.3984375,50.0865246 22.4564531,50.032706 22.4744453,49.9703129 C18.1320859,48.7268292 14.4723281,46.588132 11.6078984,43.9466413 L22.3984375,54.6915739 Z" fill="#0284DC"></path>
                        </g>
                    </g>
                </g>
            </g>
        </g>
    </g>
</svg>