<?xml version="1.0" encoding="UTF-8" standalone="no"?>
<svg width="367px" height="367px" viewBox="0 0 367 367" version="1.1" xmlns="http://www.w3.org/2000/svg" xmlns:xlink="http://www.w3.org/1999/xlink">
    <!-- Generator: Sketch 41 (35326) - http://www.bohemiancoding.com/sketch -->
    <title>lightbulb</title>
    <desc>Created with Sketch.</desc>
    <defs></defs>
    <g id="Welcome" stroke="none" stroke-width="1" fill="none" fill-rule="evenodd">
        <g id="Style-2-v3-Services-page-" transform="translate(-644.000000, -1677.000000)">
            <g id="lightbulb" transform="translate(644.000000, 1677.000000)">
                <g id="Lightbulb">
                    <g id="Welcome">
                        <g id="Style-2-iteration-3">
                            <g id="Contact-us">
                                <g id="Lightbulb">
                                    <circle id="Oval-2" fill-opacity="0.2" fill="#FFD066" style="mix-blend-mode: hard-light;" cx="183.5" cy="183.5" r="183.5"></circle>
                                    <g id="smarty_game_design_7" transform="translate(149.000000, 125.000000)">
                                        <g id="Layer_16">
                                            <g id="Group">
                                                <g>
                                                    <g transform="translate(0.908203, 0.175781)">
                                                        <rect id="Rectangle-path" fill="#343434" x="27.2126777" y="103.638445" width="12.7586074" height="12.7578691"></rect>
                                                        <path d="M33.5917969,80.3737266 L33.5917969,0.169435547 C15.1506387,0.169435547 0.201919922,13.8903926 0.201919922,33.5600508 C0.201919922,53.229709 17.1347695,66.0488555 17.1347695,80.3737266 L22.2377695,80.3737266 L33.5917969,80.3737266 Z" id="Shape" fill="#FFAC4C"></path>
                                                        <path d="M33.5917969,0.169435547 L33.5917969,80.3737266 L44.9458242,80.3737266 L50.0488242,80.3737266 C50.0488242,66.0484863 66.9816738,53.229709 66.9816738,33.5600508 C66.9816738,13.8903926 52.0329551,0.169435547 33.5917969,0.169435547 Z" id="Shape" fill="#FFAC4C"></path>
                                                        <path d="M33.5917969,113.526615 L44.9458242,113.526615 C47.7527695,113.526615 50.0488242,111.229453 50.0488242,108.422139 L50.0488242,85.477834 L33.5917969,85.477834 L33.5917969,113.526615 Z" id="Shape" fill="#FDFDFF"></path>
                                                        <path d="M17.1347695,85.477834 L17.1347695,108.422139 C17.1347695,111.229453 19.4319316,113.526615 22.2377695,113.526615 L33.5917969,113.526615 L33.5917969,85.477834 L17.1347695,85.477834 Z" id="Shape" fill="#FDFDFF"></path>
                                                        <polygon id="Shape" fill="#FFD066" points="22.2377695 80.3737266 17.1347695 80.3737266 17.1347695 85.4774648 33.5917969 85.4774648 33.5917969 80.3737266"></polygon>
                                                        <polygon id="Shape" fill="#FFD066" points="44.9458242 80.3737266 33.5917969 80.3737266 33.5917969 85.4774648 50.0488242 85.4774648 50.0488242 80.3737266"></polygon>
                                                    </g>
                                                </g>
                                            </g>
                                        </g>
                                    </g>
                                </g>
                            </g>
                        </g>
                    </g>
                </g>
            </g>
        </g>
    </g>
</svg>