<?xml version="1.0" encoding="UTF-8"?>
<svg width="512px" height="512px" viewBox="0 0 512 512" version="1.1" xmlns="http://www.w3.org/2000/svg" xmlns:xlink="http://www.w3.org/1999/xlink">
    <!-- Generator: Sketch 41.1 (35376) - http://www.bohemiancoding.com/sketch -->
    <title>lock-2</title>
    <desc>Created with Sketch.</desc>
    <defs></defs>
    <g id="icons" stroke="none" stroke-width="1" fill="none" fill-rule="evenodd">
        <g id="lock-2">
            <g id="Layer_25">
                <g id="Group">
                    <circle id="Oval" fill="#45A8A3" cx="256" cy="256" r="256"></circle>
                    <g transform="translate(160.000000, 123.000000)" id="Shape">
                        <path d="M140.078,69.398 C137.805,47.085 118.902,29.615 96,29.615 C72.332,29.615 52.939,48.269 51.75,71.646 C51.711,72.4 51.691,73.16 51.691,73.921 L51.691,105.308 L96,105.308 L140.309,105.308 L140.309,73.921 C140.309,72.396 140.23,70.887 140.078,69.398 Z"></path>
                        <path d="M36.922,73.922 C36.922,41.295 63.371,14.846 96,14.846 C128.627,14.846 155.078,41.295 155.078,73.922 L155.078,105.309 L169.846,105.309 L169.846,73.922 C169.846,33.203 136.719,0.078 96,0.078 C55.281,0.078 22.154,33.203 22.154,73.922 L22.154,105.309 L36.922,105.309 L36.922,73.922 Z" fill="#FDFDFF"></path>
                        <path d="M96,14.846 C63.371,14.846 36.922,41.295 36.922,73.922 L36.922,105.309 L51.692,105.309 L51.692,73.922 C51.692,73.16 51.712,72.401 51.751,71.647 C52.94,48.27 72.333,29.616 96.001,29.616 C118.903,29.616 137.806,47.087 140.079,69.399 C140.231,70.887 140.309,72.397 140.309,73.922 L140.309,105.309 L155.079,105.309 L155.079,73.922 C155.078,41.295 128.627,14.846 96,14.846 Z" fill="#B8B6B6"></path>
                        <polygon fill="#EC604B" points="96 105.309 51.691 105.309 36.922 105.309 22.154 105.309 0 105.309 0 250.555 96 250.555"></polygon>
                        <polygon fill="#D15643" points="169.846 105.309 155.078 105.309 140.309 105.309 96 105.309 96 250.555 192 250.555 192 105.309"></polygon>
                        <polygon fill="#FDFDFF" points="0 250.555 0 265.922 96 265.922 192 265.922 192 250.555 96 250.555"></polygon>
                        <path d="M140.078,69.398 C137.805,47.085 118.902,29.615 96,29.615 C72.332,29.615 52.939,48.269 51.75,71.646 C51.711,72.4 51.691,73.16 51.691,73.921 L51.691,105.308 L140.308,105.308 L140.308,73.921 C140.309,72.396 140.23,70.887 140.078,69.398 Z" fill="#3A8F8B"></path>
                    </g>
                    <g transform="translate(160.000000, 144.000000)" id="Shape">
                        <path d="M339.301,191.84 L148.207,0.744 C161.57,14.113 169.846,32.57 169.846,52.922 L169.846,84.309 L192,84.309 L192,229.555 L192,244.922 L96,244.922 L0,244.922 L121.793,366.715 C223.902,356.5 308.328,286.281 339.301,191.84 Z" fill="#3A8F8B"></path>
                        <path d="M148.193,0.73 C148.187,0.726 148.183,0.72 148.179,0.716 L148.193,0.73 L148.193,0.73 Z" fill="#FFFFFF"></path>
                        <path d="M148.193,0.73 L148.207,0.744 C148.201,0.738 148.197,0.734 148.193,0.73 L148.193,0.73 Z" fill="#FFFFFF"></path>
                    </g>
                </g>
            </g>
        </g>
    </g>
</svg>