<?xml version="1.0" encoding="UTF-8"?>
<svg width="512px" height="512px" viewBox="0 0 512 512" version="1.1" xmlns="http://www.w3.org/2000/svg" xmlns:xlink="http://www.w3.org/1999/xlink">
    <!-- Generator: Sketch 41.1 (35376) - http://www.bohemiancoding.com/sketch -->
    <title>lock</title>
    <desc>Created with Sketch.</desc>
    <defs></defs>
    <g id="icons" stroke="none" stroke-width="1" fill="none" fill-rule="evenodd">
        <g id="lock">
            <g id="Layer_5">
                <g id="Group">
                    <g>
                        <circle id="Oval" fill="#EC604B" cx="256" cy="256" r="256"></circle>
                        <g transform="translate(155.000000, 98.000000)">
                            <path d="M117.41,20.154 C128.267,20.154 137.101,28.986 137.101,39.845 L137.101,118.615 C137.101,129.474 128.267,138.306 117.41,138.306 L78.025,138.306 C67.168,138.306 58.332,129.474 58.332,118.615 L58.332,39.845 C58.332,28.986 67.168,20.154 78.025,20.154 L117.41,20.154 L117.41,20.154 Z M117.41,0.461 L78.025,0.461 C56.363,0.461 38.64,18.186 38.64,39.846 L38.64,118.616 C38.64,140.276 56.363,158.001 78.025,158.001 L117.41,158.001 C139.072,158.001 156.795,140.276 156.795,118.616 L156.795,39.846 C156.795,18.186 139.072,0.461 117.41,0.461 L117.41,0.461 Z" id="Shape" fill="#F8F4EA"></path>
                            <g transform="translate(0.000000, 98.000000)" fill="#F8F4EA">
                                <path d="M19.949,0.924 C9.117,0.924 0.256,9.783 0.256,20.615 L0.256,158.461 C0.256,169.291 9.117,178.154 19.949,178.154 L39.64,178.154 L39.64,0.924 L19.949,0.924 Z" id="Shape"></path>
                                <path d="M175.486,0.924 L155.795,0.924 L155.795,178.154 L175.486,178.154 C186.316,178.154 195.179,169.291 195.179,158.461 L195.179,20.615 C195.18,9.783 186.316,0.924 175.486,0.924 Z" id="Shape"></path>
                                <rect id="Rectangle-path" x="38.641" y="0.924" width="118.154" height="177.23"></rect>
                            </g>
                            <g transform="translate(79.000000, 145.000000)" id="Shape" fill="#343434">
                                <path d="M36.699,18.834 C36.699,28.768 28.648,36.814 18.717,36.814 C8.786,36.814 0.737,28.767 0.737,18.834 C0.737,8.904 8.786,0.854 18.717,0.854 C28.648,0.854 36.699,8.904 36.699,18.834 Z"></path>
                                <polygon points="11.654 26.189 4.592 87.514 32.842 87.514 25.779 26.189"></polygon>
                            </g>
                        </g>
                    </g>
                    <g transform="translate(160.000000, 110.000000)" id="Shape" fill="#D15643">
                        <path d="M209.148,68.955 L199.3,59.107 L140.23,0.037 C147.365,7.174 151.794,17.017 151.794,27.846 L151.794,86.924 L171.485,86.924 C176.901,86.924 181.823,89.139 185.393,92.709 C188.963,96.279 191.178,101.201 191.178,106.615 L191.178,244.461 C191.178,255.291 182.315,264.154 171.485,264.154 L151.794,264.154 L33.641,264.154 L13.95,264.154 C8.587,264.154 3.712,261.976 0.151,258.468 L9.893,268.208 L139.916,398.231 C228.361,382.942 301.252,322.272 333.752,241.067 C338.41,229.428 342.238,217.374 345.162,204.967 L209.148,68.955 Z"></path>
                        <path d="M132.102,27.846 C132.102,22.416 129.895,17.494 126.329,13.928 C122.763,10.362 117.841,8.155 112.411,8.155 L73.026,8.155 C62.169,8.155 53.333,16.987 53.333,27.846 L53.333,86.924 L132.103,86.924 L132.103,27.846 L132.102,27.846 Z"></path>
                    </g>
                </g>
            </g>
        </g>
    </g>
</svg>