<?xml version="1.0" encoding="UTF-8" standalone="no"?>
<svg width="212px" height="212px" viewBox="0 0 212 212" version="1.1" xmlns="http://www.w3.org/2000/svg" xmlns:xlink="http://www.w3.org/1999/xlink">
    <!-- Generator: Sketch 41 (35326) - http://www.bohemiancoding.com/sketch -->
    <title>newspaper</title>
    <desc>Created with Sketch.</desc>
    <defs></defs>
    <g id="Welcome" stroke="none" stroke-width="1" fill="none" fill-rule="evenodd">
        <g id="Style-2-iteration-3" transform="translate(-212.000000, -418.000000)">
            <g id="newspaper" transform="translate(212.000000, 418.000000)">
                <g id="Layer_17">
                    <g id="Group">
                        <g>
                            <ellipse id="Oval" fill="#70D893" cx="106" cy="105.793372" rx="106" ry="105.793372"></ellipse>
                            <g transform="translate(48.859375, 48.764133)">
                                <rect id="Rectangle-path" fill="#FDFDFF" x="0.063765625" y="0.0636413255" width="97.8458672" height="97.6551345"></rect>
                                <ellipse id="Oval" fill="#FDFDFF" cx="8.21789844" cy="105.857014" rx="8.15371875" ry="8.13782456"></ellipse>
                                <rect id="Rectangle-path" fill="#FDFDFF" x="0.063765625" y="96.7187758" width="97.8458672" height="10"></rect>
                                <rect id="Rectangle-path" fill="#FDFDFF" x="8.21748437" y="105.857014" width="97.8466953" height="8.13741131"></rect>
                                <rect id="Rectangle-path" fill="#EC604B" x="8.21748437" y="12.2699649" width="81.5388437" height="8.13823782"></rect>
                                <rect id="Rectangle-path" fill="#D8D8DA" x="8.21748437" y="32.6149396" width="32.6157031" height="36.6214503"></rect>
                                <g transform="translate(48.859375, 32.233918)" id="Rectangle-path" fill="#D8D8DA">
                                    <rect x="0.127945313" y="0.381021442" width="40.7690078" height="4.06973879"></rect>
                                    <rect x="0.127945313" y="16.6579103" width="40.7690078" height="4.06891228"></rect>
                                    <rect x="0.127945313" y="32.9327329" width="40.7690078" height="4.06973879"></rect>
                                    <rect x="0.127945313" y="8.51925926" width="40.7690078" height="4.06891228"></rect>
                                    <rect x="0.127945313" y="24.7953216" width="40.7690078" height="4.06891228"></rect>
                                </g>
                                <g transform="translate(7.867188, 73.146199)" id="Rectangle-path" fill="#D8D8DA">
                                    <rect x="0.350296875" y="8.29734113" width="81.5388437" height="4.06808577"></rect>
                                    <rect x="0.350296875" y="24.572577" width="81.5388437" height="4.06973879"></rect>
                                    <rect x="0.350296875" y="0.159103314" width="81.5388437" height="4.06891228"></rect>
                                    <rect x="0.350296875" y="16.4351657" width="81.5388437" height="4.06891228"></rect>
                                </g>
                                <rect id="Rectangle-path" fill="#343434" x="8.21748437" y="24.477115" width="81.5388437" height="4.06973879"></rect>
                                <ellipse id="Oval" fill="#D8D8DA" cx="106.063352" cy="105.857014" rx="8.15371875" ry="8.13782456"></ellipse>
                                <rect id="Rectangle-path" fill="#D8D8DA" x="97.9096328" y="48.8918285" width="16.3078516" height="56.9655984"></rect>
                            </g>
                        </g>
                        <path d="M154.923141,56.9655984 L146.769008,48.8281871 L146.769008,65.1042495 L146.769008,97.6563743 L163.076859,97.6563743 L163.076859,154.621973 C163.076859,159.116125 159.426484,162.759384 154.923555,162.759384 L57.0768594,162.759384 L53.6989375,162.759384 L102.560797,211.525996 C103.703609,211.562363 104.848492,211.587158 106.000414,211.587158 C161.897195,211.587158 207.685055,168.403626 211.709328,113.641505 L154.923141,56.9655984 Z" id="Shape" fill="#61BA7F"></path>
                    </g>
                </g>
            </g>
        </g>
    </g>
</svg>