<?xml version="1.0" encoding="UTF-8"?>
<svg width="512px" height="512px" viewBox="0 0 512 512" version="1.1" xmlns="http://www.w3.org/2000/svg" xmlns:xlink="http://www.w3.org/1999/xlink">
    <!-- Generator: Sketch 41.1 (35376) - http://www.bohemiancoding.com/sketch -->
    <title>phone</title>
    <desc>Created with Sketch.</desc>
    <defs></defs>
    <g id="icons" stroke="none" stroke-width="1" fill="none" fill-rule="evenodd">
        <g id="phone">
            <g id="Layer_20">
                <g id="Group">
                    <g>
                        <circle id="Oval" fill="#F0B14E" cx="255.998" cy="255.998" r="255.998"></circle>
                        <g transform="translate(179.000000, 116.000000)">
                            <path d="M154.092,261.17 C154.092,269.594 147.199,276.486 138.778,276.486 L16.246,276.486 C7.822,276.486 0.928,269.593 0.928,261.17 L0.928,16.111 C0.928,7.687 7.823,0.795 16.246,0.795 L138.777,0.795 C147.199,0.795 154.091,7.688 154.091,16.111 L154.091,261.17 L154.092,261.17 Z" id="Shape" fill="#4A4A4A"></path>
                            <circle id="Oval" fill="#FDFDFF" cx="77.51" cy="261.17" r="9.572"></circle>
                            <rect id="Rectangle-path" fill="#FDFDFF" x="16.246" y="31.904" width="122.531" height="213.949"></rect>
                            <path d="M123.459,128.248 C123.459,153.623 102.887,174.193 77.51,174.193 C52.133,174.193 31.561,153.623 31.561,128.248 C31.561,102.869 52.133,82.299 77.51,82.299 C102.887,82.299 123.459,102.869 123.459,128.248 Z" id="Shape" fill="#EC604B"></path>
                            <path d="M85.168,21.033 L69.852,21.033 C67.133,21.033 64.928,18.83 64.928,16.111 C64.928,13.392 67.133,11.187 69.852,11.187 L85.168,11.187 C87.887,11.187 90.092,13.392 90.092,16.111 C90.092,18.83 87.887,21.033 85.168,21.033 Z" id="Shape" fill="#343434"></path>
                            <g transform="translate(49.000000, 113.000000)" id="Rectangle-path" fill="#D15643">
                                <rect x="0.121" y="0.479" width="55.998" height="9.848"></rect>
                                <rect x="0.121" y="20.17" width="37.961" height="9.848"></rect>
                            </g>
                        </g>
                    </g>
                    <path d="M339.408,132.111 L328.594,121.297 C331.371,124.072 333.092,127.901 333.092,132.111 L333.092,377.17 C333.092,385.594 326.199,392.486 317.778,392.486 L195.246,392.486 C191.629,392.486 188.299,391.209 185.672,389.091 L195.246,398.665 L304.053,507.474 C308.67,506.595 313.248,505.595 317.778,504.474 C388.592,486.923 447.774,439.904 481.548,377.169 C494.2,353.669 503.288,327.97 508.087,300.786 L339.408,132.111 Z" id="Shape" fill="#D89938"></path>
                </g>
            </g>
        </g>
    </g>
</svg>