<?xml version="1.0" encoding="UTF-8" standalone="no"?>
<svg width="229px" height="57px" viewBox="0 0 229 57" version="1.1" xmlns="http://www.w3.org/2000/svg" xmlns:xlink="http://www.w3.org/1999/xlink">
    <!-- Generator: Sketch 40.3 (33839) - http://www.bohemiancoding.com/sketch -->
    <title>Wide-Red-Large 34 copy 4</title>
    <desc>Created with Sketch.</desc>
    <defs></defs>
    <g id="Welcome" stroke="none" stroke-width="1" fill="none" fill-rule="evenodd">
        <g id="Style-2-iteration-2" transform="translate(-39.000000, -19.000000)" fill="#EC604B">
            <g id="Header" transform="translate(-22.000000, -18.000000)">
                <g id="Wide-Red-Large-34-copy-4" transform="translate(62.000000, 38.000000)">
                    <g id="Layer_1">
                        <path d="M119.862579,29.1301084 C118.926046,34.2342943 114.850863,37.2125525 109.65807,37.2125525 C103.649462,37.2125525 98.908386,32.5629428 98.908386,26.5789951 C98.908386,20.6244381 103.649462,15.9434783 109.65807,15.9434783 C114.640581,15.9434783 118.867635,18.9217365 119.833373,23.7516092 L114.942374,24.9056842 C114.307635,21.9666136 112.25544,20.5303878 109.65807,20.5303878 C106.457114,20.5303878 103.890897,23.1128512 103.890897,26.5770357 C103.890897,30.0412203 106.457114,32.6511149 109.65807,32.6511149 C112.224287,32.6511149 114.276482,31.1933359 114.97158,28.14454 L119.862579,29.1301084 Z" id="Shape"></path>
                        <path d="M138.369325,29.1301084 C138.369325,33.9619404 134.564782,37.1812024 130.065141,37.1812024 C125.475935,37.1812024 121.671392,33.959981 121.671392,29.1301084 C121.671392,24.3296264 125.475935,21.108405 130.065141,21.108405 C134.564782,21.108405 138.369325,24.3296264 138.369325,29.1301084 L138.369325,29.1301084 Z M133.719761,29.1301084 C133.719761,26.7592581 131.938207,25.1799975 130.067088,25.1799975 C128.104458,25.1799975 126.322904,26.7592581 126.322904,29.1301084 C126.322904,31.5303494 128.104458,33.0802192 130.067088,33.0802192 C131.938207,33.0802192 133.719761,31.5303494 133.719761,29.1301084 L133.719761,29.1301084 Z" id="Shape"></path>
                        <path d="M156.241332,27.3980161 L156.241332,36.7579763 L151.441845,36.7579763 L151.441845,28.4325689 C151.441845,26.6397359 150.384594,25.42492 148.844475,25.42492 C146.942203,25.42492 145.703877,26.7318268 145.703877,29.6787349 L145.703877,36.7579763 L140.873237,36.7579763 L140.873237,21.5041999 L145.703877,21.5041999 L145.703877,22.9619789 C146.850692,21.747163 148.45117,21.0476642 150.353442,21.0476642 C153.887344,21.0476642 156.241332,23.5693868 156.241332,27.3980161 L156.241332,27.3980161 Z" id="Shape"></path>
                        <polygon id="Shape" points="168.499983 36.7579763 163.577831 36.7579763 157.298582 21.4748092 162.40181 21.4748092 166.054483 30.8935507 169.67795 21.4748092 174.781178 21.4748092"></polygon>
                        <path d="M182.205295,17.0074218 C182.205295,18.5572917 181.037062,19.7113668 179.397643,19.7113668 C177.758224,19.7113668 176.619197,18.5572917 176.619197,17.0074218 C176.65917,15.4839963 177.897877,14.2699286 179.412246,14.2699286 C180.926615,14.2699286 182.165322,15.4839963 182.205295,17.0074218 L182.205295,17.0074218 Z M176.98719,36.7579763 L176.98719,21.5041999 L181.817831,21.5041999 L181.817831,36.7579763 L176.98719,36.7579763 Z" id="Shape"></path>
                        <polygon id="Shape" points="195.217455 36.7579763 190.295303 36.7579763 184.016055 21.4748092 189.119283 21.4748092 192.771956 30.8935507 196.395423 21.4748092 201.498651 21.4748092"></polygon>
                        <path d="M208.918873,17.0074218 C208.918873,18.5572917 207.75064,19.7113668 206.111221,19.7113668 C204.471802,19.7113668 203.332775,18.5572917 203.332775,17.0074218 C203.372749,15.4839963 204.611455,14.2699286 206.125824,14.2699286 C207.640193,14.2699286 208.8789,15.4839963 208.918873,17.0074218 L208.918873,17.0074218 Z M203.700769,36.7579763 L203.700769,21.5041999 L208.529462,21.5041999 L208.529462,36.7579763 L203.700769,36.7579763 Z" id="Shape"></path>
                        <path d="M227.974688,29.1301084 C227.974688,33.9619404 224.170145,37.1812024 219.670504,37.1812024 C215.081298,37.1812024 211.276755,33.959981 211.276755,29.1301084 C211.276755,24.3296264 215.081298,21.108405 219.670504,21.108405 C224.170145,21.108405 227.974688,24.3296264 227.974688,29.1301084 L227.974688,29.1301084 Z M223.325124,29.1301084 C223.325124,26.7592581 221.54357,25.1799975 219.672451,25.1799975 C217.709821,25.1799975 215.928266,26.7592581 215.928266,29.1301084 C215.928266,31.5303494 217.709821,33.0802192 219.672451,33.0802192 C221.54357,33.0802192 223.327071,31.5303494 223.327071,29.1301084 L223.325124,29.1301084 Z" id="Shape"></path>
                        <g id="Logomark-link" transform="translate(0.009735, 0.007838)" stroke-width="0.5" stroke="#EC604B">
                            <g id="Logomark">
                                <path d="M52.8625107,24.9370343 C52.8090512,24.9478157 52.7538351,24.9302231 52.7162828,24.8904442 C52.6787306,24.8506652 52.6641013,24.7942709 52.6775406,24.7410963 L56.3165841,10.9431395 C56.3385932,10.7742974 56.4292636,10.622226 56.5669489,10.5232302 C56.7046342,10.4242344 56.8769779,10.3871986 57.0428352,10.4209646 L61.5492912,10.6169027 C61.8663594,10.6797847 62.0797788,10.9804634 62.0360547,11.3026858 L58.6501281,23.2186577 C58.6171331,23.476852 58.425996,23.6860786 58.1730999,23.7408326 L52.8625107,24.9370343 Z" id="Shape"></path>
                                <path d="M51.100427,29.50435 C51.1224361,29.3355079 51.2131065,29.1834365 51.3507918,29.0844407 C51.4884771,28.9854449 51.6608207,28.9484091 51.8266781,28.9821751 L55.8307942,30.7397394 C56.1478624,30.8026214 56.3612818,31.1033001 56.3175576,31.4255225 L54.8572673,37.2125525 C54.8242723,37.4707468 54.6331352,37.6799734 54.3802391,37.7347274 L52.3290179,38.2598413 L49.4366695,37.372242 L51.100427,29.50435 Z" id="Shape"></path>
                                <path d="M32.2402904,39.2042627 L26.3192997,36.7168293 C26.0435618,36.5882493 25.8642886,36.3132692 25.8568745,36.0075336 L25.8081981,34.0089656 C25.7637458,33.8481314 25.786257,33.6760175 25.8705506,33.5322362 C25.9548443,33.3884548 26.0936592,33.2853916 26.255047,33.2467666 L77.2620154,21.0339486 C77.3742402,21.0071794 77.491705,21.0129539 77.6008027,21.0506033 L85.0901452,23.2529469 C85.3306565,23.3356339 85.4950849,23.559642 85.5029206,23.815289 L85.5029206,25.466067 C85.5121264,25.7545486 85.3205085,26.0105695 85.0424424,26.0813125 L32.2402904,39.2091611" id="Shape"></path>
                                <path d="M75.7102135,24.492255 C75.8449633,24.4626482 75.9621923,24.37969 76.0354565,24.2620937 C76.1087208,24.1444974 76.1318491,24.0021685 76.0996243,23.8672126 L74.4261315,16.2462026 C74.3524162,15.9210722 74.0343824,15.71452 73.7096157,15.7808497 L69.3861827,16.7987478 C69.2244896,16.8317392 69.0829534,16.929193 68.9938209,17.0689059 C68.9046885,17.2086187 68.8755516,17.3786906 68.9130487,17.5403733 L70.4979505,25.1486474 C70.5274821,25.2825518 70.6087477,25.3991272 70.7238137,25.4726475 C70.8388797,25.5461678 70.9782875,25.5705896 71.1112724,25.5405235 L75.7102135,24.492255 Z" id="Shape"></path>
                                <path d="M76.6506405,30.5535982 L72.3778309,31.6214605 C72.0578109,31.70567 71.862675,32.0310728 71.9377968,32.3552485 L74.1827498,42.7144927 C74.2268227,42.9054753 74.3588441,43.0638119 74.5380871,43.1406579 L77.5501793,44.4348286 C77.6731742,44.4875986 77.8099845,44.4982685 77.9395901,44.465199 L79.602374,44.0390338 C79.9235028,43.9565518 80.1205561,43.6312689 80.0463023,43.3062255 L77.3983091,31.0071948 C77.3606169,30.8462617 77.2600463,30.7074155 77.1193362,30.6220493 C76.9786261,30.5366831 76.8096597,30.5120063 76.6506405,30.5535982 L76.6506405,30.5535982 Z" id="Shape"></path>
                                <path d="M34.2399146,36.2857656 L38.3968745,54.0338332 C38.4735411,54.3601827 38.2759497,54.6880982 37.9529462,54.7705602 L36.2979505,55.1957458 C36.1683449,55.2288152 36.0315346,55.2181453 35.9085397,55.1653754 L32.897421,53.8712046 C32.7177027,53.7939656 32.5855989,53.6348017 32.5420837,53.44308 L28.5019471,35.0856451 C28.453453,34.8710577 28.522736,34.6467593 28.6835707,34.4976522 C28.8444054,34.3485452 29.0722153,34.2974141 29.2807686,34.3636134 L33.8349274,35.8419659 C34.0377017,35.9085341 34.1912407,36.0767877 34.2399146,36.2857656 L34.2399146,36.2857656 Z" id="Shape"></path>
                                <path d="M31.7457387,29.7649476 L23.9341588,31.626359 C23.7386971,31.6735871 23.5331707,31.6539384 23.3500427,31.5705167 L16.883877,28.6529992 C16.6396625,28.5424425 16.4955705,28.2846132 16.5285397,28.0171803 L17.0717677,23.5635087 C17.0943865,23.3696692 17.2071962,23.1981819 17.3756809,23.1015164 C17.5441655,23.0048509 17.7482721,22.9945122 17.9255508,23.0736636 L31.7788386,29.3662137 C31.8631662,29.4008002 31.915401,29.4864942 31.9078203,29.5778151 C31.9002395,29.6691359 31.8345999,29.7449206 31.7457387,29.7649476 L31.7457387,29.7649476 Z" id="Shape"></path>
                                <path d="M13.7559351,41.4986971 L11.6891375,41.9483749 C11.5465546,41.9792208 11.3977091,41.9576736 11.2695474,41.8876341 L9.26797609,40.7972389 C9.0463953,40.6750394 8.9225347,40.428087 8.95644748,40.1761154 L15.0302818,18.3417599 C15.0522909,18.1729178 15.1429613,18.0208464 15.2806466,17.9218506 C15.4183319,17.8228548 15.5906756,17.785819 15.7565329,17.819585 L19.760649,19.5771492 C20.0777172,19.6400313 20.2911366,19.94071 20.2474125,20.2629324 L14.2329633,40.9775019 C14.1995855,41.2353197 14.0085283,41.4440665 13.7559351,41.4986971 L13.7559351,41.4986971 Z" id="Shape"></path>
                                <path d="M12.159351,20.0914866 L10.6737489,25.4347169 C10.65235,25.7035015 10.4592648,25.9268162 10.1976943,25.9853028 L6.42527754,27.062962 C6.2980169,27.0916904 6.16495825,27.0786436 6.04560205,27.0257338 L0.469239966,24.5549551 C0.254174902,24.4596512 0.112572246,24.2485696 0.105140905,24.0122068 L0.0496498719,22.2487644 C0.0402123093,21.9501482 0.245648752,21.6880057 0.536413322,21.6276408 L11.4272588,19.4370535 C11.6161251,19.397633 11.8123941,19.450366 11.9566011,19.5792758 C12.1008081,19.7081855 12.1759835,19.8981025 12.159351,20.0914866 L12.159351,20.0914866 Z" id="Shape"></path>
                                <path d="M30.471392,30.0686516 C30.3417864,30.101721 30.2049761,30.0910511 30.0819812,30.0382812 L27.2830914,29.2633462 C27.103373,29.1861072 26.9712692,29.0269432 26.9277541,28.8352216 L24.7947566,19.3243892 C24.7462625,19.1098018 24.8155455,18.8855033 24.9763803,18.7363963 C25.137215,18.5872892 25.3650248,18.5361582 25.5735781,18.6023575 L30.1248164,20.0836491 C30.3283427,20.1496425 30.4827143,20.3179991 30.5317506,20.5274487 L32.6910333,29.1761538 C32.7141762,29.2677881 32.6997895,29.3649363 32.6511017,29.4457982 C32.602414,29.52666 32.5235025,29.5844636 32.4320751,29.6062378 L30.471392,30.0686516 Z" id="Shape"></path>
                                <path d="M56.5950128,0.0754361453 C56.4984483,0.0458237345 56.3960931,0.0407745603 56.2971136,0.0607407923 L8.504731,9.66170474 C8.22091334,9.72078065 8.01750689,9.97255451 8.01796755,10.2642142 L8.01796755,14.9745647 C8.01760117,15.224092 8.16726954,15.4490479 8.39666951,15.5437647 L29.0159693,24.0670694 C29.13443,24.1160948 29.2652143,24.126377 29.3898036,24.0964601 L79.7581383,12.2422087 C80.0404311,12.1748376 80.2365963,11.9168158 80.2273783,11.6250039 L80.1115286,7.72191815 C80.1029776,7.45899552 79.9292619,7.23063295 79.6792827,7.15369783 L56.5950128,0.0754361453 Z M38.9887788,8.99061695 L23.5340393,12.2510259 C23.1046647,12.3415018 22.6580846,12.298099 22.2538514,12.1266053 L21.8819641,11.9688752 C21.7392998,11.905943 21.6529969,11.7578572 21.6680578,11.6018368 C21.6831187,11.4458164 21.7961308,11.3172152 21.948164,11.283092 L37.3902477,8.01876428 C37.8192126,7.92818392 38.2654188,7.97124169 38.669462,8.14220524 L39.0588728,8.30483381 C39.204832,8.36669164 39.2935183,8.51723306 39.277405,8.67578319 C39.2612916,8.83433331 39.1441592,8.96369182 38.9887788,8.99453571 L38.9887788,8.99061695 Z M68.364953,7.67587271 L50.1171648,11.7406073 C49.6727964,11.8396526 49.2086839,11.7947307 48.7912212,11.6122679 L48.4378309,11.4623753 C48.2951549,11.3996089 48.2087099,11.2516888 48.2235461,11.0957025 C48.2383823,10.9397162 48.3511403,10.8109834 48.5030572,10.7765922 L66.6525192,6.72851228 C67.0198853,6.64660647 67.4021506,6.66281797 67.7613664,6.77553741 L68.3941588,6.97147545 C68.5544127,7.01730872 68.6625237,7.16775469 68.6555784,7.33526392 C68.6486331,7.50277316 68.528444,7.64363309 68.364953,7.67587271 L68.364953,7.67587271 Z M46.3398804,7.44564551 L42.3484202,8.30777288 C41.9245931,8.39798476 41.4835945,8.35770224 41.0828352,8.19216944 L40.6700598,8.02170335 C40.5232179,7.96162397 40.4326633,7.81200305 40.4469943,7.65313847 C40.4613253,7.49427389 40.5771733,7.36350886 40.7323655,7.33102176 L44.7364816,6.46595531 C45.1635964,6.37546714 45.6079404,6.41748419 46.0108284,6.58645721 L46.4070538,6.75300454 C46.5556242,6.81294297 46.6470681,6.96435289 46.6315203,7.12466929 C46.6159726,7.2849857 46.4971635,7.41574596 46.3398804,7.44564551 L46.3398804,7.44564551 Z M45.5610589,12.794754 L40.7060803,13.8400834 C40.2764338,13.935605 39.8280355,13.8966345 39.4210248,13.7283988 L39.0209052,13.5628311 C38.8781369,13.5010717 38.7908221,13.3541351 38.804313,13.1983417 C38.8178039,13.0425483 38.9290586,12.9130252 39.0802904,12.877048 L43.9566866,11.8277998 C44.4071423,11.7275732 44.877662,11.7753007 45.2991802,11.9639767 L45.6311529,12.1128896 C45.769087,12.1787513 45.8507786,12.3249661 45.8350238,12.4777859 C45.819269,12.6306057 45.7094907,12.7568304 45.5610589,12.7927946 L45.5610589,12.794754 Z" id="Shape"></path>
                            </g>
                        </g>
                    </g>
                </g>
            </g>
        </g>
    </g>
</svg>