<svg xmlns="http://www.w3.org/2000/svg" xmlns:xlink="http://www.w3.org/1999/xlink" viewBox="0 0 878.79 564.09"><defs><style>.cls-1{fill:#ff5f45;stroke:#ff5f45;stroke-linejoin:round}</style><symbol id="Logomark" data-name="Logomark" viewBox="0 0 878.79 564.09"><path class="cls-1" d="M543 254.54a1.63 1.63 0 0 1-1.9-2l37.38-140.84a6.27 6.27 0 0 1 7.46-5.33l46.29 2a6.27 6.27 0 0 1 5 7L602.45 237a6.27 6.27 0 0 1-4.9 5.33zm-18.1 46.62a6.27 6.27 0 0 1 7.46-5.33l41.13 17.94a6.27 6.27 0 0 1 5 7l-15 59.07a6.27 6.27 0 0 1-4.9 5.33l-21.07 5.36-29.71-9.06z"/><path class="cls-1" d="M331.17 400.17l-60.82-25.39a8.2 8.2 0 0 1-4.75-7.24l-.5-20.4a6.27 6.27 0 0 1 4.59-7.78L793.63 214.7a6.27 6.27 0 0 1 3.48.17l76.93 22.48a6.27 6.27 0 0 1 4.24 5.74v16.85a6.27 6.27 0 0 1-4.73 6.28l-542.38 134"/><path class="cls-1" d="M777.69 250a5.27 5.27 0 0 0 4-6.38l-17.19-77.79a6.27 6.27 0 0 0-7.36-4.75l-44.41 10.39a6.27 6.27 0 0 0-4.86 7.57l16.28 77.66a5.27 5.27 0 0 0 6.3 4zm9.66 61.87l-43.89 10.9a6.27 6.27 0 0 0-4.52 7.49L762 436a6.27 6.27 0 0 0 3.65 4.35l30.94 13.21a6.27 6.27 0 0 0 4 .31l17.08-4.35a6.27 6.27 0 0 0 4.56-7.48l-27.2-125.54a6.27 6.27 0 0 0-7.68-4.63zm-435.64 58.51l42.7 181.16a6.27 6.27 0 0 1-4.56 7.52l-17 4.34a6.27 6.27 0 0 1-4-.31l-30.93-13.21a6.27 6.27 0 0 1-3.65-4.37l-41.5-187.38a6.27 6.27 0 0 1 8-7.37l46.78 15.09a6.27 6.27 0 0 1 4.16 4.53zm-25.62-66.56l-80.24 19a9.29 9.29 0 0 1-6-.57l-66.42-29.78a6.27 6.27 0 0 1-3.65-6.49l5.58-45.46a6.27 6.27 0 0 1 8.77-5l142.3 64.23a2.14 2.14 0 0 1-.34 4.07z"/><path class="cls-1" d="M141.3 423.59l-21.23 4.59a6.27 6.27 0 0 1-4.31-.62L95.2 416.43a6.27 6.27 0 0 1-3.2-6.34l62.39-222.87a6.27 6.27 0 0 1 7.46-5.33l41.13 17.94a6.27 6.27 0 0 1 5 7L146.2 418.27a6.27 6.27 0 0 1-4.9 5.32zm-16.4-218.51l-15.26 54.54a6.27 6.27 0 0 1-4.89 5.62l-38.75 11a6.27 6.27 0 0 1-3.9-.38L4.82 250.64a6.27 6.27 0 0 1-3.74-5.54l-.57-18a6.27 6.27 0 0 1 5-6.34l111.87-22.36a6.27 6.27 0 0 1 7.52 6.68zM313 306.92a6.27 6.27 0 0 1-4-.31l-28.75-7.91a6.27 6.27 0 0 1-3.65-4.37l-21.91-97.08a6.27 6.27 0 0 1 8-7.37L309.44 205a6.27 6.27 0 0 1 4.18 4.53l22.18 88.28a3.6 3.6 0 0 1-2.66 4.39z"/><path class="cls-1" d="M581.34.77a6.27 6.27 0 0 0-3.06-.15l-490.92 98a6.27 6.27 0 0 0-5 6.15v48.08a6.27 6.27 0 0 0 3.89 5.81l211.8 87a6.27 6.27 0 0 0 3.84.3l517.38-121a6.27 6.27 0 0 0 4.82-6.3l-1.19-39.84a6.28 6.28 0 0 0-4.44-5.8zm-180.85 91l-158.75 33.28a22.16 22.16 0 0 1-13.15-1.27l-3.82-1.61a3.7 3.7 0 0 1 .68-7l158.62-33.32a22.16 22.16 0 0 1 13.14 1.26l4 1.66a3.7 3.7 0 0 1-.72 7.04zm301.75-13.42L514.8 119.84a22.16 22.16 0 0 1-13.62-1.31l-3.63-1.53a3.7 3.7 0 0 1 .67-7l186.43-41.32a22.16 22.16 0 0 1 11.39.48l6.5 2a3.7 3.7 0 0 1-.3 7.19zM476 76l-41 8.8a22.16 22.16 0 0 1-13-1.18l-4.24-1.74a3.7 3.7 0 0 1 .64-7.05L459.53 66a22.16 22.16 0 0 1 13.09 1.23l4.07 1.7A3.7 3.7 0 0 1 476 76zm-8 54.6l-49.87 10.67a22.16 22.16 0 0 1-13.2-1.14l-4.11-1.69a3.7 3.7 0 0 1 .61-7l50.09-10.71a22.16 22.16 0 0 1 13.79 1.39l3.41 1.52a3.7 3.7 0 0 1-.72 6.94z"/></symbol></defs><title>Asset 6</title><g id="Layer_2" data-name="Layer 2"><use width="878.79" height="564.09" xlink:href="#Logomark" id="Layer_1-2" data-name="Layer 1"/></g></svg>