<?xml version="1.0" encoding="UTF-8" standalone="no"?>
<svg width="252px" height="63px" viewBox="0 0 252 63" version="1.1" xmlns="http://www.w3.org/2000/svg" xmlns:xlink="http://www.w3.org/1999/xlink">
    <!-- Generator: Sketch 40.3 (33839) - http://www.bohemiancoding.com/sketch -->
    <title>Wide-Red-Large 34 copy 4</title>
    <desc>Created with Sketch.</desc>
    <defs></defs>
    <g id="Welcome" stroke="none" stroke-width="1" fill="none" fill-rule="evenodd">
        <g id="-Style-6" transform="translate(-39.000000, -75.000000)" fill="#F8F4EA">
            <g id="Wide-Red-Large-34-copy-4" transform="translate(40.000000, 76.000000)">
                <g id="Layer_1">
                    <path d="M131.95398,32.1964356 C130.922972,37.8379042 126.436695,41.1296633 120.720068,41.1296633 C114.105329,41.1296633 108.885986,35.990621 108.885986,29.376784 C108.885986,22.7954315 114.105329,17.6217392 120.720068,17.6217392 C126.205201,17.6217392 130.858668,20.9134982 131.921827,26.2517786 L126.537438,27.5273352 C125.838668,24.2788888 123.579453,22.6914813 120.720068,22.6914813 C117.196208,22.6914813 114.371119,25.5457829 114.371119,29.3746184 C114.371119,33.203454 117.196208,36.0880744 120.720068,36.0880744 C123.545158,36.0880744 125.804372,34.476845 126.56959,31.1071232 L131.95398,32.1964356 Z" id="Shape"></path>
                    <path d="M152.327635,32.1964356 C152.327635,37.5368815 148.1393,41.0950132 143.185747,41.0950132 C138.133595,41.0950132 133.94526,37.5347159 133.94526,32.1964356 C133.94526,26.8906397 138.133595,23.3303424 143.185747,23.3303424 C148.1393,23.3303424 152.327635,26.8906397 152.327635,32.1964356 L152.327635,32.1964356 Z M147.209035,32.1964356 C147.209035,29.5760221 145.247763,27.8305235 143.187891,27.8305235 C141.027276,27.8305235 139.066003,29.5760221 139.066003,32.1964356 C139.066003,34.8493335 141.027276,36.5623476 143.187891,36.5623476 C145.247763,36.5623476 147.209035,34.8493335 147.209035,32.1964356 L147.209035,32.1964356 Z" id="Shape"></path>
                    <path d="M172.002519,30.2820178 L172.002519,40.6272369 L166.718873,40.6272369 L166.718873,31.4254709 C166.718873,29.4439186 165.55497,28.1012274 163.859488,28.1012274 C161.76532,28.1012274 160.402075,29.5457033 160.402075,32.8028122 L160.402075,40.6272369 L155.084133,40.6272369 L155.084133,23.7677998 L160.402075,23.7677998 L160.402075,25.3790293 C161.664577,24.0363381 163.426507,23.2632078 165.520675,23.2632078 C169.411067,23.2632078 172.002519,26.0503749 172.002519,30.2820178 L172.002519,30.2820178 Z" id="Shape"></path>
                    <polygon id="Shape" points="185.497788 40.6272369 180.079103 40.6272369 173.166422 23.7353154 178.784449 23.7353154 182.805594 34.1455034 186.794586 23.7353154 192.412613 23.7353154"></polygon>
                    <path d="M200.585653,18.7976768 C200.585653,20.5106909 199.299573,21.7862475 197.494774,21.7862475 C195.689974,21.7862475 194.436046,20.5106909 194.436046,18.7976768 C194.480052,17.1138907 195.843715,15.7720263 197.51085,15.7720263 C199.177984,15.7720263 200.541648,17.1138907 200.585653,18.7976768 L200.585653,18.7976768 Z M194.841161,40.6272369 L194.841161,23.7677998 L200.159103,23.7677998 L200.159103,40.6272369 L194.841161,40.6272369 Z" id="Shape"></path>
                    <polygon id="Shape" points="214.910444 40.6272369 209.491759 40.6272369 202.579078 23.7353154 208.197105 23.7353154 212.218249 34.1455034 216.207242 23.7353154 221.825269 23.7353154"></polygon>
                    <path d="M229.994022,18.7976768 C229.994022,20.5106909 228.707942,21.7862475 226.903143,21.7862475 C225.098343,21.7862475 223.844415,20.5106909 223.844415,18.7976768 C223.888421,17.1138907 225.252084,15.7720263 226.919219,15.7720263 C228.586353,15.7720263 229.950017,17.1138907 229.994022,18.7976768 L229.994022,18.7976768 Z M224.24953,40.6272369 L224.24953,23.7677998 L229.565329,23.7677998 L229.565329,40.6272369 L224.24953,40.6272369 Z" id="Shape"></path>
                    <path d="M250.972135,32.1964356 C250.972135,37.5368815 246.7838,41.0950132 241.830248,41.0950132 C236.778096,41.0950132 232.589761,37.5347159 232.589761,32.1964356 C232.589761,26.8906397 236.778096,23.3303424 241.830248,23.3303424 C246.7838,23.3303424 250.972135,26.8906397 250.972135,32.1964356 L250.972135,32.1964356 Z M245.853535,32.1964356 C245.853535,29.5760221 243.892263,27.8305235 241.832391,27.8305235 C239.671776,27.8305235 237.710504,29.5760221 237.710504,32.1964356 C237.710504,34.8493335 239.671776,36.5623476 241.832391,36.5623476 C243.892263,36.5623476 245.855679,34.8493335 245.855679,32.1964356 L245.853535,32.1964356 Z" id="Shape"></path>
                    <g id="Logomark-link" transform="translate(0.010717, 0.008663)" stroke-width="0.5" stroke="#F8F4EA">
                        <g id="Logomark">
                            <path d="M58.1951324,27.5619853 C58.1362801,27.5739016 58.0754939,27.5544571 58.0341535,27.5104909 C57.992813,27.4665247 57.9767081,27.4041942 57.991503,27.3454222 L61.997643,12.0950489 C62.0218724,11.908434 62.1216893,11.740355 62.2732639,11.6309386 C62.4248385,11.5215222 62.6145677,11.4805879 62.7971563,11.5179083 L67.7582109,11.7344714 C68.1072641,11.8039726 68.3422126,12.1363017 68.2940777,12.4924422 L64.5665884,25.6627269 C64.5302649,25.9480996 64.3198465,26.17935 64.0414389,26.2398676 L58.1951324,27.5619853 Z" id="Shape"></path>
                            <path d="M56.2552946,32.6100711 C56.279524,32.4234561 56.3793409,32.2553772 56.5309155,32.1459608 C56.6824901,32.0365444 56.8722193,31.9956101 57.0548079,32.0329304 L61.462848,33.9755014 C61.8119012,34.0450026 62.0468497,34.3773317 61.9987148,34.7334722 L60.3911144,41.1296633 C60.354791,41.4150359 60.1443725,41.6462864 59.865965,41.7068039 L57.6078224,42.287193 L54.423702,41.3061622 L56.2552946,32.6100711 Z" id="Shape"></path>
                            <path d="M35.4926003,43.3310272 L28.9743168,40.5817587 C28.6707632,40.439644 28.4734054,40.1357186 28.4652434,39.7978003 L28.4116567,37.5888567 C28.3627202,37.4110926 28.3875022,37.2208614 28.4802992,37.0619452 C28.5730961,36.903029 28.7259143,36.789117 28.9035824,36.7464262 L85.0559906,23.2480484 C85.1795363,23.2184614 85.3088507,23.2248438 85.4289539,23.2664563 L93.6738002,25.7006255 C93.9385736,25.7920165 94.119589,26.0396043 94.1282152,26.3221616 L94.1282152,28.1467057 C94.1383497,28.4655538 93.9274019,28.7485242 93.6212852,28.8267138 L35.4926003,43.3364412" id="Shape"></path>
                            <path d="M83.3476473,27.0703871 C83.4959903,27.0376638 83.625045,26.9459732 83.7057,26.8159983 C83.7863549,26.6860235 83.8118163,26.5287125 83.7763407,26.3795508 L81.9340307,17.9563291 C81.8528792,17.5969745 81.502763,17.36868 81.1452348,17.4419918 L76.3856661,18.5670371 C76.2076618,18.6035013 76.0518478,18.7112134 75.9537239,18.8656328 C75.8556,19.0200523 75.8235239,19.2080265 75.8648036,19.3867284 L77.6095858,27.7958734 C77.6420965,27.9438731 77.73156,28.0727195 77.8582336,28.1539788 C77.9849071,28.235238 78.1383779,28.2622306 78.284778,28.2289996 L83.3476473,27.0703871 Z" id="Shape"></path>
                            <path d="M84.3829419,33.7697665 L79.6791033,34.9500353 C79.3268006,35.0431089 79.11198,35.4027646 79.1946798,35.7610641 L81.6660974,47.210755 C81.7146162,47.4218411 81.8599555,47.5968448 82.0572801,47.6817798 L85.3732237,49.112179 C85.508626,49.1705037 85.6592373,49.1822967 85.8019172,49.1457463 L87.6324381,48.6747216 C87.9859614,48.5835573 88.2028929,48.224034 88.1211486,47.8647756 L85.2060333,34.27111 C85.1645388,34.0932366 85.0538229,33.939775 84.8989183,33.8454229 C84.7440138,33.7510708 84.5580026,33.7237964 84.3829419,33.7697665 L84.3829419,33.7697665 Z" id="Shape"></path>
                            <path d="M37.6939411,40.1053198 L42.2702434,59.7216051 C42.3546439,60.0823072 42.13712,60.4447401 41.7815329,60.5358824 L39.9595858,61.0058243 C39.816906,61.0423747 39.6662947,61.0305816 39.5308924,60.972257 L36.2160205,59.5418578 C36.0181727,59.4564883 35.8727426,59.2805703 35.8248377,59.0686674 L31.3771435,38.7788709 C31.3237574,38.5416953 31.4000295,38.2937865 31.5770888,38.128984 C31.7541481,37.9641815 32.0049387,37.9076682 32.2345303,37.9808359 L37.2480999,39.6148044 C37.4713294,39.6883798 37.6403571,39.8743443 37.6939411,40.1053198 L37.6939411,40.1053198 Z" id="Shape"></path>
                            <path d="M34.9481597,32.8981 L26.3485696,34.9554494 C26.1333903,35.0076488 25.9071309,34.985932 25.7055295,34.8937289 L18.5870751,31.6691044 C18.3182249,31.5469101 18.1595974,31.2619409 18.1958924,30.9663572 L18.7939197,26.043878 C18.8188202,25.8296343 18.9430099,25.6400958 19.1284908,25.533255 C19.3139717,25.4264141 19.538668,25.4149871 19.7338301,25.5024702 L34.9845986,32.4573941 C35.077433,32.4956213 35.1349371,32.5903357 35.1265916,32.6912693 C35.1182461,32.7922029 35.045985,32.8759649 34.9481597,32.8981 L34.9481597,32.8981 Z" id="Shape"></path>
                            <path d="M15.1435952,45.866981 L12.8683049,46.3639933 C12.7113386,46.3980862 12.547478,46.3742708 12.4063877,46.2968588 L10.2029035,45.0916851 C9.95897026,44.9566225 9.82261496,44.6836751 9.85994876,44.4051801 L16.5464944,20.2724715 C16.5707238,20.0858565 16.6705407,19.9177776 16.8221153,19.8083612 C16.9736899,19.6989448 17.1634192,19.6580105 17.3460077,19.6953308 L21.7540478,21.6379018 C22.103101,21.707403 22.3380495,22.0397321 22.2899146,22.3958726 L15.6687447,45.2909232 C15.6319998,45.5758797 15.4216693,45.8065998 15.1435952,45.866981 L15.1435952,45.866981 Z" id="Shape"></path>
                            <path d="M13.3859522,22.2063799 L11.7504868,28.1120556 C11.7269292,28.4091332 11.5143661,28.6559548 11.2264091,28.7205979 L7.0734415,29.9116949 C6.93334316,29.9434473 6.78686193,29.9290272 6.65546541,29.8705479 L0.516575576,27.1396873 C0.279815353,27.0343513 0.123928218,26.8010506 0.115747225,26.5398075 L0.0546584116,24.5907396 C0.0442688142,24.2606902 0.270429109,23.9709536 0.590525192,23.9042346 L12.5800085,21.4830592 C12.7879271,21.4394891 13.0039952,21.4977729 13.1627495,21.6402521 C13.3215037,21.7827314 13.4042626,21.9926397 13.3859522,22.2063799 L13.3859522,22.2063799 Z" id="Shape"></path>
                            <path d="M33.5452605,33.2337728 C33.4025806,33.2703232 33.2519693,33.2585301 33.116567,33.2002055 L30.035333,32.3436985 C29.8374852,32.258329 29.6920552,32.082411 29.6441503,31.8705081 L27.2959821,21.3585354 C27.242596,21.1213599 27.3188681,20.8734511 27.4959274,20.7086485 C27.6729867,20.543846 27.9237773,20.4873327 28.1533689,20.5605004 L33.1637233,22.1977174 C33.3877808,22.2706576 33.5577249,22.4567358 33.6117079,22.6882328 L35.988813,32.2473279 C36.0142904,32.3486079 35.9984525,32.4559823 35.9448532,32.5453559 C35.891254,32.6347295 35.8043821,32.6986177 35.7037319,32.7226839 L33.5452605,33.2337728 Z" id="Shape"></path>
                            <path d="M62.3041588,0.0833767922 C62.1978532,0.0506472855 62.0851727,0.0450666193 61.9762084,0.0671345599 L9.36266439,10.6787263 C9.050216,10.7440207 8.82629048,11.0222971 8.82679761,11.3446578 L8.82679761,16.5508347 C8.82639427,16.8266281 8.99116077,17.0752635 9.24370196,17.1799504 L31.9430188,26.6004451 C32.0734295,26.6546311 32.217407,26.6659956 32.3545645,26.6329296 L87.8039155,13.5308623 C88.1146851,13.4563995 88.3306389,13.1712175 88.320491,12.8486885 L88.1929547,8.53475163 C88.1835411,8.24415294 87.9923015,7.99175221 87.717105,7.90671865 L62.3041588,0.0833767922 Z M42.9218574,9.93699768 L25.9080871,13.5406076 C25.4353984,13.6406073 24.9437686,13.5926357 24.4987575,13.40309 L24.0893553,13.2287568 C23.9322994,13.1592002 23.8372904,12.9955264 23.8538707,12.8230828 C23.8704509,12.6506392 23.9948633,12.508501 24.1622331,12.4707859 L41.1620709,8.86284473 C41.6343086,8.76272959 42.1255268,8.81031976 42.5703288,8.99927948 L42.9990222,9.17902685 C43.1597054,9.24739602 43.2573381,9.41378391 43.2395993,9.58902352 C43.2218605,9.76426313 43.0929121,9.90723833 42.9218574,9.94132895 L42.9218574,9.93699768 Z M75.2614176,8.48385931 L55.1728437,12.9764607 C54.6836487,13.0859319 54.1727178,13.0362813 53.7131426,12.8346119 L53.3241033,12.6689411 C53.1670346,12.5995677 53.0718693,12.4360771 53.0882021,12.2636712 C53.1045349,12.0912653 53.2286677,11.9489816 53.3959095,11.9109703 L73.3762383,7.43677674 C73.7806632,7.34624926 74.2014904,7.36416723 74.5969428,7.48875188 L75.2935696,7.70531498 C75.4699894,7.75597279 75.5890063,7.92225518 75.5813604,8.10739697 C75.5737145,8.29253875 75.441401,8.44822605 75.2614176,8.48385931 L75.2614176,8.48385931 Z M51.0145175,8.22939767 L46.6204099,9.18227529 C46.1538284,9.28198316 45.6683431,9.23746037 45.2271563,9.05450307 L44.7727412,8.86609317 C44.6110864,8.79968965 44.5113969,8.63431917 44.5271736,8.458732 C44.5429503,8.28314483 44.6704847,8.13861505 44.8413322,8.10270826 L49.2493723,7.14658219 C49.7195733,7.04656894 50.2087414,7.09300884 50.6522716,7.27976849 L51.0884671,7.46384712 C51.2520249,7.53009486 51.3526934,7.69744266 51.3355772,7.87463448 C51.3184611,8.0518263 51.1876668,8.1963508 51.0145175,8.22939767 L51.0145175,8.22939767 Z M50.1571307,14.1415702 L44.8123954,15.2969343 C44.3394074,15.4025107 43.845776,15.3594381 43.3977071,15.1734934 L42.9572246,14.9904975 C42.8000542,14.9222372 42.7039314,14.7598336 42.7187832,14.5876408 C42.733635,14.4154481 42.8561127,14.272291 43.0226003,14.2325267 L48.3909137,13.0728313 C48.8868101,12.9620545 49.4047946,13.0148061 49.8688343,13.2233427 L50.2342955,13.3879306 C50.3861441,13.4607252 50.4760764,13.6223309 50.4587323,13.7912371 C50.4413883,13.9601432 50.3205358,14.0996547 50.1571307,14.1394046 L50.1571307,14.1415702 Z" id="Shape"></path>
                        </g>
                    </g>
                </g>
            </g>
        </g>
    </g>
</svg>