<?xml version="1.0" encoding="UTF-8" standalone="no"?>
<!-- Created with Inkscape (http://www.inkscape.org/) -->

<svg
   xmlns:dc="http://purl.org/dc/elements/1.1/"
   xmlns:cc="http://creativecommons.org/ns#"
   xmlns:rdf="http://www.w3.org/1999/02/22-rdf-syntax-ns#"
   xmlns:svg="http://www.w3.org/2000/svg"
   xmlns="http://www.w3.org/2000/svg"
   xmlns:sodipodi="http://sodipodi.sourceforge.net/DTD/sodipodi-0.dtd"
   xmlns:inkscape="http://www.inkscape.org/namespaces/inkscape"
   width="98.054359"
   height="126.92803"
   id="svg3825"
   version="1.1"
   inkscape:version="0.48.2 r9819"
   sodipodi:docname="cmc.svg">
  <defs
     id="defs3827" />
  <sodipodi:namedview
     id="base"
     pagecolor="#ffffff"
     bordercolor="#666666"
     borderopacity="1.0"
     inkscape:pageopacity="0.0"
     inkscape:pageshadow="2"
     inkscape:zoom="1.7656873"
     inkscape:cx="-15.262986"
     inkscape:cy="53.279714"
     inkscape:document-units="px"
     inkscape:current-layer="layer1"
     showgrid="true"
     showborder="false"
     inkscape:showpageshadow="false"
     inkscape:window-width="1366"
     inkscape:window-height="746"
     inkscape:window-x="-8"
     inkscape:window-y="-8"
     inkscape:window-maximized="1"
     inkscape:snap-global="false"
     fit-margin-top="0"
     fit-margin-left="0"
     fit-margin-right="0"
     fit-margin-bottom="0">
    <inkscape:grid
       type="xygrid"
       id="grid3833"
       empspacing="5"
       visible="true"
       enabled="true"
       snapvisiblegridlinesonly="true"
       spacingx="10px"
       spacingy="10px" />
  </sodipodi:namedview>
  <metadata
     id="metadata3830">
    <rdf:RDF>
      <cc:Work
         rdf:about="">
        <dc:format>image/svg+xml</dc:format>
        <dc:type
           rdf:resource="http://purl.org/dc/dcmitype/StillImage" />
        <dc:title></dc:title>
      </cc:Work>
    </rdf:RDF>
  </metadata>
  <g
     inkscape:label="Layer 1"
     inkscape:groupmode="layer"
     id="layer1"
     transform="translate(-686.48917,-1000.3266)">
    <g
       id="g4104"
       transform="translate(-12.446095,146.73291)" />
    <g
       id="g4167"
       transform="translate(217.48982,97.870417)">
      <g
         id="g4262"
         transform="translate(355.02014,60.769213)" />
    </g>
    <g
       id="g4331"
       transform="translate(122.89832,-2.2654068)">
      <path
         style="fill:#043d86"
         d="m 580.37852,1128.656 c -13.79953,-4.1598 -16.48497,-23.4755 -4.3099,-31.0001 4.30828,-2.6627 12.15015,-3.6182 16.88087,-2.0569 4.0892,1.3495 4.0892,1.3495 2.44091,3.9889 -0.95238,1.525 -1.59487,1.7032 -3.14642,0.8728 -1.07232,-0.5738 -3.96174,-0.8166 -6.42095,-0.5394 -6.18565,0.6972 -9.367,4.0325 -9.98542,10.4685 -0.90559,9.4246 4.68376,15.0147 13.91893,13.921 4.02281,-0.4765 4.97502,-0.2651 5.80677,1.2891 0.83815,1.566 0.50098,2.0311 -2.13984,2.9517 -3.58759,1.2507 -9.09615,1.2947 -13.04495,0.1044 z m 52.40883,-0.468 c -2.88172,-1.3003 -3.16234,-1.7458 -2.21482,-3.5163 1.17965,-2.2041 2.5413,-2.6022 3.51463,-1.0273 0.33992,0.55 2.37564,1 4.52383,1 2.84405,0 4.18846,-0.5281 4.94559,-1.9428 1.51401,-2.829 -0.28949,-5.886 -6.1099,-10.3566 -7.7347,-5.9409 -8.68611,-12.006 -2.47723,-15.792 5.20799,-3.1757 15.15459,-1.9037 14.42153,1.8443 -0.27712,1.4169 -1.2012,1.6858 -4.88851,1.4226 -3.15138,-0.2249 -4.93155,0.1392 -5.80045,1.1861 -1.7072,2.0571 -0.3393,4.2963 5.27712,8.6384 4.41329,3.412 7.60802,8.1929 7.60802,11.3854 0,0.8707 -1.26423,2.998 -2.80939,4.7273 -2.28306,2.5552 -3.735,3.2169 -7.75,3.532 -3.02444,0.2374 -6.22041,-0.1897 -8.24042,-1.1011 z m -30.20019,-16.0436 0,-16.5 8.04966,0 c 8.38539,0 13.16714,1.5166 14.32916,4.5448 2.37956,6.2011 -1.53652,13.5716 -8.1931,15.4204 -5.05486,1.4039 -5.18572,1.367 -5.18572,-1.4652 0,-1.8025 0.5381,-2.5 1.92857,-2.5 2.93109,0 5.07143,-2.7585 5.07143,-6.5362 0,-3.7371 -2.03342,-5.4638 -6.43426,-5.4638 l -2.56574,0 0,14.5 0,14.5 -3.5,0 -3.5,0 0,-16.5 z m -31.75914,-34.4946 c -1.79253,-1.0929 -4.15334,-3.4537 -5.24626,-5.2462 -1.85545,-3.0432 -1.98737,-5.0824 -1.99086,-30.7748 -0.004,-31.4955 0.23654,-32.5994 8.00888,-36.7095 4.24923,-2.247 4.75149,-2.2749 40.98738,-2.2749 52.74873,0 49,-3.38413 49,44.2344 l 0,32.7656 -43.75,0 c -41.89184,0 -43.88842,-0.088 -47.00914,-1.9909 z m 41.70738,-33.7224 -0.14049,-25.5442 10.13974,0.1057 c 5.57686,0.058 9.90828,-0.2688 9.6254,-0.7266 -0.93338,-1.5102 -12.93377,-3.5078 -21.07289,-3.5078 -8.19792,0 -20.14149,2.0008 -21.08829,3.5328 -0.29136,0.4714 3.99681,0.8571 9.52927,0.8571 l 10.05902,0 0,25.3333 c 0,13.9334 0.28777,25.6211 0.63948,25.9729 2.00622,2.0062 2.43626,-2.8411 2.30876,-26.0232 z m -18.58402,22.3382 c 3.76967,-1.5751 7.63578,-6.0061 7.63578,-8.7516 0,-2.8777 -12.75841,-35.4294 -13.68231,-34.909 -1.1799,0.6647 -13.30709,32.153 -13.31285,34.5669 -0.0113,4.7168 7.00103,10.4622 12.77728,10.4688 1.80516,0 4.76711,-0.6168 6.5821,-1.3751 z m -17.36422,-11.3154 c 0,-1.1027 10.27104,-27.7159 11.05029,-28.6323 0.58872,-0.6924 11.94971,26.5279 11.94971,28.6308 0,0.3826 -5.175,0.6957 -11.5,0.6957 -6.325,0 -11.5,-0.3124 -11.5,-0.6942 z m 63.96136,11.2142 c 3.53339,-1.8272 7.03864,-6.152 7.03864,-8.6843 0,-1.9665 -11.7755,-33.6946 -13.05528,-35.1764 -0.83694,-0.969 -13.95001,31.8147 -13.94683,34.8682 0.008,7.4828 12.23352,12.9898 19.96347,8.9925 z m -17.96136,-11.2591 c 0,-1.0321 11.07802,-29.2609 11.48304,-29.2609 0.39418,0 11.51696,28.3013 11.51696,29.3043 0,0.3826 -5.175,0.6957 -11.5,0.6957 -6.325,0 -11.5,-0.3326 -11.5,-0.7391 z"
         id="path4333"
         inkscape:connector-curvature="0" />
    </g>
  </g>
</svg>
