<?xml version="1.0" encoding="UTF-8" standalone="no"?>
<svg width="197px" height="66px" viewBox="0 0 197 66" version="1.1" xmlns="http://www.w3.org/2000/svg" xmlns:xlink="http://www.w3.org/1999/xlink" xmlns:sketch="http://www.bohemiancoding.com/sketch/ns">
    <!-- Generator: Sketch 3.0.4 (8053) - http://www.bohemiancoding.com/sketch -->
    <title>jac_mono_rgb 2</title>
    <desc>Created with Sketch.</desc>
    <defs></defs>
    <g id="Page-1" stroke="none" stroke-width="1" fill="none" fill-rule="evenodd" sketch:type="MSPage">
        <path d="M16.009731,3.44161753 L16.009731,45.6061512 C16.009731,48.6152203 14.3305126,62.9142464 0.322,65.0567838 C2.11767419,64.0124377 10.4524074,61.2350281 10.4524074,46.127072 L10.4524074,3.44161753 C10.4524074,2.11051456 9.87388473,1.30158462 8.8896449,0.839517836 L17.5148916,0.839517836 C16.6458554,1.30158462 16.009731,2.11051456 16.009731,3.44161753" id="Fill-1" fill="#763880" sketch:type="MSShapeGroup"></path>
        <path d="M73.2509154,20.4667125 C70.6475635,22.0369883 67.6910874,22.604241 65.3394304,22.604241 C59.1259469,22.604241 53.6612871,18.2728345 53.6612871,11.7099834 C53.6612871,6.37304938 57.7109456,0.688 65.6837891,0.688 C68.2908976,0.688 70.6475635,1.41303163 73.0918843,2.47866533 C73.0918843,2.47866533 73.4374952,7.25335548 73.3761367,7.12688192 C71.3675863,2.47866533 67.4744544,2.00908526 65.9367362,2.00908526 C59.9398857,2.00908526 56.8669537,6.21401826 56.8669537,11.3017618 C56.8669537,15.8210004 59.3425798,21.2217973 65.9066831,21.2217973 C67.3166755,21.2217973 71.1446922,21.1291335 73.5314112,16.1340538 C73.5940219,16.04139 73.2509154,20.4667125 73.2509154,20.4667125" id="Fill-2" fill="#763880" sketch:type="MSShapeGroup"></path>
        <path d="M52.7096048,30.1338009 C52.7096048,30.1338009 44.5689647,8.9501048 41.2781476,1.18262434 L35.8998905,1.18262434 L35.8685852,1.08244726 C35.856063,1.11625702 35.8410365,1.14881458 35.8272621,1.18262434 L35.7596426,1.18262434 L35.7934524,1.26652265 C30.7633107,13.1312457 24.3970571,30.1338009 24.3970571,30.1338009 L26.4995236,30.1338009 L36.7125771,3.66826818 L46.8980819,30.2540134 L52.7096048,30.1338009" id="Fill-3" fill="#763880" sketch:type="MSShapeGroup"></path>
        <path d="M19.7363184,35.5821819 C19.7363184,35.5821819 24.0840037,41.2346738 38.0461845,41.2346738 C57.0635512,41.2346738 58.769066,35.5821819 58.769066,35.5821819 L19.7363184,35.5821819" id="Fill-4" fill="#763880" sketch:type="MSShapeGroup"></path>
        <path d="M97.9302236,2.20718229 L97.9302236,9.16287352 C97.9302236,9.86491853 97.5387268,13.2014721 94.2698758,13.7004097 C94.6878648,13.457564 96.6335745,12.8085035 96.6335745,9.28356051 L96.6335745,2.20718229 C96.6335745,1.89663408 96.4981696,1.70677285 96.2685699,1.599332 L98.281982,1.599332 C98.0788747,1.70677285 97.9302236,1.89663408 97.9302236,2.20718229" id="Fill-5" fill="#763880" sketch:type="MSShapeGroup"></path>
        <path d="M107.546916,2.20718229 L107.505705,7.86475256 C107.505705,10.0798002 106.075123,10.9054758 104.385505,10.9054758 C102.900467,10.9054758 100.995967,10.1769385 100.995967,7.89271662 L100.995967,2.20718229 C100.995967,1.89663408 100.779614,1.70677285 100.576507,1.599332 L102.73857,1.599332 C102.522216,1.70677285 102.292617,1.89663408 102.292617,2.20718229 L102.292617,7.92068067 C102.292617,8.85085352 102.616411,10.2829076 104.52091,10.2829076 C106.331215,10.2829076 106.897855,9.13638126 106.897855,7.92068067 L106.844871,2.20718229 C106.844871,1.89663408 106.709466,1.70677285 106.493112,1.599332 L107.91192,1.599332 C107.695567,1.70677285 107.546916,1.89663408 107.546916,2.20718229" id="Fill-6" fill="#763880" sketch:type="MSShapeGroup"></path>
        <path d="M113.623947,2.18069002 C113.125009,2.18069002 112.206611,2.15419776 111.907837,2.20718229 L111.907837,10.1769385 C112.396472,10.2034308 113.030814,10.2034308 113.435557,10.2034308 C116.514547,10.2034308 117.406453,8.05461379 117.406453,6.04120168 C117.406453,4.36777364 116.420352,2.18069002 113.623947,2.18069002 L113.623947,2.18069002 Z M113.367855,10.7847888 L110.260901,10.7847888 C110.477254,10.6611583 110.612659,10.4727688 110.612659,10.1769385 L110.612659,2.20718229 C110.612659,1.89663408 110.477254,1.70677285 110.260901,1.599332 L113.623947,1.599332 C118.108498,1.599332 118.810543,4.86671129 118.810543,6.04120168 C118.810543,8.20326483 117.218064,10.7847888 113.367855,10.7847888 L113.367855,10.7847888 Z" id="Fill-7" fill="#763880" sketch:type="MSShapeGroup"></path>
        <path d="M120.822484,10.7847888 C121.038837,10.6611583 121.18896,10.4727688 121.18896,10.1769385 L121.18896,2.20718229 C121.18896,1.89663408 121.038837,1.70677285 120.822484,1.599332 L122.82265,1.599332 C122.619542,1.70677285 122.470891,1.89663408 122.470891,2.20718229 L122.470891,10.1769385 C122.470891,10.4727688 122.619542,10.6611583 122.82265,10.7847888 L120.822484,10.7847888" id="Fill-8" fill="#763880" sketch:type="MSShapeGroup"></path>
        <path d="M133.532884,9.98707731 C132.411378,10.6611583 131.142693,10.9054758 130.130099,10.9054758 C127.454381,10.9054758 125.1054,9.04071475 125.1054,6.21781678 C125.1054,3.92329231 126.84653,1.47717322 130.277279,1.47717322 C131.400256,1.47717322 132.411378,1.78919323 133.465181,2.24692069 C133.465181,2.24692069 133.613832,4.30007119 133.585868,4.24561487 C132.723398,2.24692069 131.047026,2.04381332 130.384719,2.04381332 C127.807611,2.04381332 126.482998,3.85411807 126.482998,6.04120168 C126.482998,7.98838313 127.548575,10.3108717 130.371473,10.3108717 C130.980795,10.3108717 132.627731,10.2696615 133.653571,8.12231624 C133.681535,8.08257785 133.532884,9.98707731 133.532884,9.98707731" id="Fill-9" fill="#763880" sketch:type="MSShapeGroup"></path>
        <path d="M135.949567,10.7847888 C136.167392,10.6611583 136.314571,10.4727688 136.314571,10.1769385 L136.314571,2.20718229 C136.314571,1.89663408 136.167392,1.70677285 135.949567,1.599332 L137.948261,1.599332 C137.748097,1.70677285 137.597974,1.89663408 137.597974,2.20718229 L137.597974,10.1769385 C137.597974,10.4727688 137.748097,10.6611583 137.948261,10.7847888 L135.949567,10.7847888" id="Fill-10" fill="#763880" sketch:type="MSShapeGroup"></path>
        <path d="M143.352683,3.69369269 C143.352683,3.69369269 142.432813,6.01618121 141.83968,7.47472755 L144.87746,7.47472755 C144.176887,5.77333545 143.352683,3.69369269 143.352683,3.69369269 L143.352683,3.69369269 Z M145.648679,10.7847888 C145.998966,10.6214199 146.094632,10.4315586 145.984248,10.1224822 C145.904771,9.95911325 145.525049,9.09517107 145.10706,8.05461379 L141.610081,8.05461379 C141.162656,9.0686788 140.812369,9.95911325 140.756441,10.1224822 C140.650472,10.4315586 140.691682,10.6479121 141.041969,10.7847888 L139.395033,10.7847888 C139.773284,10.5272251 139.895442,10.3785741 140.016129,10.1224822 C140.245729,9.60882664 143.716216,1.3829785 143.716216,1.3829785 C143.716216,1.3829785 147.199949,9.60882664 147.419246,10.1224822 C147.525215,10.4050664 147.619409,10.5669635 148.093327,10.7847888 L145.648679,10.7847888 L145.648679,10.7847888 Z" id="Fill-11" fill="#763880" sketch:type="MSShapeGroup"></path>
        <path d="M154.8047,10.7847888 L149.431186,10.7847888 C149.659314,10.6611583 149.809437,10.4727688 149.809437,10.1769385 L149.809437,2.20718229 C149.809437,1.89663408 149.659314,1.70677285 149.431186,1.599332 L151.454901,1.599332 C151.240019,1.70677285 151.091368,1.89663408 151.091368,2.20718229 L151.091368,10.1077643 C151.375424,10.1489745 151.9141,10.2034308 152.536668,10.2034308 C154.157112,10.1769385 154.616311,10.1769385 155.076982,9.35126296 L154.8047,10.7847888" id="Fill-12" fill="#763880" sketch:type="MSShapeGroup"></path>
        <path d="M98.3084743,18.8870064 C98.3084743,18.8870064 97.3900758,21.2109667 96.7954716,22.6680413 L99.8347231,22.6680413 C99.1312063,20.968121 98.3084743,18.8870064 98.3084743,18.8870064 L98.3084743,18.8870064 Z M100.604471,25.9781025 C100.956229,25.8176772 101.050424,25.6278159 100.941511,25.3157959 C100.860562,25.1553705 100.482312,24.2899566 100.064323,23.2493993 L96.565872,23.2493993 C96.1199189,24.2619925 95.7696323,25.1553705 95.715176,25.3157959 C95.6062633,25.6278159 95.6474735,25.8441694 95.9992319,25.9781025 L94.3508243,25.9781025 C94.729075,25.7205389 94.8512338,25.5733596 94.9719208,25.3157959 C95.2015204,24.8036121 98.6734788,16.577764 98.6734788,16.577764 C98.6734788,16.577764 102.157212,24.8036121 102.373565,25.3157959 C102.482478,25.5998519 102.576672,25.7632208 103.049118,25.9781025 L100.604471,25.9781025 L100.604471,25.9781025 Z" id="Fill-13" fill="#763880" sketch:type="MSShapeGroup"></path>
        <path d="M106.924347,17.3342653 C106.304723,17.3342653 106.019195,17.3475115 106.019195,17.3475115 L106.019195,21.3463716 C106.141354,21.4008279 106.398918,21.4405663 106.682973,21.4405663 C107.411511,21.4405663 108.992216,21.1830027 108.992216,19.3329595 C108.992216,18.1040128 108.288699,17.3342653 106.924347,17.3342653 L106.924347,17.3342653 Z M108.70816,21.6966582 C108.288699,21.8850477 107.061224,22.1970677 106.019195,21.7790786 L106.019195,25.3702522 C106.019195,25.6675543 106.169318,25.8559438 106.398918,25.9781025 L104.386977,25.9781025 C104.588613,25.8559438 104.763756,25.6675543 104.763756,25.3702522 L104.763756,17.4019678 C104.763756,17.0914196 104.588613,16.9015584 104.386977,16.7941175 L106.965558,16.7941175 C109.667769,16.7941175 110.330075,18.2511921 110.330075,19.3064673 C110.330075,20.7782597 109.127621,21.506797 108.70816,21.6966582 L108.70816,21.6966582 Z" id="Fill-14" fill="#763880" sketch:type="MSShapeGroup"></path>
        <path d="M114.826401,17.3342653 C114.205305,17.3342653 113.921249,17.3475115 113.921249,17.3475115 L113.921249,21.3463716 C114.043408,21.4008279 114.2995,21.4405663 114.583555,21.4405663 C115.313565,21.4405663 116.892798,21.1830027 116.892798,19.3329595 C116.892798,18.1040128 116.190753,17.3342653 114.826401,17.3342653 L114.826401,17.3342653 Z M116.608742,21.6966582 C116.190753,21.8850477 114.961806,22.1970677 113.921249,21.7790786 L113.921249,25.3702522 C113.921249,25.6675543 114.0699,25.8559438 114.2995,25.9781025 L112.287559,25.9781025 C112.489195,25.8559438 112.66581,25.6675543 112.66581,25.3702522 L112.66581,17.4019678 C112.66581,17.0914196 112.489195,16.9015584 112.287559,16.7941175 L114.867611,16.7941175 C117.568351,16.7941175 118.229185,18.2511921 118.229185,19.3064673 C118.229185,20.7782597 117.026731,21.506797 116.608742,21.6966582 L116.608742,21.6966582 Z" id="Fill-15" fill="#763880" sketch:type="MSShapeGroup"></path>
        <path d="M124.552006,17.2400706 C122.553312,17.2400706 121.052083,18.7118631 121.052083,21.1830027 C121.052083,24.1413055 122.916844,25.4776931 124.578498,25.4776931 C126.578664,25.4776931 128.007775,23.9381982 128.007775,21.506797 C128.035739,18.9017243 126.578664,17.2400706 124.552006,17.2400706 L124.552006,17.2400706 Z M124.456339,26.0987895 C121.836549,26.0472768 119.525835,24.0338647 119.593537,21.2507051 C119.66124,19.0621497 121.526001,16.577764 124.725677,16.6719587 C126.956915,16.7131689 129.561987,18.3880688 129.494285,21.4670586 C129.426583,24.5460485 126.711125,26.1679638 124.456339,26.0987895 L124.456339,26.0987895 Z" id="Fill-16" fill="#763880" sketch:type="MSShapeGroup"></path>
        <path d="M131.750543,25.9781025 C131.965425,25.8559438 132.114076,25.6675543 132.114076,25.3702522 L132.114076,17.4019678 C132.114076,17.0914196 131.965425,16.9015584 131.750543,16.7941175 L133.749237,16.7941175 C133.54613,16.9015584 133.397479,17.0914196 133.397479,17.4019678 L133.397479,25.3702522 C133.397479,25.6675543 133.54613,25.8559438 133.749237,25.9781025 L131.750543,25.9781025" id="Fill-17" fill="#763880" sketch:type="MSShapeGroup"></path>
        <path d="M143.758898,17.4019678 L143.758898,26.2356662 C143.758898,26.2356662 137.328636,18.4278071 137.328636,18.2924022 L137.328636,25.3702522 C137.328636,25.6675543 137.462569,25.8559438 137.706887,25.9781025 L136.341064,25.9781025 C136.545643,25.8559438 136.694294,25.6675543 136.694294,25.3702522 L136.694294,17.9156234 C136.694294,17.5226548 136.694294,17.4961625 136.530925,17.279809 C136.382274,17.1193836 136.218905,16.9295224 135.908357,16.7941175 L137.77459,16.7941175 L143.106894,23.3730299 L143.106894,17.4019678 C143.106894,17.0914196 142.961186,16.9015584 142.756607,16.7941175 L144.12243,16.7941175 C143.906077,16.9015584 143.758898,17.0914196 143.758898,17.4019678" id="Fill-18" fill="#763880" sketch:type="MSShapeGroup"></path>
        <path d="M152.307068,17.443178 C152.307068,17.443178 151.091368,17.3475115 150.105267,17.3475115 L150.105267,25.3702522 C150.105267,25.6675543 150.240672,25.8559438 150.455553,25.9781025 L148.456859,25.9781025 C148.686459,25.8559438 148.807146,25.6675543 148.807146,25.3702522 L148.807146,17.3475115 C147.797496,17.3475115 146.592098,17.443178 146.592098,17.443178 C146.269776,17.443178 146.012212,17.7522544 145.891525,17.9700797 L145.891525,16.7941175 L152.997339,16.7941175 L153.010585,17.9700797 C152.873708,17.7522544 152.657355,17.4696702 152.307068,17.443178" id="Fill-19" fill="#763880" sketch:type="MSShapeGroup"></path>
        <path d="M161.950253,25.9781025 C162.166606,25.8559438 162.302011,25.6675543 162.302011,25.3702522 L162.302011,18.3601047 C162.302011,18.2261716 162.329975,18.0760487 162.329975,18.0760487 L162.232837,18.3880688 L158.897755,26.1679638 L155.628904,18.6044222 L155.508217,18.2511921 C155.508217,18.2511921 155.534709,18.4807917 155.534709,18.6044222 L155.534709,25.3702522 C155.534709,25.6675543 155.696606,25.8559438 155.91296,25.9781025 L154.55008,25.9781025 C154.76349,25.8559438 154.900367,25.6675543 154.900367,25.3702522 L154.900367,17.4019678 C154.900367,17.1444041 154.709034,16.9015584 154.482378,16.7941175 L156.304457,16.7941175 L159.274534,23.7233165 L162.207816,16.7941175 L163.947475,16.7941175 C163.734065,16.9015584 163.597188,17.0914196 163.597188,17.4019678 L163.597188,25.3702522 C163.597188,25.6675543 163.734065,25.8559438 163.947475,25.9781025 L161.950253,25.9781025" id="Fill-20" fill="#763880" sketch:type="MSShapeGroup"></path>
        <path d="M171.903985,25.9781025 L166.474543,25.9781025 C166.715917,25.8559438 166.879286,25.6955184 166.879286,25.3702522 L166.879286,17.4019678 C166.879286,17.0914196 166.715917,16.9015584 166.502507,16.7941175 L171.580191,16.7941175 L171.606683,17.8479209 C171.337345,17.5373727 171.053289,17.3740037 170.473403,17.3740037 C170.215839,17.3740037 168.150914,17.3475115 168.150914,17.3475115 L168.150914,20.6031164 L170.349772,20.6031164 C170.541105,20.6031164 170.754515,20.3867629 170.82369,20.223394 L170.82369,21.5347611 C170.754515,21.3728639 170.541105,21.1565104 170.349772,21.1565104 L168.150914,21.1565104 L168.150914,25.3157959 C168.446745,25.3422882 169.082559,25.4114624 169.716902,25.3982163 C171.175448,25.3982163 171.687632,25.3982163 172.189513,24.5460485 L171.903985,25.9781025" id="Fill-21" fill="#763880" sketch:type="MSShapeGroup"></path>
        <path d="M181.427954,17.4019678 L181.427954,26.2356662 C181.427954,26.2356662 174.996221,18.4278071 174.996221,18.2924022 L174.996221,25.3702522 C174.996221,25.6675543 175.131626,25.8559438 175.375944,25.9781025 L174.01012,25.9781025 C174.213228,25.8559438 174.360407,25.6675543 174.360407,25.3702522 L174.360407,17.9156234 C174.360407,17.5226548 174.360407,17.4961625 174.201453,17.279809 C174.052802,17.1193836 173.889433,16.9295224 173.577413,16.7941175 L175.445118,16.7941175 L180.777422,23.3730299 L180.777422,17.4019678 C180.777422,17.0914196 180.630243,16.9015584 180.427135,16.7941175 L181.791487,16.7941175 C181.573662,16.9015584 181.427954,17.0914196 181.427954,17.4019678" id="Fill-22" fill="#763880" sketch:type="MSShapeGroup"></path>
        <path d="M189.437449,17.443178 C189.437449,17.443178 188.220277,17.3475115 187.234176,17.3475115 L187.234176,25.3702522 C187.234176,25.6675543 187.369581,25.8559438 187.584462,25.9781025 L185.585768,25.9781025 C185.816839,25.8559438 185.936055,25.6675543 185.936055,25.3702522 L185.936055,17.3475115 C184.924933,17.3475115 183.722479,17.443178 183.722479,17.443178 C183.398684,17.443178 183.139649,17.7522544 183.020434,17.9700797 L183.020434,16.7941175 L190.124776,16.7941175 L190.138022,17.9700797 C190.001145,17.7522544 189.787736,17.4696702 189.437449,17.443178" id="Fill-23" fill="#763880" sketch:type="MSShapeGroup"></path>
        <path d="M194.013252,26.0987895 C192.838761,26.0987895 192.001311,25.6278159 191.502374,25.3422882 L191.461164,23.3171017 C191.74522,24.2899566 192.473757,25.5321494 193.919057,25.5321494 C195.377603,25.5321494 195.755854,24.3841513 195.755854,23.7233165 C195.755854,22.4251955 194.771225,22.1691036 193.474576,21.506797 C192.16468,20.8592083 191.502374,20.1718812 191.502374,19.0621497 C191.502374,17.443178 193.015376,16.6719587 194.297308,16.6719587 C194.796245,16.6719587 195.593957,16.7661534 196.228299,17.1856143 L196.297474,18.967955 C196.135576,18.3203663 195.377603,17.2135784 194.108918,17.2135784 C192.96092,17.2135784 192.610634,18.0628026 192.610634,18.6441606 C192.610634,19.4948567 193.147838,19.8215946 194.445959,20.4529936 C195.729362,21.1153002 196.998047,21.5347611 196.998047,23.3450658 C196.998047,25.0332118 195.460024,26.0987895 194.013252,26.0987895" id="Fill-24" fill="#763880" sketch:type="MSShapeGroup"></path>
        <path d="M103.61723,40.3766483 C102.495724,41.0522011 101.227039,41.2950468 100.212974,41.2950468 C97.5387268,41.2950468 95.1882743,39.4317575 95.1882743,36.6088596 C95.1882743,34.3113915 96.9308765,31.868216 100.361625,31.868216 C101.481659,31.868216 102.495724,32.1787642 103.548056,32.6379635 C103.548056,32.6379635 103.698178,34.691114 103.670214,34.6366577 C102.806272,32.6379635 101.131372,32.4348561 100.469066,32.4348561 C97.8890134,32.4348561 96.565872,34.2451609 96.565872,36.4337163 C96.565872,38.3779541 97.6329216,40.7004427 100.45582,40.7004427 C101.06367,40.7004427 102.712077,40.6607043 103.737917,38.5118873 C103.764409,38.4721489 103.61723,40.3766483 103.61723,40.3766483" id="Fill-25" fill="#763880" sketch:type="MSShapeGroup"></path>
        <path d="M110.369814,32.4348561 C108.371119,32.4348561 106.871363,33.9066486 106.871363,36.37926 C106.871363,39.336091 108.734652,40.6739504 110.396306,40.6739504 C112.396472,40.6739504 113.827054,39.1344555 113.827054,36.7015825 C113.853546,34.095038 112.396472,32.4348561 110.369814,32.4348561 L110.369814,32.4348561 Z M110.275619,41.2950468 C107.654357,41.2405905 105.345114,39.2286502 105.411345,36.4454906 C105.480519,34.258407 107.343808,31.7740213 110.544957,31.868216 C112.773251,31.9064826 115.379795,33.5828543 115.313565,36.6633159 C115.245862,39.7423058 112.530405,41.3612775 110.275619,41.2950468 L110.275619,41.2950468 Z" id="Fill-26" fill="#763880" sketch:type="MSShapeGroup"></path>
        <path d="M124.388637,41.172888 C124.606462,41.0522011 124.738924,40.8623398 124.738924,40.5650378 L124.738924,33.556362 C124.738924,33.4209571 124.766888,33.2708343 124.766888,33.2708343 L124.672693,33.5828543 L121.336139,41.3612775 L118.067288,33.7992077 L117.946601,33.4474493 C117.946601,33.4474493 117.974565,33.677049 117.974565,33.7992077 L117.974565,40.5650378 C117.974565,40.8623398 118.134991,41.0522011 118.351344,41.172888 L116.988464,41.172888 C117.204818,41.0522011 117.338751,40.8623398 117.338751,40.5650378 L117.338751,32.5967533 C117.338751,32.3391896 117.14889,32.0963439 116.91929,31.988903 L118.744313,31.988903 L121.71439,38.9166302 L124.646201,31.988903 L126.387331,31.988903 C126.172449,32.0963439 126.035573,32.2847333 126.035573,32.5967533 L126.035573,40.5650378 C126.035573,40.8623398 126.172449,41.0522011 126.387331,41.172888 L124.388637,41.172888" id="Fill-27" fill="#763880" sketch:type="MSShapeGroup"></path>
        <path d="M136.329289,41.172888 C136.545643,41.0522011 136.679576,40.8623398 136.679576,40.5650378 L136.679576,33.556362 C136.679576,33.4209571 136.706068,33.2708343 136.706068,33.2708343 L136.613345,33.5828543 L133.276792,41.3612775 L130.006469,33.7992077 L129.885782,33.4474493 C129.885782,33.4474493 129.913746,33.677049 129.913746,33.7992077 L129.913746,40.5650378 C129.913746,40.8623398 130.075643,41.0522011 130.291997,41.172888 L128.927645,41.172888 C129.142527,41.0522011 129.277932,40.8623398 129.277932,40.5650378 L129.277932,32.5967533 C129.277932,32.3391896 129.089542,32.0963439 128.859942,31.988903 L130.683493,31.988903 L133.653571,38.9166302 L136.586853,31.988903 L138.327983,31.988903 C138.11163,32.0963439 137.976225,32.2847333 137.976225,32.5967533 L137.976225,40.5650378 C137.976225,40.8623398 138.11163,41.0522011 138.327983,41.172888 L136.329289,41.172888" id="Fill-28" fill="#763880" sketch:type="MSShapeGroup"></path>
        <path d="M140.908036,41.172888 C141.122917,41.0522011 141.271568,40.8623398 141.271568,40.5650378 L141.271568,32.5967533 C141.271568,32.2847333 141.122917,32.0963439 140.908036,31.988903 L142.905258,31.988903 C142.703622,32.0963439 142.554971,32.2847333 142.554971,32.5967533 L142.554971,40.5650378 C142.554971,40.8623398 142.703622,41.0522011 142.905258,41.172888 L140.908036,41.172888" id="Fill-29" fill="#763880" sketch:type="MSShapeGroup"></path>
        <path d="M147.807799,41.2950468 C146.63478,41.2950468 145.79733,40.8226014 145.296921,40.5385455 L145.255711,38.5118873 C145.539767,39.4862139 146.269776,40.7284067 147.715076,40.7284067 C149.17215,40.7284067 149.550401,39.5789368 149.550401,38.9166302 C149.550401,37.6214528 148.565772,37.3638891 147.267651,36.7015825 C145.957756,36.0554656 145.296921,35.3651949 145.296921,34.258407 C145.296921,32.6379635 146.809924,31.868216 148.093327,31.868216 C148.593736,31.868216 149.391448,31.9624107 150.022846,32.3818716 L150.092021,34.1642123 C149.928652,33.51368 149.17215,32.4068921 147.903465,32.4068921 C146.755467,32.4068921 146.403709,33.2575881 146.403709,33.8404179 C146.403709,34.691114 146.945328,35.0149083 148.240506,35.6492509 C149.522437,36.3115575 150.794066,36.7295466 150.794066,38.5383795 C150.794066,40.2294691 149.254571,41.2950468 147.807799,41.2950468" id="Fill-30" fill="#763880" sketch:type="MSShapeGroup"></path>
        <path d="M155.30511,41.2950468 C154.130619,41.2950468 153.293169,40.8226014 152.791288,40.5385455 L152.75155,38.5118873 C153.037077,39.4862139 153.765615,40.7284067 155.210915,40.7284067 C156.669461,40.7284067 157.047712,39.5789368 157.047712,38.9166302 C157.047712,37.6214528 156.061611,37.3638891 154.76349,36.7015825 C153.453595,36.0554656 152.791288,35.3651949 152.791288,34.258407 C152.791288,32.6379635 154.304291,31.868216 155.589166,31.868216 C156.089575,31.868216 156.884343,31.9624107 157.520157,32.3818716 L157.586388,34.1642123 C157.425963,33.51368 156.669461,32.4068921 155.400776,32.4068921 C154.251306,32.4068921 153.90102,33.2575881 153.90102,33.8404179 C153.90102,34.691114 154.439696,35.0149083 155.737817,35.6492509 C157.019748,36.3115575 158.291377,36.7295466 158.291377,38.5383795 C158.291377,40.2294691 156.748938,41.2950468 155.30511,41.2950468" id="Fill-31" fill="#763880" sketch:type="MSShapeGroup"></path>
        <path d="M160.504952,41.172888 C160.721306,41.0522011 160.869957,40.8623398 160.869957,40.5650378 L160.869957,32.5967533 C160.869957,32.2847333 160.721306,32.0963439 160.504952,31.988903 L162.505118,31.988903 C162.302011,32.0963439 162.154832,32.2847333 162.154832,32.5967533 L162.154832,40.5650378 C162.154832,40.8623398 162.302011,41.0522011 162.505118,41.172888 L160.504952,41.172888" id="Fill-32" fill="#763880" sketch:type="MSShapeGroup"></path>
        <path d="M169.446092,32.4348561 C167.445926,32.4348561 165.947641,33.9066486 165.947641,36.37926 C165.947641,39.336091 167.812402,40.6739504 169.472584,40.6739504 C171.47275,40.6739504 172.903332,39.1344555 172.903332,36.7015825 C172.931296,34.095038 171.47275,32.4348561 169.446092,32.4348561 L169.446092,32.4348561 Z M169.351897,41.2950468 C166.730635,41.2405905 164.421392,39.2286502 164.489095,36.4454906 C164.556797,34.258407 166.420086,31.7740213 169.621235,31.868216 C171.851001,31.9064826 174.457545,33.5828543 174.388371,36.6633159 C174.320668,39.7423058 171.606683,41.3612775 169.351897,41.2950468 L169.351897,41.2950468 Z" id="Fill-33" fill="#763880" sketch:type="MSShapeGroup"></path>
        <path d="M183.506125,32.5967533 L183.506125,41.4304517 C183.506125,41.4304517 177.077336,33.6225927 177.077336,33.4886595 L177.077336,40.5650378 C177.077336,40.8623398 177.211269,41.0522011 177.457058,41.172888 L176.091235,41.172888 C176.294342,41.0522011 176.442993,40.8623398 176.442993,40.5650378 L176.442993,33.1104089 C176.442993,32.7174403 176.442993,32.690948 176.279624,32.4745945 C176.132445,32.3126974 175.969076,32.1243079 175.658528,31.988903 L177.523289,31.988903 L182.858537,38.5663436 L182.858537,32.5967533 C182.858537,32.2847333 182.709886,32.0963439 182.50825,31.988903 L183.872602,31.988903 C183.654776,32.0963439 183.506125,32.2847333 183.506125,32.5967533" id="Fill-34" fill="#763880" sketch:type="MSShapeGroup"></path>
    </g>
</svg>
