<?xml version="1.0" encoding="UTF-8" standalone="no"?>
<!-- Created with Inkscape (http://www.inkscape.org/) -->

<svg
   xmlns:dc="http://purl.org/dc/elements/1.1/"
   xmlns:cc="http://creativecommons.org/ns#"
   xmlns:rdf="http://www.w3.org/1999/02/22-rdf-syntax-ns#"
   xmlns:svg="http://www.w3.org/2000/svg"
   xmlns="http://www.w3.org/2000/svg"
   xmlns:sodipodi="http://sodipodi.sourceforge.net/DTD/sodipodi-0.dtd"
   xmlns:inkscape="http://www.inkscape.org/namespaces/inkscape"
   id="svg3004"
   version="1.1"
   inkscape:version="0.48.4 r9939"
   width="722.02375"
   height="347.86625"
   xml:space="preserve"
   sodipodi:docname="sheg-logo.svg"><metadata
     id="metadata3010"><rdf:RDF><cc:Work
         rdf:about=""><dc:format>image/svg+xml</dc:format><dc:type
           rdf:resource="http://purl.org/dc/dcmitype/StillImage" /><dc:title></dc:title></cc:Work></rdf:RDF></metadata><defs
     id="defs3008"><clipPath
       clipPathUnits="userSpaceOnUse"
       id="clipPath3018"><path
         d="m 0,278.293 577.619,0 L 577.619,0 0,0 0,278.293 z"
         id="path3020" /></clipPath><clipPath
       clipPathUnits="userSpaceOnUse"
       id="clipPath3030"><path
         d="m 0,278.293 577.619,0 L 577.619,0 0,0 0,278.293 z"
         id="path3032" /></clipPath><clipPath
       clipPathUnits="userSpaceOnUse"
       id="clipPath3052"><path
         d="m 188.835,203.182 208.11,0 0,27.248 -208.11,0 0,-27.248 z"
         id="path3054" /></clipPath><clipPath
       clipPathUnits="userSpaceOnUse"
       id="clipPath3092"><path
         d="m 0,278.293 577.619,0 L 577.619,0 0,0 0,278.293 z"
         id="path3094" /></clipPath><clipPath
       clipPathUnits="userSpaceOnUse"
       id="clipPath3100"><path
         d="m 59.0913,273.564 124.0957,0 0,-185.1031 -124.0957,0 0,185.1031 z"
         id="path3102" /></clipPath></defs><sodipodi:namedview
     pagecolor="#ffffff"
     bordercolor="#666666"
     borderopacity="1"
     objecttolerance="10"
     gridtolerance="10"
     guidetolerance="10"
     inkscape:pageopacity="0"
     inkscape:pageshadow="2"
     inkscape:window-width="1863"
     inkscape:window-height="1055"
     id="namedview3006"
     showgrid="false"
     inkscape:zoom="2.3932731"
     inkscape:cx="361.01187"
     inkscape:cy="173.93312"
     inkscape:window-x="57"
     inkscape:window-y="1200"
     inkscape:window-maximized="1"
     inkscape:current-layer="g3012" /><g
     id="g3012"
     inkscape:groupmode="layer"
     inkscape:label="sheg-logo"
     transform="matrix(1.25,0,0,-1.25,0,347.86625)"><g
       id="g3014"><g
         id="g3016"
         clip-path="url(#clipPath3018)"><text
           id="text3022"
           transform="matrix(1,0,0,-1,0,85.666)"><tspan
             style="fill:#9b283e;fill-opacity:1;fill-rule:nonzero;stroke:none;font-family:News Gothic Std;font-variant:normal;font-weight:bold;font-stretch:normal;font-size:116.8809;writing-mode:lr;-inkscape-font-specification:NewsGothicStd-Bold"
             x="0"
             y="0"
             id="tspan3024">H</tspan></text>
</g></g><g
       id="g3026"><g
         id="g3028"
         clip-path="url(#clipPath3030)"><text
           id="text3034"
           transform="matrix(1,0,0,-1,175.2007,85.666)"><tspan
             style="fill:#9b283e;fill-opacity:1;fill-rule:nonzero;stroke:none;font-family:News Gothic Std;font-variant:normal;font-weight:bold;font-stretch:normal;font-size:116.8809;writing-mode:lr;-inkscape-font-specification:NewsGothicStd-Bold"
             x="0 77.9595603 151.0101228 240.8915349 320.253666"
             y="0"
             sodipodi:role="line"
             id="tspan3036">STORY</tspan></text>
<text
           id="text3038"
           transform="matrix(1,0,0,-1,2.2349,16.5498)"><tspan
             style="fill:#373535;fill-opacity:1;fill-rule:nonzero;stroke:none;font-family:News Gothic Std;font-variant:normal;font-weight:bold;font-stretch:normal;font-size:66.2011;writing-mode:lr;-inkscape-font-specification:NewsGothicStd-Bold"
             x="0 44.6857425 94.9323774 142.7295716 193.5058153 236.4703292 279.5010442 301.9432171 354.5068905"
             y="0"
             sodipodi:role="line"
             id="tspan3040">EDUCATION</tspan></text>
</g></g><path
       d="m 572.51,16.904 -155.745,0 0,52.16 155.745,0 0,-52.16 z"
       style="fill:#e7e8e9;fill-opacity:1;fill-rule:nonzero;stroke:none"
       id="path3042" /><text
       id="text3044"
       transform="matrix(1,0,0,-1,423.9067,27.9492)"><tspan
         style="fill:#6a6b6d;fill-opacity:1;fill-rule:nonzero;stroke:none;font-family:News Gothic Std;font-variant:normal;font-weight:bold;font-stretch:normal;font-size:38.2405;writing-mode:lr;-inkscape-font-specification:NewsGothicStd-Bold"
         x="0 29.4069445 57.4754715 87.8384285 115.4480695"
         y="0"
         sodipodi:role="line"
         id="tspan3046">GROUP</tspan></text>
<g
       id="g3048"><g
         id="g3050"
         clip-path="url(#clipPath3052)"><g
           id="g3056"
           transform="translate(189.3525,204.1138)"><path
             d="m 0,0 c -0.485,0.241 -0.52,0.38 -0.52,1.319 0,1.739 0.139,3.129 0.171,3.685 0.035,0.382 0.105,0.557 0.281,0.557 0.205,0 0.24,-0.105 0.24,-0.385 0,-0.312 0,-0.798 0.107,-1.285 0.519,-2.572 2.815,-3.543 5.143,-3.543 3.338,0 4.97,2.394 4.97,4.62 0,2.401 -1.008,3.789 -3.996,6.258 L 4.834,12.51 c -3.688,3.024 -4.522,5.18 -4.522,7.544 0,3.717 2.782,6.256 7.194,6.256 1.357,0 2.365,-0.139 3.236,-0.348 0.657,-0.14 0.936,-0.174 1.213,-0.174 0.28,0 0.35,-0.071 0.35,-0.243 0,-0.174 -0.142,-1.32 -0.142,-3.685 0,-0.556 -0.067,-0.798 -0.242,-0.798 -0.206,0 -0.243,0.174 -0.278,0.451 -0.035,0.418 -0.244,1.355 -0.454,1.737 -0.207,0.385 -1.145,1.844 -4.341,1.844 -2.4,0 -4.276,-1.495 -4.276,-4.032 0,-1.981 0.903,-3.233 4.242,-5.838 L 7.786,14.457 C 11.887,11.226 12.859,9.069 12.859,6.291 12.859,4.864 12.305,2.222 9.905,0.522 8.412,-0.522 6.535,-0.938 4.656,-0.938 3.023,-0.938 1.426,-0.698 0,0"
             style="fill:#9b283e;fill-opacity:1;fill-rule:nonzero;stroke:none"
             id="path3058" /></g><g
           id="g3060"
           transform="translate(219.4854,213.7388)"><path
             d="m 0,0 c 0,-3.334 0,-6.08 0.174,-7.54 0.107,-1.006 0.312,-1.775 1.353,-1.912 0.488,-0.069 1.255,-0.138 1.568,-0.138 0.21,0 0.276,-0.106 0.276,-0.211 0,-0.173 -0.171,-0.277 -0.555,-0.277 -1.912,0 -4.101,0.104 -4.276,0.104 -0.173,0 -2.361,-0.104 -3.405,-0.104 -0.382,0 -0.557,0.069 -0.557,0.277 0,0.105 0.069,0.211 0.279,0.211 0.311,0 0.729,0.069 1.045,0.138 0.692,0.137 0.867,0.906 1.006,1.912 0.173,1.46 0.173,4.206 0.173,7.54 l 0,14.702 -5.143,-0.069 c -2.159,-0.033 -2.989,-0.277 -3.546,-1.111 -0.38,-0.59 -0.486,-0.835 -0.591,-1.076 -0.104,-0.28 -0.208,-0.349 -0.346,-0.349 -0.105,0 -0.175,0.104 -0.175,0.313 0,0.345 0.697,3.336 0.764,3.614 0.069,0.209 0.208,0.661 0.348,0.661 0.245,0 0.59,-0.348 1.531,-0.417 1.008,-0.105 2.327,-0.176 2.742,-0.176 l 13.038,0 c 1.11,0 1.91,0.071 2.467,0.176 0.52,0.069 0.834,0.173 0.972,0.173 0.172,0 0.172,-0.208 0.172,-0.417 0,-1.042 -0.103,-3.44 -0.103,-3.823 0,-0.313 -0.103,-0.453 -0.242,-0.453 -0.174,0 -0.242,0.105 -0.279,0.592 l -0.034,0.383 c -0.105,1.04 -0.939,1.842 -4.277,1.91 L 0,14.702 0,0 z"
             style="fill:#9b283e;fill-opacity:1;fill-rule:nonzero;stroke:none"
             id="path3062" /></g><g
           id="g3064"
           transform="translate(243.8857,215.1636)"><path
             d="m 0,0 c 0.173,0 0.173,0.106 0.138,0.245 l -3.303,9.384 c -0.172,0.522 -0.346,0.522 -0.521,0 L -6.743,0.245 C -6.812,0.07 -6.743,0 -6.64,0 L 0,0 z m -3.616,13.904 c 0.416,1.148 0.556,1.356 0.766,1.356 0.205,0 0.345,-0.175 0.763,-1.25 0.523,-1.322 5.98,-15.676 8.099,-20.961 1.25,-3.09 2.258,-3.646 2.989,-3.858 0.52,-0.171 1.042,-0.206 1.39,-0.206 0.207,0 0.348,-0.035 0.348,-0.211 0,-0.208 -0.312,-0.276 -0.696,-0.276 -0.522,0 -3.058,0 -5.456,0.068 -0.658,0.035 -1.043,0.035 -1.043,0.244 0,0.14 0.104,0.21 0.243,0.244 0.209,0.069 0.417,0.382 0.209,0.939 l -3.232,8.549 c -0.07,0.139 -0.139,0.209 -0.313,0.209 l -7.474,0 c -0.173,0 -0.276,-0.105 -0.345,-0.279 l -2.086,-6.151 c -0.312,-0.869 -0.486,-1.704 -0.486,-2.328 0,-0.695 0.73,-1.008 1.318,-1.008 l 0.349,0 c 0.241,0 0.345,-0.069 0.345,-0.211 0,-0.208 -0.207,-0.276 -0.52,-0.276 -0.833,0 -2.326,0.103 -2.71,0.103 -0.383,0 -2.295,-0.103 -3.928,-0.103 -0.453,0 -0.66,0.068 -0.66,0.276 0,0.142 0.141,0.211 0.312,0.211 0.245,0 0.732,0.035 1.008,0.069 1.598,0.206 2.296,1.528 2.918,3.267 l 7.892,21.583 z"
             style="fill:#9b283e;fill-opacity:1;fill-rule:nonzero;stroke:none"
             id="path3066" /></g><g
           id="g3068"
           transform="translate(261.2285,208.3872)"><path
             d="m 0,0 c 0.067,-2.849 0.418,-3.751 1.356,-4.033 0.658,-0.171 1.427,-0.206 1.737,-0.206 0.178,0 0.278,-0.069 0.278,-0.21 0,-0.208 -0.209,-0.277 -0.626,-0.277 -1.981,0 -3.369,0.103 -3.683,0.103 -0.314,0 -1.773,-0.103 -3.338,-0.103 -0.348,0 -0.557,0.035 -0.557,0.277 0,0.141 0.105,0.21 0.281,0.21 0.276,0 0.902,0.035 1.426,0.206 0.866,0.245 1.041,1.256 1.041,4.415 L -2.05,20.3 c 0,1.354 0.104,1.736 0.38,1.736 0.278,0 0.871,-0.764 1.217,-1.113 0.52,-0.59 5.703,-6.185 11.052,-11.919 3.442,-3.685 7.23,-7.925 8.341,-9.073 l -0.38,17.656 c -0.035,2.261 -0.279,3.025 -1.355,3.303 -0.626,0.137 -1.426,0.172 -1.703,0.172 -0.243,0 -0.279,0.105 -0.279,0.246 0,0.206 0.279,0.241 0.694,0.241 1.564,0 3.234,-0.106 3.616,-0.106 0.382,0 1.529,0.106 2.956,0.106 0.38,0 0.624,-0.035 0.624,-0.241 0,-0.141 -0.138,-0.246 -0.384,-0.246 -0.172,0 -0.417,0 -0.833,-0.104 -1.147,-0.243 -1.286,-1.007 -1.286,-3.091 l -0.069,-20.37 c 0,-2.292 -0.069,-2.468 -0.312,-2.468 -0.278,0 -0.696,0.383 -2.54,2.226 -0.382,0.347 -5.385,5.457 -9.07,9.417 -4.033,4.348 -7.96,8.727 -9.072,9.976 L 0,0 z"
             style="fill:#9b283e;fill-opacity:1;fill-rule:nonzero;stroke:none"
             id="path3070" /></g><g
           id="g3072"
           transform="translate(293.8989,219.8579)"><path
             d="m 0,0 c 0,5.421 0,6.396 -0.068,7.506 -0.071,1.182 -0.346,1.739 -1.496,1.981 -0.277,0.069 -0.866,0.104 -1.183,0.104 -0.136,0 -0.276,0.072 -0.276,0.21 0,0.208 0.176,0.277 0.557,0.277 0.797,0 1.736,0 2.503,-0.035 l 1.422,-0.07 c 0.695,-0.034 7.749,0 8.551,0.036 0.661,0.034 1.217,0.034 1.531,0.139 0.206,0.07 0.347,0.21 0.484,0.21 0.141,0 0.209,-0.14 0.209,-0.315 0,-0.242 -0.173,-0.658 -0.277,-1.632 C 11.922,8.063 11.854,6.534 11.783,6.116 11.747,5.943 11.68,5.734 11.504,5.734 c -0.171,0 -0.241,0.176 -0.241,0.415 0,0.28 -0.109,0.871 -0.313,1.324 C 10.74,7.924 9.941,8.55 8.587,8.583 L 3.233,8.688 C 3.025,8.688 2.921,8.583 2.921,8.309 l 0,-9.597 c 0,-0.206 0.033,-0.311 0.242,-0.311 l 4.449,0.035 c 0.588,0 1.076,0 1.563,0.036 0.835,0.069 1.288,0.171 1.6,0.623 0.139,0.174 0.243,0.35 0.379,0.35 0.142,0 0.179,-0.107 0.179,-0.28 0,-0.207 -0.179,-0.8 -0.279,-1.946 -0.071,-0.694 -0.14,-2.085 -0.14,-2.33 0,-0.31 0,-0.659 -0.243,-0.659 -0.175,0 -0.242,0.138 -0.242,0.313 -0.034,0.346 -0.07,0.833 -0.209,1.251 -0.174,0.485 -0.729,1.113 -1.808,1.252 -0.869,0.103 -4.658,0.103 -5.249,0.103 -0.172,0 -0.242,-0.067 -0.242,-0.314 l 0,-2.954 c 0,-3.335 0,-6.08 0.174,-7.54 0.102,-1.007 0.313,-1.775 1.355,-1.912 0.488,-0.07 1.25,-0.138 1.564,-0.138 0.207,0 0.278,-0.106 0.278,-0.211 0,-0.173 -0.173,-0.277 -0.559,-0.277 -1.909,0 -4.098,0.104 -4.274,0.104 -0.172,0 -2.361,-0.104 -3.405,-0.104 -0.383,0 -0.556,0.069 -0.556,0.277 0,0.105 0.072,0.211 0.279,0.211 0.313,0 0.728,0.068 1.04,0.138 0.696,0.137 0.871,0.905 1.008,1.912 C 0,-12.199 0,-9.454 0,-6.119 L 0,0 z"
             style="fill:#9b283e;fill-opacity:1;fill-rule:nonzero;stroke:none"
             id="path3074" /></g><g
           id="g3076"
           transform="translate(325.6313,204.4941)"><path
             d="m 0,0 c 3.129,0 9.593,1.808 9.593,11.922 0,8.342 -5.075,12.827 -10.566,12.827 -5.805,0 -10.148,-3.826 -10.148,-11.437 C -11.121,5.213 -6.254,0 0,0 m -0.729,25.929 c 7.819,0 13.659,-4.937 13.659,-13.032 0,-7.786 -5.493,-14.216 -13.869,-14.216 -9.522,0 -13.484,7.403 -13.484,13.658 0,5.63 4.101,13.59 13.694,13.59"
             style="fill:#9b283e;fill-opacity:1;fill-rule:nonzero;stroke:none"
             id="path3078" /></g><g
           id="g3080"
           transform="translate(349.4399,216.833)"><path
             d="m 0,0 c 0,-0.174 0.071,-0.312 0.242,-0.417 0.521,-0.312 2.121,-0.553 3.651,-0.553 0.834,0 1.807,0.102 2.608,0.658 1.213,0.835 2.117,2.711 2.117,5.353 0,4.345 -2.293,6.952 -6.01,6.952 -1.044,0 -1.982,-0.105 -2.331,-0.211 C 0.104,11.713 0,11.575 0,11.367 L 0,0 z m -2.781,3.025 c 0,5.421 0,6.396 -0.069,7.506 -0.07,1.182 -0.349,1.739 -1.494,1.981 -0.28,0.069 -0.868,0.104 -1.183,0.104 -0.139,0 -0.277,0.072 -0.277,0.21 0,0.208 0.171,0.277 0.556,0.277 1.564,0 3.756,-0.105 3.928,-0.105 0.381,0 3.021,0.105 4.099,0.105 2.193,0 4.52,-0.207 6.364,-1.528 0.869,-0.626 2.395,-2.329 2.395,-4.726 0,-2.576 -1.075,-5.145 -4.204,-8.03 2.85,-3.649 5.213,-6.741 7.227,-8.899 1.878,-1.981 3.373,-2.364 4.244,-2.503 0.658,-0.102 1.145,-0.102 1.354,-0.102 0.173,0 0.313,-0.105 0.313,-0.21 0,-0.208 -0.209,-0.277 -0.834,-0.277 l -2.466,0 c -1.949,0 -2.818,0.173 -3.719,0.66 -1.496,0.802 -2.715,2.502 -4.697,5.11 -1.457,1.91 -3.09,4.239 -3.784,5.144 C 4.83,-2.119 4.727,-2.05 4.519,-2.05 L 0.242,-1.981 C 0.071,-1.981 0,-2.086 0,-2.258 l 0,-0.836 c 0,-3.335 0,-6.08 0.174,-7.54 0.103,-1.007 0.31,-1.775 1.356,-1.912 0.486,-0.07 1.249,-0.139 1.566,-0.139 0.207,0 0.275,-0.105 0.275,-0.21 0,-0.173 -0.175,-0.277 -0.557,-0.277 -1.913,0 -4.1,0.104 -4.273,0.104 -0.033,0 -2.225,-0.104 -3.269,-0.104 -0.381,0 -0.555,0.069 -0.555,0.277 0,0.105 0.071,0.21 0.276,0.21 0.316,0 0.733,0.069 1.045,0.139 0.694,0.137 0.867,0.905 1.008,1.912 0.173,1.46 0.173,4.205 0.173,7.54 l 0,6.119 z"
             style="fill:#9b283e;fill-opacity:1;fill-rule:nonzero;stroke:none"
             id="path3082" /></g><g
           id="g3084"
           transform="translate(376.478,216.1035)"><path
             d="m 0,0 c 0,-3.682 0.037,-6.882 0.073,-7.542 0.035,-0.869 0.103,-2.259 0.381,-2.641 0.451,-0.662 1.805,-1.39 5.908,-1.39 3.233,0 6.222,1.182 8.272,3.231 1.808,1.775 2.781,5.11 2.781,8.309 0,4.413 -1.912,7.262 -3.338,8.757 C 10.812,12.166 6.85,12.651 2.713,12.651 2.019,12.651 0.73,12.548 0.454,12.41 0.143,12.268 0.037,12.097 0.037,11.713 0,10.532 0,6.985 0,4.311 L 0,0 z m -2.917,3.754 c 0,5.421 0,6.396 -0.07,7.506 -0.072,1.182 -0.346,1.739 -1.494,1.981 -0.278,0.07 -0.868,0.104 -1.184,0.104 -0.137,0 -0.276,0.072 -0.276,0.211 0,0.207 0.174,0.277 0.557,0.277 1.565,0 3.751,-0.106 3.926,-0.106 0.417,0 2.608,0.106 4.691,0.106 3.442,0 9.803,0.312 13.939,-3.962 1.737,-1.807 3.372,-4.691 3.372,-8.829 0,-4.378 -1.809,-7.75 -3.754,-9.802 -1.494,-1.563 -4.625,-3.995 -10.533,-3.995 -1.494,0 -3.336,0.102 -4.831,0.207 -1.53,0.106 -2.709,0.209 -2.884,0.209 -0.067,0 -0.66,0 -1.392,-0.035 -0.694,0 -1.491,-0.068 -2.01,-0.068 -0.386,0 -0.56,0.068 -0.56,0.276 0,0.105 0.071,0.211 0.278,0.211 0.315,0 0.73,0.069 1.042,0.138 0.696,0.137 0.869,0.906 1.008,1.912 0.175,1.461 0.175,4.206 0.175,7.54 l 0,6.119 z"
             style="fill:#9b283e;fill-opacity:1;fill-rule:nonzero;stroke:none"
             id="path3086" /></g></g></g><g
       id="g3088"><g
         id="g3090"
         clip-path="url(#clipPath3092)"><g
           id="g3096"><g
             id="g3098" /><g
             id="g3104"><g
               clip-path="url(#clipPath3100)"
               id="g3106"><g
                 transform="translate(132.7349,90.4512)"
                 id="g3108"><path
                   d="M 0,0 C 1.692,0.532 -1.383,0.154 -0.498,1.493 2.587,0.9 3.573,1.976 4.976,0.498 4.389,0.259 3.846,-0.035 3.483,-0.503 1.926,0.767 0.736,-0.189 0,0 m -13.435,20.899 1.493,0 c -0.16,-1.155 0.08,-1.911 0.498,-2.488 -1.842,-0.349 -1.24,1.746 -1.991,2.488 M -16.42,1.493 c 1.238,0.348 2.045,0.487 2.985,-0.498 C -16.669,0.796 -13.196,0.08 -14.43,0 c -0.339,-1.09 -1.652,0.945 -1.99,1.493 m 1.492,14.928 c -1.099,0.582 -2.249,3.686 -1.492,4.478 0.86,-0.304 -0.04,-2.359 0.995,-2.488 0.274,0.722 -0.582,2.568 0.497,2.488 0.12,-0.935 0.822,0.284 0.995,-0.498 -1.318,-0.88 0.732,-2.015 -0.995,-2.488 1.523,0.354 1.812,-0.507 2.986,-0.502 -1.075,-1.891 1,-1.011 0.498,-3.478 -1.658,0.343 -0.802,-1.031 -0.498,-1.498 -0.722,-0.274 -2.573,0.582 -2.488,-0.493 2.931,0.084 -0.612,-3.179 1.492,-4.483 -1.278,0.204 -0.736,2.194 -2.985,2.488 1.025,2.095 -0.702,5.05 0.995,6.474 M -14.43,2.488 c -1.359,-0.318 -3.951,0.627 -2.488,1.492 0.134,-1.173 2.204,-0.302 1.99,0.494 -2.373,-1.374 0.826,5.662 -2.488,3.488 3.658,3.408 4.882,-3.448 2.986,-5.474 m -20.899,5.971 c 0.319,1.841 -0.642,4.956 0.498,5.972 0.164,-2.434 0.597,0.666 0.995,0.995 1.229,-0.066 2.399,-0.075 2.985,0.497 -0.542,-2.035 1.712,-1.274 1.991,-2.488 -1.224,-2.502 -1.981,-5.677 0.497,-4.478 -0.821,-0.995 -2,-1.135 -0.497,-1.99 -1.802,1.069 -0.508,-3.384 -1.493,-1.493 -0.498,2.811 0.219,4.622 -0.498,6.468 -0.004,-0.657 -0.87,-0.453 -0.995,-0.995 1.224,-1.676 -0.636,-0.353 -1.492,0 -0.05,-1.548 0.607,-2.379 0.995,-3.488 -2.414,0.169 -0.757,2.921 -2.986,1 m -2.488,3.976 c 0.687,-0.015 1.095,0.239 1.493,0.503 -0.02,-0.687 0.234,-1.1 0.497,-1.494 -2.099,0.772 0.11,-2.761 -1.99,-1.99 0.154,1.165 0.976,2.056 0,2.981 m -1.493,30.358 c 1.319,-0.583 2.931,0.955 2.986,0 -0.388,-0.109 -0.577,-0.418 -0.498,-0.995 -1.234,-0.08 -2.413,-0.095 -2.488,0.995 m -10.449,-2.986 c 1.199,0.199 1.08,-0.915 2.488,-0.497 -1.274,-1.16 2.214,-4.185 0.995,-3.483 -1.14,1.348 -3.274,1.701 -3.483,3.98 m -0.995,-0.497 c -1.373,-0.787 -2.234,1.294 -0.996,1.487 0.279,-1.029 0.777,-1.049 1.494,-0.492 l 0,-2.986 c 0.875,0.921 1.542,-0.129 1.99,-0.995 -1.075,-0.711 -2.901,1.15 -3.981,1.986 0.781,0.049 1.726,-0.06 1.493,1 m -2.488,-2.986 c -0.806,3.015 -4.747,5.524 -4.478,7.962 1.497,-1.488 2.129,-3.842 3.98,-4.976 1.229,0.582 -1.209,2.07 0.995,1.99 -1.512,-2.448 0.752,-2.592 -0.497,-4.976 m -7.464,14.426 c -0.936,-1.235 -4.115,-2.827 -4.976,-2.489 1.364,1.13 2.777,2.205 4.976,2.489 M -3.259,2.508 c -0.075,-0.015 -0.149,-0.02 -0.224,-0.02 0.08,0.01 0.154,0.02 0.224,0.02 m 0.01,0 c 2.01,0.398 1.751,6.593 -0.234,6.449 -0.085,1.249 1.114,1.209 1.493,1.99 -0.488,1.647 -0.986,-0.562 -1.493,-0.498 -0.682,2.175 1.925,1.061 1.493,2.986 -1.244,-0.248 -1.662,-1.324 -2.986,-1.493 1.841,1.553 0.921,2.981 0.996,5.469 -1.881,-0.667 0.407,-2.618 -2.489,-2.488 0.846,0.487 1.279,1.373 0.995,2.99 0.155,0.677 1.245,0.413 1.991,0.498 -0.169,1 0.099,1.553 0.995,1.487 -1.562,2.354 -3.478,1.593 -4.478,3.986 0.851,-1.303 4.055,-0.259 3.981,-2.488 1.079,-0.084 0.223,1.767 0.497,2.488 -1.154,0.159 -1.91,-0.079 -2.488,-0.497 0.473,2.05 0.09,1.866 0.996,3.483 2.851,-1.787 2.557,-5.324 3.98,-6.469 -0.856,-0.472 -0.816,-1.84 -2.488,-1.493 1.821,-0.487 5.344,-2.632 2.986,-5.473 1.905,0.089 0.179,-0.408 0.497,-1.493 1.612,1.463 2.03,-1.284 1.991,-2.985 C 2.374,10.997 1.333,9.684 0.498,9.454 0.025,7.653 2.458,8.763 3.483,8.459 3.329,7.782 2.239,8.041 1.493,7.962 4.384,6.663 3.752,7.409 2.488,4.976 1.204,5.096 3.17,5.832 2.488,6.967 1.333,7.12 0.577,6.887 0,6.469 0.219,5.856 0.637,5.448 1.493,5.474 0.075,3.453 -0.313,6.604 -1.493,6.469 c 0.458,-2.498 0.373,-5.573 0,-8.459 l 26.372,0 c 0.379,1.587 0.732,2.438 -0.497,0.995 -0.214,2.358 -0.542,1.378 0.497,1.99 -2.422,1.349 -3.776,3.892 -5.12,6.324 -0.144,0.19 -0.259,0.404 -0.353,0.643 0.119,-0.215 0.239,-0.429 0.353,-0.643 0.279,-0.382 0.662,-0.666 1.14,-0.85 -1.14,2.93 -6.016,3.259 -2.986,3.478 -10.733,7.514 -20.326,16.172 -28.86,25.88 0.323,2.741 -1.214,3.906 0.498,4.97 0.99,-1.159 -0.931,-2.796 0.497,-3.975 -0.283,1.02 0.15,3.732 0.995,1.99 -0.811,0.08 -1.005,-3.254 0.498,-2.488 -0.313,1.677 0.642,4.623 -0.498,5.474 -0.084,-0.747 0.18,-1.837 -0.497,-1.991 -0.433,0.727 -0.393,1.926 -1.99,1.493 0.129,4.553 -0.598,8.196 -0.996,10.947 4.668,3.289 0.801,13.967 -0.498,18.908 0.24,-5.264 2.374,-10.056 1.991,-14.429 -2.936,2.358 -8.3,0.805 -11.942,1.492 -0.916,1.573 -1.299,3.678 -1.99,5.469 1.438,2.711 3.562,4.732 6.468,5.976 -1.089,-3.056 -5.802,-2.493 -5.473,-6.967 0.517,0.523 1.935,2.648 2.488,1.493 -0.956,-0.731 -2.354,-3.587 -0.996,-4.976 1.09,3.692 2.827,6.753 4.941,9.415 -1.144,1.786 -3.094,3 -5.936,3.523 1.707,0.333 0.722,2.099 -0.353,2.448 -0.02,-0.015 -0.035,-0.035 -0.05,-0.05 0.015,0.02 0.03,0.035 0.045,0.055 -0.05,0.015 -0.094,0.025 -0.139,0.035 l 0,-2.488 c -7.748,-6.026 -7.713,-19.819 -12.938,-28.363 -0.353,1.806 -3.627,0.687 -5.473,0.995 -2.065,2.364 -5.25,8.196 -8.185,10.116 -0.14,0.09 -2.892,3.782 -3.255,4.16 l -0.015,0 c 0.344,-0.482 3.27,-4.523 3.523,-4.851 2.384,-3.125 7.165,-8.146 7.435,-10.922 3.398,1.885 1.447,-2.105 2.612,-4.031 -2.593,2.871 -6.623,2.632 -10.076,4.031 -0.269,-1.15 2.517,-1.712 0.995,-2.489 -1.269,0.195 -2.071,3.514 -3.484,2.991 0.309,-0.841 2.553,-2.543 0.498,-1.493 -0.209,0.796 -3.269,3.026 -5.473,3.478 0.661,1.225 1.502,-0.89 1.99,0.503 -1.498,2.98 -4.05,4.906 -7.464,5.971 -0.816,-0.547 -2.562,-2.702 -3.483,-1.497 1.916,0.303 4.802,3.612 2.488,4.98 -1.931,0.249 -3.249,-2.687 -4.478,-1.493 2.044,1.05 -0.125,4.862 -2.389,6.185 -0.119,0.065 -0.239,0.13 -0.358,0.18 0.219,0 15.888,-1.404 17.55,-1.533 -1.667,0.159 -17.754,1.622 -17.789,1.637 -0.229,-1.592 -1.896,-1.756 -1.991,-3.483 1.598,-1.055 1.374,-3.936 3.484,-4.478 -0.284,-2.036 -2.289,-2.354 -2.488,-4.484 4.926,-10.827 7.817,-23.695 18.908,-28.363 -0.273,-8.399 0.075,-16.171 2.488,-21.888 l 13.933,0 c -0.911,0.582 -2.259,0.726 -2.488,1.99 0.776,0.159 2.468,-0.064 2.985,-1.99 l 4.976,0 c -0.298,1.294 0.2,1.791 1.493,1.487 -1.742,0.702 0.05,1.842 -0.995,2.991 -1.075,-0.423 -0.418,-2.567 -1.493,-2.991 -1.458,0.429 0.647,1.26 0,2.488 -1.06,0.24 -0.945,-0.712 -0.995,-1.487 -1.369,2.314 2.408,5.493 -0.995,6.469 4.846,0.96 5.961,-8.181 3.483,-8.957 l 16.42,0 0,0.497 c 1.015,0.149 1.324,0.99 1.99,1.493 -0.77,-1.767 1.692,-0.299 1.494,-1.493 -0.787,-0.044 -1.896,0.239 -1.991,-0.497 l 11.445,0 c -0.224,1.691 0.736,4.573 -1.259,4.498 M -40.175,39.25 c 0.129,-0.139 0.248,-0.284 0.368,-0.438 -0.15,0.129 -0.269,0.274 -0.368,0.438 m 14.788,-21.586 c -0.139,0.901 -1.582,-1.646 -0.488,-1.243 0.652,0.507 1.836,0.487 2.488,0.99 l 0,-1.488 c -0.497,0 -0.592,-0.403 -0.995,-0.497 -0.378,3.005 -2.712,-2.822 -0.497,0 -2.687,-4.3 0.457,-7.141 -1.493,-10.45 l 1.493,0 c -0.175,-2.025 -3.534,-1.702 -0.498,-2.991 -2.259,-0.233 -2.18,-0.244 -3.483,-0.492 1.647,0.746 -1.035,1.219 -0.498,2.487 0.926,0.071 1.662,0.33 1.991,0.996 -3.066,2.777 2.209,7.573 -0.996,8.459 1.603,0.244 1.996,4.279 0.996,5.473 -0.931,-0.95 -0.055,-1.249 0,-2.487 -1.135,0.682 -1.871,-1.289 -1.991,0 0.503,0.005 0.627,0.87 0,0.99 -0.741,-0.726 -2.508,-1.448 -4.478,0 -0.468,-1.339 -2.244,-0.886 -0.497,-1.985 -2.957,-0.035 -6.086,0.114 -6.469,-2.488 0.149,0.98 -0.672,0.985 -0.995,1.493 1.766,3.876 3.194,10.732 3.483,14.429 -0.587,-0.238 -1.13,-0.532 -1.493,-1 1.786,-1.234 -1.433,-5.026 -0.995,-7.962 -5.19,-1.233 -0.921,-10.254 -4.976,-11.439 0.935,-0.119 -0.284,-0.821 0.497,-1 0.12,0.547 0.822,1.199 0.995,0.503 -0.482,-0.04 0.025,-3.255 0.498,-3.982 -2.612,-0.656 -0.891,-2.641 -1.99,-4.483 -0.08,4.021 -3.046,-1.841 -3.483,-0.492 3.801,12.29 6.757,25.417 10.947,37.319 0.87,-2.657 -2.742,-5.488 -0.498,-7.464 -0.025,0.856 0.383,1.274 0.995,1.488 0.109,-0.388 0.015,-0.975 0.498,-0.99 -0.493,3.802 3.786,9.365 2.986,13.435 -1.404,-0.851 0.184,-1.956 -1.494,-1.996 3.066,5.399 7.967,13.261 10.45,20.904 -0.284,-2.766 0.741,-5.184 0.995,-5.971 0.712,0.12 0.841,0.816 1.493,0.996 0.637,-1.245 -0.254,-1.558 0.497,-1.991 0.986,1.592 0.986,0.94 0,1.488 5.877,2.99 10.335,-2.583 8.957,-7.459 -0.109,0.388 -0.418,0.577 -0.995,0.498 -0.443,-3.175 -0.08,-4.464 -0.498,-6.469 -0.691,0.298 -0.074,1.915 -0.995,1.99 0.413,-2.567 -2.119,-2.194 -2.985,-3.483 3.398,1.568 4.702,0.209 6.468,0 -0.871,-3.363 0.334,-7.444 0.996,-9.454 -0.782,-0.05 -1.727,0.065 -1.494,-0.995 l 1.494,0 c 0.019,-1.513 -1.051,-1.941 -1.494,-2.991 3.399,-1.13 -0.377,-2.597 0.996,-4.473 -0.791,-0.503 -2,-0.473 -0.996,-1.493 -3.916,0.92 -6.672,-1.936 -8.458,-1.493 1.219,0.771 2.552,1.429 3.98,1.991 -2.084,-0.075 -1.199,0.258 -0.497,0.995 -0.747,1.373 -2.035,-0.866 -2.488,0.497 0.607,0.05 1.179,0.15 0.995,0.995 1.612,0.618 0.378,-1.611 1.99,-0.995 -0.622,1.951 -0.378,1.538 0.498,1.991 -0.657,0 -0.453,0.871 -0.995,0.995 -0.055,-0.607 -0.149,-1.18 -0.995,-0.995 0.766,2.095 -2.573,0.08 -2.488,1.493 1.567,-0.573 1.209,0.781 1.99,0.995 0.135,-0.453 1.856,-1.672 1.99,-0.503 -1.99,0.935 -2.697,1.214 -4.478,1.498 0.936,0.12 -0.284,0.821 0.498,0.99 0.164,-1.055 2.169,0.08 2.488,0.503 -2.324,0.054 0.353,0.91 0.497,1.492 -1.766,-0.771 -0.298,1.687 -1.492,1.493 -1.503,-2.089 -2.444,-1.716 -2.986,-4.478 0.661,-0.498 1.503,-0.821 1.99,-1.498 -1.418,-0.901 -1.552,-3.085 -3.483,-3.478 -0.079,0.587 0.085,1.413 -0.497,1.493 -0.299,-1.961 0.731,-2.583 1.492,-3.483 -0.378,0.965 2.493,0.552 3.981,0 -3.503,-0.384 -2.508,-1.08 -3.981,-2.986 0.09,1.085 -0.408,1.582 -1.492,1.493 1.119,-3.165 -0.543,-1.03 -0.508,-3.235 m 0.005,-0.084 c 0.01,-0.05 0.01,-0.104 0.005,-0.169 -0.005,0.06 -0.005,0.114 -0.005,0.169"
                   style="fill:#373535;fill-opacity:1;fill-rule:nonzero;stroke:none"
                   id="path3110" /></g><g
                 transform="translate(73.5215,143.6934)"
                 id="g3112"><path
                   d="m 0,0 c 2.005,0.154 2.802,-3.478 3.981,-2.493 0.075,0.662 -2.025,1.508 -0.498,1.995 2.618,-1.194 5.175,-2.453 6.469,-4.976 -0.07,-1.283 -2.219,1.981 -2.986,0 1.015,-0.641 1.26,-2.06 2.489,-2.487 0.074,0.661 -1.672,1.851 -0.498,1.99 0.283,-1.398 3.627,-2.309 1.99,-3.986 -0.706,1.856 -5.608,2.135 -4.478,5.479 C 4.543,-4.951 4.419,-2.542 2.986,-3.98 2.762,-1.886 0.632,-1.692 0,0 m -12.201,7.359 c 0.119,-0.049 0.239,-0.114 0.359,-0.179 2.263,-1.323 4.433,-5.135 2.388,-6.185 1.229,-1.194 2.548,1.742 4.478,1.493 2.314,-1.368 -0.572,-4.677 -2.488,-4.981 0.921,-1.204 2.668,0.951 3.484,1.498 3.413,-1.065 5.965,-2.991 7.463,-5.971 -0.487,-1.393 -1.328,0.721 -1.99,-0.503 2.204,-0.452 5.264,-2.682 5.473,-3.478 2.055,-1.05 -0.189,0.652 -0.497,1.493 1.413,0.522 2.214,-2.796 3.483,-2.991 1.523,0.777 -1.264,1.339 -0.995,2.488 3.453,-1.398 7.483,-1.159 10.076,-4.03 -1.164,1.925 0.786,5.916 -2.612,4.03 C 16.152,-7.18 11.37,-2.16 8.987,0.965 8.733,1.294 5.807,5.334 5.464,5.817 c -0.005,0 -0.035,0.005 -0.115,0.01 -1.661,0.129 -17.331,1.532 -17.55,1.532"
                   style="fill:#e1e1e1;fill-opacity:1;fill-rule:nonzero;stroke:none"
                   id="path3114" /></g><g
                 transform="translate(67.0532,138.7124)"
                 id="g3116"><path
                   d="M 0,0 C 0.86,-0.338 4.04,1.254 4.976,2.488 2.776,2.205 1.363,1.13 0,0"
                   style="fill:#6e6f6f;fill-opacity:1;fill-rule:nonzero;stroke:none"
                   id="path3118" /></g><g
                 transform="translate(77.5024,141.2007)"
                 id="g3120"><path
                   d="M 0,0 C -1.179,-0.985 -1.976,2.647 -3.981,2.493 -3.349,0.801 -1.219,0.607 -0.995,-1.488 0.438,-0.05 0.562,-2.458 2.488,-1.985 1.358,-5.33 6.26,-5.608 6.966,-7.464 8.604,-5.787 5.259,-4.876 4.976,-3.479 3.802,-3.618 5.548,-4.807 5.474,-5.469 4.245,-5.041 4,-3.623 2.985,-2.981 3.752,-1 5.901,-4.265 5.971,-2.981 4.677,-0.458 2.12,0.801 -0.498,1.995 -2.025,1.507 0.075,0.662 0,0"
                   style="fill:#373535;fill-opacity:1;fill-rule:nonzero;stroke:none"
                   id="path3122" /></g><g
                 transform="translate(75.0146,134.7368)"
                 id="g3124"><path
                   d="M 0,0 C -0.269,-2.438 3.672,-4.946 4.478,-7.961 5.727,-5.578 3.463,-5.434 4.976,-2.985 2.771,-2.906 5.209,-4.394 3.98,-4.976 2.129,-3.841 1.498,-1.488 0,0"
                   style="fill:#6e6f6f;fill-opacity:1;fill-rule:nonzero;stroke:none"
                   id="path3126" /></g><g
                 transform="translate(78.9653,149.5449)"
                 id="g3128"><path
                   d="m 0,0 c 0.005,-0.01 0.015,-0.02 0.02,-0.035 l 0.015,0 C 0.02,-0.015 0.005,-0.005 0,0"
                   style="fill:#ffffff;fill-opacity:1;fill-rule:nonzero;stroke:none"
                   id="path3130" /></g><g
                 transform="translate(80.9854,131.2485)"
                 id="g3132"><path
                   d="m 0,0 c -1.239,-0.194 -0.378,-2.274 0.995,-1.488 0.234,-1.059 -0.711,-0.95 -1.493,-1 1.081,-0.836 2.907,-2.697 3.981,-1.985 -0.447,0.866 -1.114,1.915 -1.99,0.995 l 0,2.985 C 0.776,-1.05 0.279,-1.03 0,0"
                   style="fill:#6e6f6f;fill-opacity:1;fill-rule:nonzero;stroke:none"
                   id="path3134" /></g><g
                 transform="translate(85.4639,129.7607)"
                 id="g3136"><path
                   d="M 0,0 C -1.408,-0.418 -1.289,0.697 -2.488,0.498 -2.279,-1.781 -0.145,-2.134 0.995,-3.483 2.214,-4.185 -1.274,-1.159 0,0"
                   style="fill:#6e6f6f;fill-opacity:1;fill-rule:nonzero;stroke:none"
                   id="path3138" /></g><g
                 transform="translate(111.8359,129.7607)"
                 id="g3140"><path
                   d="m 0,0 c -1.383,0.02 -3.254,-2.005 -3.98,-1 2.06,0.602 2.577,2.732 5.473,2.488 C 1.418,0.254 2.274,-0.05 2.488,-1 1.702,-2.035 -0.289,-1.871 -0.995,-2.985 c 0.657,-0.005 0.453,-0.871 0.995,-1 0.528,0.363 1.687,2.552 2.488,1 C 1.18,-2.841 0.856,-3.672 0.996,-4.976 -0.413,-4.568 -0.293,-5.682 -1.493,-5.473 -1.687,-3.567 -1.488,-1.403 0,0 m -5.971,-10.947 c -0.02,0.438 0.508,5.235 0.995,3.483 -0.065,0.224 -0.915,-5.105 -0.995,-3.483 m -0.497,-8.956 c -1.185,0.97 0.91,2.786 -0.498,3.98 2.105,-0.084 0.512,-4.165 0.498,-3.98 m -21.894,-20.402 c 0.437,-1.348 3.403,4.513 3.483,0.492 1.099,1.842 -0.622,3.828 1.99,4.484 -0.473,0.726 -0.98,3.941 -0.498,3.981 -0.174,0.697 -0.875,0.044 -0.995,-0.503 -0.781,0.179 0.438,0.881 -0.497,1 4.055,1.185 -0.214,10.206 4.976,11.44 -0.438,2.936 2.781,6.727 0.995,7.962 0.363,0.468 0.906,0.761 1.492,1 -0.288,-3.697 -1.716,-10.554 -3.482,-14.43 0.323,-0.508 1.144,-0.513 0.995,-1.493 0.382,2.602 3.512,2.453 6.468,2.488 -1.746,1.1 0.03,0.647 0.498,1.986 1.97,-1.449 3.737,-0.727 4.478,0 0.627,-0.121 0.503,-0.986 0,-0.991 0.12,-1.289 0.856,0.682 1.991,0 -0.055,1.239 -0.931,1.537 0,2.488 1,-1.195 0.607,-5.23 -0.996,-5.474 3.205,-0.886 -2.07,-5.682 0.996,-8.459 -0.329,-0.666 -1.065,-0.925 -1.991,-0.995 -0.537,-1.269 2.145,-1.741 0.498,-2.487 1.303,0.248 1.224,0.258 3.483,0.492 -3.036,1.289 0.323,0.966 0.498,2.99 l -1.493,0 c 1.95,3.31 -1.194,6.15 1.493,10.45 -2.215,-2.821 0.119,3.005 0.497,0 0.403,0.094 0.498,0.497 0.995,0.497 l 0,1.489 c -0.652,-0.503 -1.836,-0.484 -2.488,-0.991 -1.094,-0.403 0.349,2.145 0.488,1.243 -0.035,2.206 1.627,0.071 0.508,3.235 1.084,0.09 1.582,-0.408 1.492,-1.492 1.473,1.905 0.478,2.602 3.981,2.985 -1.488,0.552 -4.359,0.965 -3.981,0 -0.761,0.901 -1.791,1.522 -1.492,3.483 0.582,-0.08 0.417,-0.905 0.497,-1.493 1.931,0.393 2.065,2.578 3.483,3.479 -0.487,0.677 -1.329,1 -1.99,1.497 0.542,2.762 1.483,2.389 2.986,4.479 1.193,0.194 -0.274,-2.264 1.492,-1.493 -0.144,-0.582 -2.821,-1.438 -0.497,-1.493 -0.319,-0.423 -2.324,-1.557 -2.489,-0.502 -0.781,-0.17 0.438,-0.871 -0.497,-0.991 1.781,-0.283 2.488,-0.562 4.478,-1.497 -0.134,-1.17 -1.856,0.05 -1.99,0.502 -0.781,-0.214 -0.423,-1.567 -1.991,-0.995 -0.084,-1.413 3.255,0.602 2.489,-1.493 0.845,-0.184 0.94,0.388 0.995,0.996 0.542,-0.125 0.338,-0.996 0.995,-0.996 -0.876,-0.453 -1.12,-0.04 -0.498,-1.99 -1.612,-0.617 -0.378,1.612 -1.99,0.995 0.184,-0.846 -0.388,-0.945 -0.995,-0.995 0.453,-1.364 1.741,0.876 2.488,-0.498 -0.702,-0.736 -1.588,-1.07 0.497,-0.995 -1.428,-0.562 -2.761,-1.219 -3.981,-1.99 1.787,-0.444 4.543,2.413 8.459,1.492 -1.004,1.02 0.205,0.991 0.996,1.493 -1.374,1.876 2.403,3.344 -0.996,4.474 0.443,1.05 1.513,1.477 1.494,2.99 l -1.494,0 c -0.233,1.06 0.712,0.945 1.494,0.995 -0.663,2.01 -1.867,6.091 -0.996,9.455 -1.766,0.209 -3.07,1.567 -6.468,0 0.865,1.288 3.398,0.915 2.985,3.483 0.92,-0.075 0.304,-1.692 0.995,-1.991 0.418,2.006 0.055,3.294 0.498,6.469 0.577,0.08 0.885,-0.11 0.995,-0.497 1.378,4.876 -3.08,10.449 -8.957,7.458 0.986,-0.547 0.986,0.105 0,-1.488 -0.751,0.433 0.14,0.747 -0.497,1.991 -0.652,-0.179 -0.781,-0.876 -1.493,-0.996 -0.254,0.787 -1.279,3.205 -0.995,5.972 -2.483,-7.643 -7.384,-15.505 -10.45,-20.904 1.678,0.04 0.09,1.144 1.493,1.995 0.801,-4.07 -3.478,-9.633 -2.985,-13.435 -0.483,0.015 -0.389,0.602 -0.498,0.991 -0.612,-0.214 -1.02,-0.632 -0.995,-1.488 -2.244,1.975 1.368,4.806 0.497,7.464 -4.189,-11.903 -7.145,-25.03 -10.946,-37.32"
                   style="fill:#e1e1e1;fill-opacity:1;fill-rule:nonzero;stroke:none"
                   id="path3142" /></g><g
                 transform="translate(92.9277,129.2632)"
                 id="g3144"><path
                   d="M 0,0 C -0.12,0.154 -0.239,0.299 -0.368,0.438 -0.269,0.274 -0.149,0.129 0,0"
                   style="fill:#ffffff;fill-opacity:1;fill-rule:nonzero;stroke:none"
                   id="path3146" /></g><g
                 transform="translate(95.9131,88.4609)"
                 id="g3148"><path
                   d="M 0,0 C -0.518,1.926 -2.209,2.149 -2.985,1.99 -2.756,0.727 -1.408,0.582 -0.498,0 L 0,0 z"
                   style="fill:#6e6f6f;fill-opacity:1;fill-rule:nonzero;stroke:none"
                   id="path3150" /></g><g
                 transform="translate(96.4106,133.2441)"
                 id="g3152"><path
                   d="m 0,0 c -0.055,0.955 -1.667,-0.583 -2.985,0 0.074,-1.09 1.254,-1.075 2.487,-0.995 C -0.577,-0.418 -0.388,-0.109 0,0"
                   style="fill:#6e6f6f;fill-opacity:1;fill-rule:nonzero;stroke:none"
                   id="path3154" /></g><g
                 transform="translate(96.4106,103.3887)"
                 id="g3156"><path
                   d="m 0,0 c -0.398,-0.264 -0.806,-0.518 -1.493,-0.503 0.976,-0.925 0.155,-1.815 0,-2.98 2.1,-0.772 -0.109,2.761 1.991,1.99 C 0.234,-1.1 -0.02,-0.687 0,0"
                   style="fill:#6e6f6f;fill-opacity:1;fill-rule:nonzero;stroke:none"
                   id="path3158" /></g><g
                 transform="translate(97.9038,104.8818)"
                 id="g3160"><path
                   d="m 0,0 c -1.14,-1.016 -0.179,-4.131 -0.498,-5.972 2.229,1.921 0.572,-0.831 2.986,-1 -0.388,1.11 -1.045,1.941 -0.995,3.489 0.856,-0.354 2.716,-1.677 1.492,0 0.125,0.542 0.991,0.337 0.995,0.995 0.717,-1.847 0,-3.658 0.498,-6.469 0.985,-1.891 -0.309,2.562 1.493,1.493 -1.503,0.856 -0.324,0.995 0.497,1.99 C 3.99,-6.673 4.747,-3.498 5.971,-0.996 5.692,0.219 3.438,-0.543 3.98,1.492 3.394,0.92 2.224,0.93 0.995,0.995 0.597,0.666 0.164,-2.434 0,0"
                   style="fill:#6e6f6f;fill-opacity:1;fill-rule:nonzero;stroke:none"
                   id="path3162" /></g><g
                 transform="translate(101.3867,88.4609)"
                 id="g3164"><path
                   d="m 0,0 c 2.478,0.776 1.363,9.917 -3.483,8.957 3.403,-0.976 -0.373,-4.155 0.995,-6.469 0.05,0.776 -0.065,1.727 0.995,1.488 0.647,-1.229 -1.458,-2.06 0,-2.489 C -0.418,1.911 -1.075,4.056 0,4.479 1.045,3.329 -0.747,2.189 0.995,1.487 -0.298,1.791 -0.796,1.294 -0.498,0 L 0,0 z"
                   style="fill:#6e6f6f;fill-opacity:1;fill-rule:nonzero;stroke:none"
                   id="path3166" /></g><g
                 transform="translate(104.8696,113.8379)"
                 id="g3168"><path
                   d="M 0,0 C 1.408,-1.194 -0.687,-3.01 0.498,-3.98 0.513,-4.165 2.105,-0.084 0,0"
                   style="fill:#373535;fill-opacity:1;fill-rule:nonzero;stroke:none"
                   id="path3170" /></g><g
                 transform="translate(106.8604,122.2969)"
                 id="g3172"><path
                   d="M 0,0 C -0.488,1.751 -1.015,-3.045 -0.995,-3.483 -0.916,-5.105 -0.065,0.224 0,0"
                   style="fill:#373535;fill-opacity:1;fill-rule:nonzero;stroke:none"
                   id="path3174" /></g><g
                 transform="translate(172.0444,247.6899)"
                 id="g3176"><path
                   d="M 0,0 0,0.995 C 0.03,1.293 0.075,1.582 0.498,1.488 0.607,1.1 0.513,0.512 0.995,0.498 1.239,1.084 1.528,1.627 1.991,1.99 1.553,0.353 4.29,-0.637 2.986,-1.493 2.563,-0.423 1.762,0.269 0,0 m -3.98,-77.624 c -2.155,3.333 1.224,-0.956 1.492,-2.991 -1.229,1.165 -0.821,1.956 -1.492,2.991 m -0.996,3.483 c -4.005,4.802 -12.076,10.787 -13.932,14.43 3.985,-5.14 11.942,-8.952 13.932,-14.43 m -8.459,16.918 c 0.349,1.707 -2.219,3.045 -0.995,3.981 0.483,-0.876 2.279,-2.986 0.995,-3.981 m -1.493,-4.478 c -1.408,0.895 -2.955,3.811 -1.99,3.483 1.154,-1.851 5.459,-5.693 1.99,-3.483 m -2.985,-3.488 c -0.114,2.383 -4.369,2.696 -3.483,4.483 1.408,0.089 1.159,-1.871 2.488,-0.498 -0.05,-1.408 1.97,-3.289 0.995,-3.985 m -4.479,11.947 0,3.98 c 2.011,0.478 3.961,1.015 5.972,1.493 -1.568,-1.945 0.045,-4.001 -1.493,-5.971 -0.527,1.13 -3.13,0.189 -4.479,0.498 m -4.478,4.478 c -1.826,4.812 -6.115,4.394 -10.449,6.966 5.354,-0.124 10.205,-3.389 10.449,-6.966 m -11.942,0.995 c -1.264,0.861 -1.931,-0.756 -1.99,0.996 1.597,0.412 1.03,0.418 1.99,-0.503 -0.149,0.985 0.672,0.985 0.995,1.498 -0.652,-0.065 -3.602,-0.075 -1.99,0.497 2.98,-0.01 4.817,-1.154 6.469,-2.488 -1.812,-0.154 -3.24,0.08 -4.479,0.493 -0.816,-0.896 1.747,-3.329 -0.995,-3.976 -0.746,1 -1.433,3.021 0,3.483 m -6.469,-24.382 c 3.956,0.274 9.067,-1.647 12.938,-0.995 -1.03,0.493 -4.872,0.731 -3.483,1.99 10.524,-3.91 20.127,-11.385 24.879,-19.406 -6.523,7.081 -14.863,12.336 -25.377,15.426 -0.055,-0.607 -0.149,-1.179 -0.995,-0.995 -1.09,2.891 -6.369,1.592 -7.962,3.98 m 4.976,29.358 c -2.672,0.826 -4.229,-2.045 -5.473,-0.995 1.343,0.502 3.866,2.408 5.473,0.995 m -7.464,-30.353 c 0.866,-0.04 1.548,0.109 1.991,0.498 -0.413,-1.458 2.965,-1.618 1.492,-2.488 -0.587,1.239 -2.463,1.184 -3.483,1.99 m 34.215,-20.665 c -0.15,0.438 0.124,0.751 0.119,0.762 -1.945,4.219 -6.767,5.324 -10.947,9.454 9.768,-3.802 15.127,-13.395 19.406,-23.884 2.374,-5.817 5.518,-12.888 7.981,-20.362 0.722,-1.269 1.324,-2.577 1.17,-3.777 0.896,-3.09 1.637,-6.224 2.119,-9.344 0.18,-0.04 0.399,-0.065 0.603,-0.1 0.507,8.096 2.587,18.749 1.064,27.109 -0.895,4.916 -2.975,8.792 -4.906,13.758 0.184,-0.742 0.329,-1.513 0.428,-2.309 -2.801,0.886 -0.935,4.011 -3.981,3.976 -0.438,2.324 1.29,-0.681 1.493,1 -1.12,0.692 -2.717,0.423 -0.995,1.488 -0.94,0.114 -1.1,-0.557 -1.99,-0.493 -1.697,1.165 -1.03,3.319 -0.995,3.981 -0.105,-0.557 -0.553,-0.776 -0.995,-1 -0.538,1.274 2.144,1.746 0.497,2.488 0.025,-0.851 -0.383,-1.269 -0.995,-1.488 -0.528,1.966 -1.473,2.214 0.498,0.995 -0.498,0.662 -0.473,1.851 -1.493,1.991 -0.687,-0.642 -0.493,-2.16 -0.498,-3.483 -1.602,0.721 -2.204,2.438 -2.986,3.98 1.379,-0.268 1.409,-1.612 2.488,0 -1.218,-0.025 -4.159,0.766 -2.985,1.493 0.488,-1.528 1.329,0.572 1.99,0.497 0.294,-1.034 0.956,-1.696 1.991,-1.99 0.069,0.588 0.885,1.13 0,1.493 -0.339,-2.473 -0.941,2 -2.488,1.493 -0.244,-0.587 -0.533,-1.13 -0.996,-1.493 -1.721,1.274 -3.562,5.051 -5.473,4.473 2.115,-1.194 3.125,-3.503 3.981,-5.966 0.279,0 0.562,-0.403 0,-0.497 -0.025,0.631 -0.637,0.681 -0.498,1.492 -7.18,7.653 -13.251,13.789 -22.889,18.411 -0.94,0.11 -1.1,-0.567 -1.99,-0.503 -2.225,-0.387 -3.379,0.772 -0.498,0.503 0.721,0.771 2.548,0.438 3.981,0.498 0.851,2.134 4.792,1.179 5.971,2.985 1.095,-0.109 3.707,-1.214 3.98,-0.497 -0.756,0.906 -1.02,3.806 -2.487,2.488 -0.016,3.294 4.742,3.473 2.487,7.463 1.349,-0.308 3.952,0.633 4.479,-0.497 -1.667,-1.981 -4.454,-2.846 -4.976,-5.971 0.756,-1.254 3.07,-3.538 3.981,-2.986 -0.97,1.184 -2.389,1.926 -2.986,3.478 2.811,0.289 5.678,-6.16 3.11,-4.552 5.046,-3.185 4.528,-11.923 9.827,-14.849 -0.845,1.822 -3.478,4.459 -2.985,5.972 3.578,-9.136 12.42,-14.435 14.908,-23.711 -0.11,1.553 1.771,1.11 1.513,2.812 -0.603,4.179 -2.454,5.697 -1.493,10.449 4.612,2.712 4.961,11.604 1.493,15.923 2.189,2.458 5.826,3.463 5.971,7.956 -0.876,-0.443 -0.822,-1.826 -1.991,-1.985 -1.159,2.434 -1.313,3.175 -3.98,5.474 2.602,-1.682 3.95,-0.975 5.473,-1.991 -1.513,3.458 -4.757,7.743 -9.454,11.44 1.831,13.117 5.045,26.223 1.493,39.812 1.288,3.523 5.423,6.847 3.483,11.942 3.547,3.543 6.464,8.813 5.473,15.426 -1.97,0.119 -2.134,2.04 -1.492,3.482 -1.966,0.02 -2.961,1.021 -2.986,2.986 -1.951,-0.463 -3.797,-0.452 -3.981,1.991 -3.468,-1.05 -5.309,0.308 -9.952,-1.493 -0.602,-1.558 -0.93,-3.384 -3.483,-2.986 0.289,-1.617 -0.338,-2.318 -0.497,-3.483 0.652,0.174 0.781,0.876 1.492,0.995 -0.02,-2.324 -1.413,-0.95 -2.985,-0.995 -0.11,-4.911 -0.727,-12.743 4.976,-15.425 1.278,-16.162 -1.742,-30.149 -4.478,-44.783 4.543,-5.927 9.488,-6.927 13.932,-13.933 -5.802,4.722 -6.489,7.21 -13.435,9.455 0.537,-3.041 2.796,-1.319 2.488,-3.484 1.448,0.602 0.304,1.204 2.488,0 -0.219,-0.736 -0.637,0.194 -1.493,0 0.587,-2.234 3.23,-2.408 3.981,-4.483 -3.961,1.851 -6.135,5.483 -9.952,7.464 0.328,1.498 1.065,-0.473 1.991,0 -0.339,1.159 -1.653,1.338 -1.991,2.488 2.04,-0.941 4.379,-1.587 5.971,-2.981 -0.06,1.443 -3.592,3.697 -5.971,4.478 -0.801,-3.179 -5.648,-2.313 -9.454,-2.487 -1.11,1.378 -2.374,2.602 -3.483,3.98 2.886,5.409 6.065,10.519 9.454,15.425 -4.145,-2.328 -8.091,-9.16 -12.44,-12.942 -2.224,0.433 -3.801,1.503 -6.469,1.498 -0.084,6.548 -1.393,11.878 -1.492,18.411 -2.852,-4.289 2.01,-20.586 -6.967,-20.401 -5.015,3.443 -8.752,8.165 -12.937,12.439 1.503,-4.637 6.613,-9.976 9.952,-14.43 -0.786,-1.876 -2.354,-2.96 -2.985,-4.975 -5.668,1.298 -11.236,2.696 -16.919,3.98 4.906,-2.886 10.713,-4.881 15.923,-7.464 0.269,-1.931 -0.891,-2.428 -0.498,-4.483 -6.642,-0.323 -11.643,-2.284 -17.913,-2.981 4.976,-1.159 12.107,-0.169 17.913,-0.497 -0.159,-1.105 -0.781,-3.603 1.494,-4.484 0.492,-3.746 -2.509,-5.866 -2.489,-8.454 0.011,-1.488 2.309,-2.065 1.235,-3.677 -0.02,-0.024 -0.274,-0.119 -0.642,-0.253 1.467,0.348 2.93,0.447 4.378,0.363 -0.005,0.03 0,0.055 0.005,0.084 0.03,-0.029 0.06,-0.059 0.095,-0.089 7.274,-0.448 14.122,-5.499 18.814,-7.872 0.816,1.01 -3.085,1.533 -3.483,2.985 8.245,-3.955 13.828,-8.235 18.908,-14.43 1.164,-1.423 2.821,-7.26 4.976,-4.483 -0.423,0.094 -0.468,-0.194 -0.498,-0.493 -2.015,-0.428 -0.636,3.593 -1.99,3.981 -0.274,0.075 -1.582,1.383 -1.612,1.229 m 0,-0.005 c 0.015,-0.03 0.025,-0.059 0.039,-0.094 0.025,-0.045 0.05,-0.09 0.08,-0.135 -0.04,0.055 -0.065,0.1 -0.08,0.135 -0.029,0.049 -0.039,0.079 -0.039,0.094"
                   style="fill:#373535;fill-opacity:1;fill-rule:nonzero;stroke:none"
                   id="path3178" /></g><g
                 transform="translate(107.353,108.0313)"
                 id="g3180"><path
                   d="M 0,0 C 0,-0.055 0,-0.109 0.005,-0.169 0.01,-0.104 0.01,-0.05 0,0"
                   style="fill:#ffffff;fill-opacity:1;fill-rule:nonzero;stroke:none"
                   id="path3182" /></g><g
                 transform="translate(107.8555,128.7607)"
                 id="g3184"><path
                   d="M 0,0 C 0.727,-1.005 2.597,1.02 3.98,1 2.493,-0.403 2.294,-2.567 2.488,-4.473 c 1.199,-0.209 1.08,0.905 2.488,0.497 -0.14,1.304 0.184,2.135 1.493,1.991 -0.802,1.552 -1.961,-0.637 -2.489,-1 -0.542,0.129 -0.338,0.995 -0.995,1 C 3.692,-0.871 5.683,-1.035 6.469,0 6.255,0.95 5.399,1.254 5.474,2.488 2.578,2.732 2.06,0.602 0,0"
                   style="fill:#373535;fill-opacity:1;fill-rule:nonzero;stroke:none"
                   id="path3186" /></g><g
                 transform="translate(134.2275,114.3354)"
                 id="g3188"><path
                   d="M 0,0 C 1.453,0.125 1.717,-0.936 2.488,-1.493 2.518,-1.189 2.563,-0.905 2.986,-1 2.901,-1.741 3.165,-2.831 2.488,-2.985 1.562,-0.975 0.528,-2.03 0,0 m 0.995,52.247 c -1.119,1.697 -3.149,2.488 -4.478,3.981 1.826,-0.677 5.036,-2.573 4.478,-3.981 M -6.966,16.913 c -0.353,2.18 2.588,1.065 2.986,2.488 -0.886,0.244 0.213,0.533 0.497,1 -2.085,-0.427 -1.09,2.229 -1.99,2.986 1.174,1.219 0.925,-0.741 2.488,-0.498 0.149,-0.985 -0.672,-0.985 -0.995,-1.493 1.452,-0.985 1.617,-0.174 2.487,-1.492 -0.388,-0.114 -0.98,-0.015 -0.995,-0.503 2.862,0.607 -0.064,-2.811 0.995,-4.976 0.638,0.03 0.687,0.642 1.493,0.503 -0.219,-1.702 -0.453,-3.374 0.498,-4.976 -0.344,4.911 0.841,4.911 0.497,0 0.498,0 0.592,0.403 0.996,0.498 C 2.1,9.509 1.428,9.35 1.493,8.459 2.205,8.265 2.334,7.862 2.986,8.459 3.359,6.927 1.269,7.852 1.991,5.971 5.245,6.503 5.071,2.553 7.464,0.995 6.777,1.015 6.369,0.761 5.971,0.498 5.324,2.175 3.065,2.234 1.991,3.483 2.578,-0.498 5.633,0.274 6.966,-1 7.285,0.085 5.558,0.587 7.464,0.498 8.335,-1.264 5.792,-2.065 6.966,-2.488 c 0.662,0.304 5.628,-1.975 4.479,-3.483 -0.324,0.881 -2.259,2.662 -2.986,1.493 1.02,-2.304 5.767,-3.508 4.976,-5.972 -0.084,0.583 -0.786,0.543 -1.493,0.498 0.085,2.797 -7.344,3.986 -7.463,6.469 0.229,0.264 -0.777,0.627 1.492,0.498 C 4.18,-1.498 1.931,1.189 0,0.995 c 1.458,0.423 -0.646,1.254 0,2.488 -2.095,-0.91 -3.627,2.538 -5.473,3.483 -0.006,-0.502 -0.871,-0.632 -0.996,0 3.041,-0.388 0.369,4.942 1.991,5.972 0.453,-1.354 1.831,0.417 1.99,0.995 -0.497,0.656 -0.821,1.503 -1.492,1.99 -0.304,-0.03 -0.588,-0.074 -0.498,-0.498 0.278,-1.015 1.498,-0.975 0.498,-1.99 -1.672,-0.513 -0.777,1.547 -0.996,2.488 0.742,0.587 2.225,0.433 1.991,1.991 -1.354,-0.762 -2.429,0.173 -3.981,-1.001 m -4.976,3.986 c -0.771,1.767 1.692,0.298 1.493,1.493 -0.523,0.025 -0.393,0.637 0.497,0.497 -0.084,-1.97 0.766,0.159 1.493,-1 -0.965,-1.472 0.667,-2.448 -0.995,-2.98 0.592,2.085 -0.756,2.229 -2.488,1.99 m -9.454,26.865 c 0.701,2.259 -3.016,4.637 -0.996,4.976 0.429,-1.558 0.906,-3.071 1.991,-3.976 -0.657,-0.005 -0.453,-0.871 -0.995,-1 m -4.976,-7.962 c 0.691,-1.791 1.075,-3.896 1.99,-5.468 3.643,-0.687 9.007,0.866 11.943,-1.493 0.382,4.374 -1.752,9.166 -1.991,14.43 1.299,-4.941 5.165,-15.619 0.497,-18.908 0.399,-2.752 1.125,-6.394 0.996,-10.947 1.597,0.433 1.557,-0.767 1.99,-1.493 0.677,0.154 0.413,1.244 0.498,1.991 1.139,-0.852 0.184,-3.797 0.497,-5.474 -1.503,-0.766 -1.308,2.567 -0.497,2.488 -0.846,1.741 -1.279,-0.97 -0.995,-1.99 -1.429,1.179 0.492,2.816 -0.498,3.975 -1.712,-1.064 -0.174,-2.229 -0.497,-4.971 8.533,-9.708 18.126,-18.365 28.859,-25.879 -3.03,-0.22 1.847,-0.548 2.986,-3.479 -0.477,0.185 -0.861,0.468 -1.139,0.851 1.343,-2.433 2.697,-4.976 5.12,-6.324 -1.04,-0.612 -0.712,0.368 -0.498,-1.99 1.229,1.443 0.876,0.591 0.498,-0.996 l 1.99,0 c -0.398,1.732 -2.105,3.195 -3.483,5.474 -1.139,1.881 -1.731,4.892 -2.488,5.966 0,-0.085 -1.259,-0.558 -1.492,0.005 -0.209,0.493 0.995,-0.219 0.995,0.493 -0.005,1.94 -4.175,8.334 -5.971,11.947 -3.986,8.011 -6.435,14.997 -9.952,24.382 -2.394,6.379 -4.976,11.186 -7.464,16.42 -0.279,0.587 0.323,1.826 0,2.488 -1.856,3.782 -5.349,7.16 -6.966,9.952 1.647,2.005 -1.369,2.682 -0.498,5.474 5.275,-11.146 11.161,-21.681 15.425,-33.837 1.229,1.438 0.876,0.592 0.498,-1 0.881,0.936 1.453,-0.587 2.488,0.503 0.771,-1.767 -1.692,-0.299 -1.493,-1.493 0.02,-2.468 2.428,-2.548 3.981,-3.483 1.149,0.333 -2.852,2.244 0,2.985 -0.597,-0.651 -0.194,-0.781 0,-1.492 0.378,0.308 0.916,2.074 -0.996,1.99 -0.198,1.194 2.265,-0.274 1.494,1.493 1.806,-0.02 1.597,-2.05 2.985,-2.488 1.498,2.348 -2.259,3.697 -3.483,4.976 1.169,0.821 2.896,1.079 3.483,2.488 1.04,-1.916 2.612,-3.25 4.976,-5.972 -1.09,2.319 -1.165,4.872 -2.986,4.977 3.767,11.449 -7.041,17.709 -12.439,25.377 2.791,-2.016 5.164,-4.454 6.966,-7.464 1.06,-0.234 0.945,0.711 0.995,1.492 1.826,-1.647 -0.717,-2.846 1.99,-4.478 1.239,0.339 -0.736,1.518 -0.995,1.991 1.125,1.288 1.09,-1.568 2.488,0 -0.109,-0.647 -0.547,-3.135 2.488,-2.986 -0.363,-0.463 -0.905,-0.762 -1.493,-0.995 -0.781,-1.353 1.856,1.089 3.484,0.492 -1.344,-0.791 1.507,-4.348 3.482,-4.975 -2.179,-1.229 1.523,-0.886 0,-2.981 1.414,1.045 3.563,-6.071 5.474,-5.971 0.662,-2.767 1.343,-5.762 3.981,-7.464 -2.563,5.732 -5.797,10.788 -8.957,15.923 2.936,0.866 -0.363,2.787 -0.995,5.468 4.07,-5.717 5.867,-5.757 7.464,-11.439 0.483,0.015 0.388,0.602 0.497,0.995 -0.193,-2.971 2.991,-3.428 4.479,-6.966 0.453,-1.085 -0.045,-2.508 0.497,-3.483 0.135,-0.249 0.697,0.861 0.498,0.995 3.383,-2.304 2.508,-7.613 4.498,-10.788 -0.02,0.105 -0.025,0.219 -0.02,0.339 C 38.847,9.28 38.897,9.101 38.961,8.912 39.2,8.563 39.479,8.245 39.808,7.961 39.583,8.041 39.39,8.146 39.23,8.29 c 0.413,-0.856 1.04,-1.806 1.592,-2.776 -2.463,7.473 -5.607,14.544 -7.981,20.361 -4.279,10.489 -9.638,20.083 -19.406,23.884 4.18,-4.13 9.002,-5.235 10.947,-9.454 0.005,-0.01 -0.269,-0.324 -0.119,-0.762 0.029,0.155 1.338,-1.154 1.612,-1.229 1.354,-0.388 -0.025,-4.408 1.99,-3.98 0.03,0.298 0.075,0.587 0.498,0.493 -2.155,-2.777 -3.812,3.06 -4.976,4.483 -5.08,6.195 -10.663,10.474 -18.908,14.43 0.397,-1.453 4.299,-1.975 3.482,-2.986 -4.691,2.374 -11.539,7.424 -18.814,7.872 1.722,-1.632 5.658,-3.468 5.38,-5.384 -0.971,2.304 -5.638,3.468 -5.479,5.389 -1.448,0.085 -2.911,-0.015 -4.379,-0.363 -0.87,-0.304 -2.378,-0.806 -2.9,-1.01 -0.005,0 -0.011,-0.005 -0.011,-0.005 -0.054,-0.02 -0.109,-0.05 -0.164,-0.075 0.304,-3.617 -1.448,-6.026 0.99,-5.926 -1.164,-0.129 -0.288,-2.185 0,-2.488 -3.254,0.373 -1.233,3.264 -2.487,4.976 -1.165,-0.164 -0.483,-2.17 -1.493,-2.488 0.413,1.542 -0.383,1.871 -0.946,2.438 -0.025,0 -2.135,-2.209 -2.816,-2.896 -0.025,-0.03 -0.05,-0.055 -0.074,-0.08 1.074,-0.348 2.059,-2.114 0.353,-2.447 2.841,-0.523 4.792,-1.737 5.936,-3.523 0.015,0.014 0.025,0.025 0.035,0.039 -0.005,-0.025 -0.005,-0.054 -0.01,-0.079 1.194,-1.881 1.498,-4.389 1.005,-7.39 -1.06,-0.761 -1.851,-1.791 -2.985,-2.487 0.87,4.189 1.472,5.647 1.98,9.877 -0.005,0.015 -0.015,0.029 -0.025,0.04 -2.115,-2.662 -3.851,-5.723 -4.941,-9.415 -1.359,1.388 0.04,4.245 0.995,4.976 -0.552,1.154 -1.97,-0.971 -2.488,-1.493 -0.329,4.474 4.384,3.911 5.474,6.966 -2.907,-1.243 -5.031,-3.264 -6.469,-5.976"
                   style="fill:#e1e1e1;fill-opacity:1;fill-rule:nonzero;stroke:none"
                   id="path3190" /></g><g
                 transform="translate(108.9897,165.0552)"
                 id="g3192"><path
                   d="m 0,0 c -0.015,-0.02 -0.03,-0.035 -0.044,-0.055 0.014,0.015 0.029,0.035 0.049,0.05 L 0,0 z"
                   style="fill:#373535;fill-opacity:1;fill-rule:nonzero;stroke:none"
                   id="path3194" /></g><g
                 transform="translate(108.9897,165.0552)"
                 id="g3196"><path
                   d="M 0,0 0.005,-0.005 C 0.03,0.02 0.055,0.044 0.08,0.074 0.05,0.05 0.025,0.025 0,0"
                   style="fill:#373535;fill-opacity:1;fill-rule:nonzero;stroke:none"
                   id="path3198" /></g><g
                 transform="translate(115.8218,171.5137)"
                 id="g3200"><path
                   d="m 0,0 c 0,0.015 -0.005,0.03 -0.005,0.045 -1.612,-0.846 -2.334,-2.593 -3.931,-3.454 -0.015,-0.009 -2.14,-2.258 -2.816,-2.975 0.681,0.687 2.791,2.896 2.816,2.896 0.562,-0.567 1.358,-0.896 0.946,-2.438 1.01,0.318 0.328,2.323 1.492,2.488 1.254,-1.712 -0.766,-4.603 2.488,-4.976 -0.288,0.303 -1.164,2.358 0,2.488 C -1.448,-6.026 0.304,-3.618 0,0"
                   style="fill:#373535;fill-opacity:1;fill-rule:nonzero;stroke:none"
                   id="path3202" /></g><g
                 transform="translate(111.8359,167.0752)"
                 id="g3204"><path
                   d="m 0,0 c -2.02,-0.338 1.697,-2.717 0.996,-4.976 0.542,0.129 0.337,0.995 0.995,1 C 0.906,-3.07 0.428,-1.558 0,0"
                   style="fill:#373535;fill-opacity:1;fill-rule:nonzero;stroke:none"
                   id="path3206" /></g><g
                 transform="translate(115.3091,159.0391)"
                 id="g3208"><path
                   d="m 0,0 c -0.507,-4.229 -1.109,-5.687 -1.98,-9.877 1.134,0.696 1.925,1.727 2.985,2.488 C 1.498,-4.389 1.194,-1.881 0,0"
                   style="fill:#373535;fill-opacity:1;fill-rule:nonzero;stroke:none"
                   id="path3210" /></g><g
                 transform="translate(115.2842,159.0791)"
                 id="g3212"><path
                   d="M 0,0 C 0.01,-0.01 0.02,-0.025 0.025,-0.04 0.03,-0.015 0.03,0.015 0.035,0.04 0.025,0.025 0.015,0.015 0,0"
                   style="fill:#373535;fill-opacity:1;fill-rule:nonzero;stroke:none"
                   id="path3214" /></g><g
                 transform="translate(115.8169,94.4316)"
                 id="g3216"><path
                   d="M 0,0 C -1.463,-0.865 1.129,-1.811 2.488,-1.492 4.384,0.533 3.16,7.39 -0.498,3.981 2.816,6.155 -0.383,-0.881 1.99,0.493 2.204,-0.303 0.134,-1.174 0,0"
                   style="fill:#6e6f6f;fill-opacity:1;fill-rule:nonzero;stroke:none"
                   id="path3218" /></g><g
                 transform="translate(115.8218,171.5137)"
                 id="g3220"><path
                   d="M 0,0 C 0.055,0.025 0.109,0.055 0.164,0.075 0.08,0.045 0.025,0.02 0,0"
                   style="fill:#ffffff;fill-opacity:1;fill-rule:nonzero;stroke:none"
                   id="path3222" /></g><g
                 transform="translate(118.8022,104.8818)"
                 id="g3224"><path
                   d="M 0,0 0,2.487 C 1.324,2.318 1.682,1.184 1.991,0 1.01,-0.154 1.005,0.671 0.498,0.995 0.388,0.606 0.483,0.015 0,0 m -2.488,6.468 c -0.756,-0.791 0.393,-3.896 1.493,-4.478 -1.697,-1.424 0.03,-4.379 -0.995,-6.473 2.249,-0.294 1.706,-2.285 2.985,-2.489 -2.104,1.304 1.439,4.568 -1.493,4.484 -0.084,1.074 1.767,0.218 2.489,0.492 -0.304,0.468 -1.16,1.842 0.497,1.498 C 2.991,1.97 0.916,1.089 1.991,2.98 0.816,2.976 0.527,3.836 -0.995,3.482 0.731,3.955 -1.318,5.09 0,5.971 -0.174,6.752 -0.875,5.533 -0.995,6.468 -2.075,6.548 -1.219,4.702 -1.493,3.98 -2.528,4.109 -1.627,6.165 -2.488,6.468"
                   style="fill:#6e6f6f;fill-opacity:1;fill-rule:nonzero;stroke:none"
                   id="path3226" /></g><g
                 transform="translate(115.9961,171.5933)"
                 id="g3228"><path
                   d="M 0,0 C 0.522,0.204 2.03,0.707 2.901,1.01 1.936,0.786 0.965,0.453 0,0"
                   style="fill:#373535;fill-opacity:1;fill-rule:nonzero;stroke:none"
                   id="path3230" /></g><g
                 transform="translate(119.2998,91.4463)"
                 id="g3232"><path
                   d="m 0,0 c -0.94,0.985 -1.747,0.846 -2.985,0.498 0.338,-0.548 1.652,-2.583 1.99,-1.493 C 0.239,-0.915 -3.234,-0.199 0,0"
                   style="fill:#6e6f6f;fill-opacity:1;fill-rule:nonzero;stroke:none"
                   id="path3234" /></g><g
                 transform="translate(117.8071,88.958)"
                 id="g3236"><path
                   d="m 0,0 0,-0.497 1.493,0 C 1.587,0.239 2.697,-0.044 3.483,0 3.682,1.194 1.219,-0.273 1.99,1.493 1.324,0.99 1.015,0.149 0,0"
                   style="fill:#6e6f6f;fill-opacity:1;fill-rule:nonzero;stroke:none"
                   id="path3238" /></g><g
                 transform="translate(118.8022,107.3691)"
                 id="g3240"><path
                   d="m 0,0 0,-2.487 c 0.483,0.014 0.388,0.606 0.498,0.995 C 1.005,-1.816 1.01,-2.642 1.991,-2.487 1.682,-1.304 1.324,-0.169 0,0"
                   style="fill:#373535;fill-opacity:1;fill-rule:nonzero;stroke:none"
                   id="path3242" /></g><g
                 transform="translate(120.793,111.3501)"
                 id="g3244"><path
                   d="M 0,0 -1.493,0 C -0.742,-0.742 -1.344,-2.836 0.498,-2.488 0.08,-1.911 -0.16,-1.155 0,0"
                   style="fill:#6e6f6f;fill-opacity:1;fill-rule:nonzero;stroke:none"
                   id="path3246" /></g><g
                 transform="translate(168.5615,93.4365)"
                 id="g3248"><path
                   d="M 0,0 C -1.284,0.901 0.373,4.414 0.995,1.99 -1.493,2.08 2.567,0.309 0,0 M -1.493,3.483 C -2.623,3.394 -4.394,5.165 -3.483,5.474 -3.135,4.001 -0.622,4.683 -0.498,2.985 -1.199,2.856 -1.065,1.891 -1.493,1.488 -1.821,-5.886 -1.438,1.08 -2.488,2.985 c 0.388,0.111 0.98,0.016 0.995,0.498 m -5.971,16.918 -1.99,0 c 0.064,1.229 0.074,2.399 -0.498,2.986 1.757,-0.169 1.284,-1.304 0.995,-2.488 0.717,0.552 1.214,0.538 1.493,-0.498 m -1.493,30.851 c 1.075,-1.12 -3.159,2.921 -1.493,3.981 0.438,-1.388 1.19,-2.463 1.493,-3.981 m -3.981,-18.913 c 1.921,0.094 2.862,-0.787 2.986,-2.488 -1.95,1.065 -0.363,-3.876 -1.493,-1.986 0.274,2.26 -0.253,3.727 -1.493,4.474 m -4.976,3.488 c 1.294,0.323 1.304,0.333 1.991,1.985 0.069,-0.92 0.328,-1.662 0.995,-1.985 0.095,1.776 -2.781,3.15 -0.995,4.976 0.498,-2.329 2.602,-5.678 2.488,-6.967 -1.05,1.663 -4.344,0.618 -4.479,1.991 m -0.497,3.981 c 1.115,1.308 -2.194,2.428 -1.99,4.478 1.651,-1.015 4.304,-3.638 2.985,-5.971 -0.08,0.587 0.085,1.413 -0.498,1.493 0,-0.284 -0.402,-0.573 -0.497,0 m -8.957,-4.484 c 1.553,0.806 -1.02,1.583 -0.995,2.488 5.777,0.737 3.613,-4.652 4.976,-7.458 0.548,1.895 -1.319,3.099 0.498,3.482 -0.732,-2.552 1.856,-8.065 -0.498,-7.463 0.702,0.532 0.488,4.398 -1.492,2.985 0.124,1.274 -1.966,3.125 0,1.991 l 0,1.492 c -1.245,-0.059 -1.558,-0.955 -1.991,0.498 0.418,0.318 1.558,2.324 0.497,2.488 0.15,-0.806 -0.671,-1.344 -0.995,-0.503 m 12.44,-28.86 c 0.757,-1.074 1.349,-4.085 2.488,-5.966 1.378,-2.279 3.085,-3.742 3.483,-5.474 l 12.937,0 c 0.916,0.697 -0.781,2.418 0.498,3.484 1.065,-0.309 0.468,-3.066 0,-3.484 l 4.479,0 c -0.931,7.972 4.214,10.962 1.99,17.914 -0.045,0.139 -0.289,0.204 -0.567,0.253 -0.095,-1.477 -0.14,-2.871 -0.095,-4.15 -0.109,1.408 -0.279,2.827 -0.508,4.25 -0.159,0.029 -0.283,0.074 -0.323,0.145 -0.781,1.243 -2.448,7.388 -1.99,8.458 0.104,0.244 0.164,0.488 0.194,0.742 -0.364,1.268 -0.757,2.528 -1.17,3.777 -0.552,0.97 -1.179,1.92 -1.592,2.776 0,0 -0.005,0 -0.005,0.005 -0.209,0.194 -0.353,0.458 -0.393,0.821 -1.99,3.174 -1.115,8.484 -4.498,10.788 0.199,-0.135 -0.363,-1.244 -0.498,-0.995 -0.542,0.975 -0.044,2.398 -0.497,3.483 -1.488,3.538 -4.672,3.995 -4.479,6.966 -0.109,-0.393 -0.014,-0.98 -0.497,-0.995 -1.597,5.682 -3.394,5.722 -7.464,11.439 0.632,-2.681 3.931,-4.602 0.995,-5.468 3.16,-5.135 6.394,-10.191 8.957,-15.923 -2.638,1.702 -3.319,4.697 -3.981,7.464 -1.911,-0.1 -4.06,7.016 -5.474,5.971 1.523,2.095 -2.179,1.752 0,2.981 -1.975,0.627 -4.826,4.184 -3.482,4.975 -1.628,0.597 -4.265,-1.846 -3.484,-0.493 0.588,0.234 1.13,0.533 1.493,0.996 -3.035,-0.149 -2.597,2.338 -2.488,2.985 -1.398,-1.567 -1.363,1.289 -2.488,0 0.259,-0.472 2.234,-1.651 0.995,-1.99 -2.707,1.632 -0.164,2.831 -1.99,4.478 -0.05,-0.781 0.065,-1.726 -0.995,-1.492 -1.802,3.01 -4.175,5.448 -6.966,7.463 5.398,-7.668 16.206,-13.927 12.439,-25.377 1.821,-0.104 1.896,-2.657 2.986,-4.976 -2.364,2.722 -3.936,4.056 -4.976,5.972 -0.587,-1.409 -2.314,-1.667 -3.483,-2.488 1.224,-1.279 4.981,-2.628 3.483,-4.976 -1.388,0.438 -1.179,2.468 -2.985,2.488 0.771,-1.767 -1.692,-0.299 -1.494,-1.493 1.912,0.084 1.374,-1.682 0.996,-1.99 -0.194,0.711 -0.597,0.84 0,1.492 -2.852,-0.741 1.149,-2.652 0,-2.985 -1.553,0.935 -3.961,1.015 -3.981,3.483 -0.199,1.194 2.264,-0.274 1.493,1.493 -1.035,-1.09 -1.607,0.433 -2.488,-0.503 0.378,1.592 0.731,2.438 -0.498,1 -4.264,12.156 -10.15,22.691 -15.425,33.837 -0.871,-2.792 2.145,-3.469 0.498,-5.474 1.617,-2.792 5.11,-6.17 6.966,-9.952 0.323,-0.662 -0.279,-1.901 0,-2.488 2.488,-5.234 5.07,-10.041 7.464,-16.42 3.517,-9.385 5.966,-16.371 9.952,-24.382 1.796,-3.613 5.966,-10.007 5.971,-11.947 0,-0.712 -1.204,0 -0.995,-0.493 0.233,-0.563 1.492,-0.09 1.492,-0.005"
                   style="fill:#373535;fill-opacity:1;fill-rule:nonzero;stroke:none"
                   id="path3250" /></g><g
                 transform="translate(123.7783,136.7271)"
                 id="g3252"><path
                   d="m 0,0 c 0.199,-1.194 -2.264,0.274 -1.493,-1.493 1.732,0.239 3.08,0.095 2.488,-1.99 1.662,0.532 0.03,1.508 0.995,2.981 -0.726,1.159 -1.577,-0.971 -1.492,1 C -0.393,0.637 -0.522,0.025 0,0"
                   style="fill:#373535;fill-opacity:1;fill-rule:nonzero;stroke:none"
                   id="path3254" /></g><g
                 transform="translate(123.2759,172.9668)"
                 id="g3256"><path
                   d="M 0,0 C -0.159,-1.921 4.508,-3.085 5.479,-5.389 5.757,-3.473 1.821,-1.637 0.099,-0.005 0.069,0 0.035,0 0,0"
                   style="fill:#373535;fill-opacity:1;fill-rule:nonzero;stroke:none"
                   id="path3258" /></g><g
                 transform="translate(123.2808,173.0513)"
                 id="g3260"><path
                   d="m 0,0 c -0.005,-0.03 -0.01,-0.055 -0.005,-0.084 0.035,0 0.069,0 0.099,-0.005 C 0.06,-0.06 0.03,-0.03 0,0"
                   style="fill:#ffffff;fill-opacity:1;fill-rule:nonzero;stroke:none"
                   id="path3262" /></g><g
                 transform="translate(126.2661,175.0415)"
                 id="g3264"><path
                   d="M 0,0 C -0.443,-0.388 -1.125,-0.537 -1.99,-0.498 -0.97,-1.304 0.906,-1.249 1.493,-2.488 2.966,-1.617 -0.413,-1.458 0,0"
                   style="fill:#6e6f6f;fill-opacity:1;fill-rule:nonzero;stroke:none"
                   id="path3266" /></g><g
                 transform="translate(126.2661,105.374)"
                 id="g3268"><path
                   d="M 0,0 C 2.896,-0.13 0.607,1.821 2.488,2.488 2.414,0 3.334,-1.428 1.493,-2.98 2.816,-2.812 3.234,-1.736 4.479,-1.488 4.911,-3.413 2.304,-2.299 2.986,-4.474 3.493,-4.538 3.991,-2.329 4.479,-3.976 4.1,-4.757 2.901,-4.717 2.986,-5.966 c 1.985,0.144 2.244,-6.051 0.234,-6.449 1.995,0.075 1.034,-2.807 1.259,-4.498 l 0.497,0 c 0.373,2.886 0.458,5.961 0,8.459 1.179,0.135 1.567,-3.016 2.985,-0.995 -0.855,-0.026 -1.273,0.383 -1.492,0.995 0.577,0.418 1.333,0.651 2.488,0.498 0.682,-1.135 -1.284,-1.871 0,-1.991 1.264,2.433 1.896,1.687 -0.996,2.986 0.747,0.079 1.837,-0.18 1.991,0.497 -1.025,0.304 -3.458,-0.806 -2.986,0.995 0.836,0.23 1.876,1.543 2.489,-0.497 0.039,1.701 -0.379,4.448 -1.991,2.986 -0.318,1.084 1.408,1.582 -0.498,1.492 C 9.325,1.354 5.802,3.498 3.981,3.985 5.653,3.638 5.613,5.006 6.469,5.479 5.046,6.623 5.339,10.161 2.488,11.947 1.583,10.33 1.966,10.514 1.493,8.464 2.07,8.882 2.827,9.121 3.981,8.961 3.707,8.24 4.563,6.389 3.483,6.474 3.558,8.703 0.354,7.658 -0.498,8.961 0.503,6.568 2.418,7.33 3.981,4.976 3.085,5.041 2.816,4.488 2.986,3.488 2.239,3.403 1.149,3.667 0.995,2.99 1.279,1.373 0.846,0.487 0,0"
                   style="fill:#6e6f6f;fill-opacity:1;fill-rule:nonzero;stroke:none"
                   id="path3270" /></g><g
                 transform="translate(126.2661,203.9019)"
                 id="g3272"><path
                   d="M 0,0 C 1.244,-1.05 2.802,1.821 5.474,0.995 3.866,2.408 1.344,0.502 0,0"
                   style="fill:#6e6f6f;fill-opacity:1;fill-rule:nonzero;stroke:none"
                   id="path3274" /></g><g
                 transform="translate(139.7012,174.5439)"
                 id="g3276"><path
                   d="m 0,0 c -3.871,-0.652 -8.981,1.269 -12.938,0.995 1.593,-2.388 6.873,-1.089 7.962,-3.98 0.846,-0.184 0.94,0.388 0.996,0.995 C 6.533,-5.08 14.873,-10.335 21.396,-17.416 16.645,-9.395 7.041,-1.92 -3.483,1.99 -4.872,0.731 -1.03,0.493 0,0"
                   style="fill:#e1e1e1;fill-opacity:1;fill-rule:nonzero;stroke:none"
                   id="path3278" /></g><g
                 transform="translate(133.73,118.3115)"
                 id="g3280"><path
                   d="M 0,0 C -1.1,0.886 -1.129,2.473 0,3.488 0,2.597 1.339,0.592 0,0 m -1.99,1 c -0.732,2.662 0.089,4.638 -1.99,6.464 1.328,0 1.079,1.577 2.487,1.497 C -2.453,7.046 -0.562,3.951 -1.99,1 m -1.493,14.425 c -0.398,-1.423 -3.339,-0.308 -2.986,-2.488 1.553,1.174 2.628,0.239 3.981,1.001 0.234,-1.558 -1.249,-1.404 -1.99,-1.991 0.219,-0.941 -0.677,-3.001 0.995,-2.488 1,1.015 -0.219,0.975 -0.497,1.99 -0.09,0.424 0.193,0.468 0.497,0.498 0.672,-0.488 0.995,-1.334 1.493,-1.99 C -2.149,9.379 -3.528,7.608 -3.98,8.961 -5.603,7.932 -2.931,2.602 -5.971,2.99 c 0.124,-0.632 0.99,-0.502 0.995,0 1.846,-0.945 3.379,-4.393 5.474,-3.483 -0.647,-1.234 1.458,-2.065 0,-2.488 1.93,0.194 4.179,-2.493 5.971,-3.98 -2.269,0.129 -1.264,-0.234 -1.493,-0.498 0.119,-2.483 7.548,-3.672 7.464,-6.469 0.706,0.045 1.408,0.085 1.493,-0.498 0.791,2.464 -3.956,3.668 -4.976,5.972 0.726,1.169 2.662,-0.612 2.985,-1.493 1.15,1.508 -3.816,3.787 -4.478,3.483 -1.174,0.423 1.369,1.224 0.497,2.985 -1.905,0.09 -0.179,-0.412 -0.497,-1.497 -1.334,1.274 -4.389,0.502 -4.976,4.483 1.075,-1.249 3.334,-1.308 3.981,-2.986 0.398,0.264 0.806,0.518 1.492,0.498 C 5.568,-1.423 5.742,2.527 2.488,1.995 1.767,3.876 3.856,2.951 3.483,4.483 2.832,3.886 2.702,4.289 1.991,4.483 1.926,5.374 2.598,5.533 2.488,6.474 2.085,6.379 1.991,5.976 1.493,5.976 c 0.343,4.911 -0.841,4.911 -0.498,0 -0.95,1.602 -0.716,3.274 -0.497,4.976 -0.807,0.139 -0.856,-0.473 -1.493,-0.503 -1.06,2.165 1.866,5.583 -0.995,4.976 0.015,0.488 0.607,0.388 0.995,0.503 -0.871,1.318 -1.035,0.507 -2.488,1.492 0.323,0.508 1.145,0.508 0.995,1.493 -1.562,-0.244 -1.313,1.717 -2.488,0.498 0.901,-0.757 -0.094,-3.413 1.991,-2.986 -0.284,-0.467 -1.384,-0.756 -0.498,-1"
                   style="fill:#373535;fill-opacity:1;fill-rule:nonzero;stroke:none"
                   id="path3282" /></g><g
                 transform="translate(129.252,92.9395)"
                 id="g3284"><path
                   d="M 0,0 C 0.075,0 0.149,0.005 0.224,0.02 0.154,0.02 0.08,0.01 0,0"
                   style="fill:#ffffff;fill-opacity:1;fill-rule:nonzero;stroke:none"
                   id="path3286" /></g><g
                 transform="translate(129.7495,125.7754)"
                 id="g3288"><path
                   d="M 0,0 C 2.08,-1.826 1.259,-3.802 1.99,-6.464 3.418,-3.513 1.527,-0.418 2.488,1.498 1.08,1.577 1.329,0 0,0"
                   style="fill:#6e6f6f;fill-opacity:1;fill-rule:nonzero;stroke:none"
                   id="path3290" /></g><g
                 transform="translate(131.2422,200.9165)"
                 id="g3292"><path
                   d="m 0,0 c 0.06,-1.751 0.727,-0.135 1.99,-0.996 -1.433,-0.462 -0.746,-2.483 0,-3.483 2.742,0.647 0.179,3.081 0.995,3.976 1.24,-0.413 2.667,-0.646 4.479,-0.493 C 5.812,0.338 3.976,1.482 0.995,1.493 -0.617,0.92 2.333,0.93 2.985,0.995 2.662,0.482 1.841,0.482 1.99,-0.503 1.03,0.418 1.597,0.413 0,0"
                   style="fill:#e1e1e1;fill-opacity:1;fill-rule:nonzero;stroke:none"
                   id="path3294" /></g><g
                 transform="translate(132.2373,91.9443)"
                 id="g3296"><path
                   d="m 0,0 c -0.886,-1.339 2.189,-0.961 0.498,-1.493 0.736,-0.19 1.925,0.766 3.483,-0.503 0.363,0.468 0.905,0.762 1.493,1.001 C 4.07,0.482 3.085,-0.593 0,0"
                   style="fill:#6e6f6f;fill-opacity:1;fill-rule:nonzero;stroke:none"
                   id="path3298" /></g><g
                 transform="translate(130.7446,170.5635)"
                 id="g3300"><path
                   d="M 0,0 C 1.329,-1.493 3.359,-2.284 4.478,-3.981 5.036,-2.573 1.826,-0.677 0,0"
                   style="fill:#373535;fill-opacity:1;fill-rule:nonzero;stroke:none"
                   id="path3302" /></g><g
                 transform="translate(133.73,121.7993)"
                 id="g3304"><path
                   d="M 0,0 C -1.129,-1.015 -1.1,-2.602 0,-3.488 1.339,-2.896 0,-0.891 0,0"
                   style="fill:#6e6f6f;fill-opacity:1;fill-rule:nonzero;stroke:none"
                   id="path3306" /></g><g
                 transform="translate(136.7158,112.8428)"
                 id="g3308"><path
                   d="M 0,0 C -0.771,0.557 -1.035,1.617 -2.488,1.493 -1.96,-0.538 -0.926,0.518 0,-1.493 0.677,-1.338 0.413,-0.249 0.498,0.493 0.074,0.587 0.03,0.304 0,0"
                   style="fill:#373535;fill-opacity:1;fill-rule:nonzero;stroke:none"
                   id="path3310" /></g><g
                 transform="translate(158.1118,169.563)"
                 id="g3312"><path
                   d="M 0,0 C -0.94,-0.104 -1.1,0.567 -1.99,0.503 -1.269,2.259 -3.309,5.294 -1.493,4.981 -0.746,3.568 -0.935,1.224 0,0 m -5.971,0.503 c -0.134,1.388 -3.951,1.652 -2.488,2.985 0.498,-1.517 0.821,-0.636 1.493,0 -0.498,-1.542 2.647,-1.93 0.995,-2.985 m -6.966,6.468 c 1.458,0.424 -0.299,1.603 0,2.488 2.358,-0.129 3.378,-1.597 4.976,-2.488 0.318,1.085 -1.409,1.583 0.497,1.493 C -6.429,8.32 -8.2,7.116 -6.468,6.971 -6.389,7.559 -6.553,8.385 -5.971,8.464 -5.941,6.16 -1.373,5.782 -3.483,2.991 -4.777,3.354 -4.787,5.006 -5.473,5.976 -5.916,4.523 -6.11,4.26 -4.976,3.488 -8.404,3.876 -10.17,5.926 -12.937,6.971 m 8.086,3.902 c 2.567,-1.608 -0.299,4.841 -3.11,4.552 0.597,-1.552 2.015,-2.294 2.985,-3.478 -0.91,-0.552 -3.224,1.732 -3.981,2.986 0.523,3.125 3.31,3.99 4.977,5.971 -0.528,1.13 -3.13,0.189 -4.479,0.497 2.254,-3.99 -2.503,-4.169 -2.488,-7.463 1.468,1.318 1.732,-1.583 2.488,-2.488 -0.273,-0.717 -2.886,0.388 -3.98,0.497 -1.18,-1.806 -5.121,-0.851 -5.972,-2.985 -1.433,-0.06 -3.259,0.273 -3.98,-0.498 -2.881,0.269 -1.727,-0.89 0.497,-0.503 0.891,-0.064 1.05,0.613 1.991,0.503 9.638,-4.622 15.709,-10.758 22.889,-18.411 -0.14,-0.811 0.472,-0.861 0.497,-1.492 0.562,0.094 0.279,0.497 0,0.497 -0.856,2.463 -1.866,4.772 -3.981,5.966 1.912,0.578 3.752,-3.199 5.474,-4.473 0.463,0.363 0.752,0.906 0.995,1.492 1.548,0.508 2.15,-3.965 2.488,-1.492 0.886,-0.364 0.07,-0.905 0,-1.493 -1.035,0.294 -1.696,0.956 -1.99,1.99 -0.662,0.075 -1.503,-2.025 -1.99,-0.497 -1.175,-0.727 1.766,-1.518 2.985,-1.493 -1.08,-1.612 -1.11,-0.268 -2.488,0 0.781,-1.542 1.383,-3.259 2.985,-3.98 0.006,1.323 -0.189,2.84 0.498,3.483 1.02,-0.14 0.996,-1.329 1.493,-1.991 -1.971,1.219 -1.025,0.971 -0.497,-0.995 0.611,0.219 1.02,0.637 0.995,1.488 1.647,-0.742 -1.035,-1.214 -0.498,-2.488 0.443,0.224 0.891,0.443 0.995,1 -0.034,-0.662 -0.701,-2.816 0.995,-3.981 0.891,-0.064 1.05,0.607 1.991,0.493 -1.722,-1.065 -0.125,-0.796 0.995,-1.488 -0.204,-1.682 -1.931,1.324 -1.493,-1 3.045,0.035 1.179,-3.09 3.981,-3.976 -0.1,0.796 -0.244,1.567 -0.428,2.309 -0.025,0.06 -0.045,0.119 -0.07,0.179 -0.01,0.06 -0.015,0.119 -0.02,0.174 C 14.411,-12.439 5.568,-7.14 1.991,1.996 1.498,0.483 4.13,-2.154 4.976,-3.976 -0.323,-1.05 0.194,7.688 -4.851,10.873"
                   style="fill:#e1e1e1;fill-opacity:1;fill-rule:nonzero;stroke:none"
                   id="path3314" /></g><g
                 transform="translate(140.1987,131.2485)"
                 id="g3316"><path
                   d="M 0,0 C -0.025,-0.905 2.548,-1.682 0.995,-2.488 1.319,-3.329 2.14,-2.792 1.99,-1.985 3.05,-2.149 1.911,-4.155 1.493,-4.473 1.926,-5.926 2.239,-5.03 3.483,-4.971 l 0,-1.492 c -1.965,1.134 0.124,-0.717 0,-1.991 1.98,1.413 2.195,-2.453 1.493,-2.985 2.354,-0.603 -0.234,4.911 0.498,7.463 C 3.657,-4.359 5.523,-5.563 4.976,-7.458 3.613,-4.652 5.777,0.737 0,0"
                   style="fill:#6e6f6f;fill-opacity:1;fill-rule:nonzero;stroke:none"
                   id="path3318" /></g><g
                 transform="translate(134.7251,205.8921)"
                 id="g3320"><path
                   d="M 0,0 C 4.334,-2.572 8.624,-2.154 10.45,-6.966 10.206,-3.389 5.354,-0.124 0,0"
                   style="fill:#6e6f6f;fill-opacity:1;fill-rule:nonzero;stroke:none"
                   id="path3322" /></g><g
                 transform="translate(145.1748,179.0225)"
                 id="g3324"><path
                   d="M 0,0 C -0.299,-0.886 1.458,-2.065 0,-2.488 2.767,-3.533 4.533,-5.583 7.961,-5.971 6.827,-5.2 7.021,-4.936 7.464,-3.483 8.15,-4.454 8.16,-6.105 9.454,-6.469 11.564,-3.677 6.996,-3.299 6.966,-0.995 6.384,-1.075 6.548,-1.901 6.469,-2.488 4.737,-2.344 6.508,-1.14 5.473,-0.995 3.567,-0.906 5.294,-1.403 4.976,-2.488 3.378,-1.597 2.358,-0.129 0,0"
                   style="fill:#373535;fill-opacity:1;fill-rule:nonzero;stroke:none"
                   id="path3326" /></g><g
                 transform="translate(148.1602,137.7222)"
                 id="g3328"><path
                   d="m 0,0 c -0.204,-2.05 3.105,-3.169 1.99,-4.478 0.095,-0.572 0.498,-0.284 0.498,0 C 3.07,-4.558 2.906,-5.384 2.986,-5.971 4.304,-3.637 1.652,-1.015 0,0"
                   style="fill:#6e6f6f;fill-opacity:1;fill-rule:nonzero;stroke:none"
                   id="path3330" /></g><g
                 transform="translate(149.6528,173.0513)"
                 id="g3332"><path
                   d="M 0,0 C -1.463,-1.333 2.354,-1.597 2.488,-2.985 4.14,-1.931 0.995,-1.542 1.493,0 0.821,-0.637 0.498,-1.518 0,0"
                   style="fill:#373535;fill-opacity:1;fill-rule:nonzero;stroke:none"
                   id="path3334" /></g><g
                 transform="translate(149.6528,198.4282)"
                 id="g3336"><path
                   d="m 0,0 0,-3.98 c 1.349,-0.309 3.951,0.631 4.479,-0.498 1.537,1.97 -0.075,4.025 1.492,5.971 C 3.961,1.015 2.01,0.478 0,0"
                   style="fill:#ffffff;fill-opacity:1;fill-rule:nonzero;stroke:none"
                   id="path3338" /></g><g
                 transform="translate(150.6479,186.9839)"
                 id="g3340"><path
                   d="M 0,0 C -0.885,-1.787 3.369,-2.1 3.483,-4.483 4.458,-3.787 2.438,-1.906 2.488,-0.498 1.16,-1.871 1.408,0.089 0,0"
                   style="fill:#6e6f6f;fill-opacity:1;fill-rule:nonzero;stroke:none"
                   id="path3342" /></g><g
                 transform="translate(152.6387,131.2485)"
                 id="g3344"><path
                   d="M 0,0 C -0.687,-1.652 -0.697,-1.662 -1.991,-1.985 -1.856,-3.358 1.438,-2.313 2.488,-3.976 2.602,-2.687 0.498,0.662 0,2.991 -1.787,1.165 1.089,-0.209 0.995,-1.985 0.328,-1.662 0.069,-0.92 0,0"
                   style="fill:#6e6f6f;fill-opacity:1;fill-rule:nonzero;stroke:none"
                   id="path3346" /></g><g
                 transform="translate(152.1411,98.4131)"
                 id="g3348"><path
                   d="M 0,0 C 0.094,-0.239 0.209,-0.453 0.353,-0.643 0.239,-0.429 0.119,-0.215 0,0"
                   style="fill:#ffffff;fill-opacity:1;fill-rule:nonzero;stroke:none"
                   id="path3350" /></g><g
                 transform="translate(155.1265,189.4717)"
                 id="g3352"><path
                   d="M 0,0 C -0.965,0.329 0.582,-2.587 1.99,-3.483 5.458,-5.692 1.154,-1.851 0,0"
                   style="fill:#6e6f6f;fill-opacity:1;fill-rule:nonzero;stroke:none"
                   id="path3354" /></g><g
                 transform="translate(158.6099,123.2871)"
                 id="g3356"><path
                   d="M 0,0 C -0.125,1.702 -1.065,2.583 -2.986,2.488 -1.747,1.742 -1.219,0.274 -1.493,-1.985 -0.363,-3.876 -1.951,1.065 0,0"
                   style="fill:#6e6f6f;fill-opacity:1;fill-rule:nonzero;stroke:none"
                   id="path3358" /></g><g
                 transform="translate(156.1216,170.0659)"
                 id="g3360"><path
                   d="M 0,0 C 0.891,0.064 1.05,-0.607 1.99,-0.503 1.055,0.721 1.244,3.065 0.498,4.478 -1.318,4.792 0.722,1.756 0,0"
                   style="fill:#373535;fill-opacity:1;fill-rule:nonzero;stroke:none"
                   id="path3362" /></g><g
                 transform="translate(157.6143,194.4478)"
                 id="g3364"><path
                   d="M 0,0 C -1.224,-0.936 1.344,-2.274 0.996,-3.981 2.279,-2.986 0.483,-0.876 0,0"
                   style="fill:#ffffff;fill-opacity:1;fill-rule:nonzero;stroke:none"
                   id="path3366" /></g><g
                 transform="translate(158.1118,148.6694)"
                 id="g3368"><path
                   d="M 0,0 C -1.667,-1.06 2.568,-5.101 1.493,-3.981 1.189,-2.463 0.438,-1.388 0,0"
                   style="fill:#ffffff;fill-opacity:1;fill-rule:nonzero;stroke:none"
                   id="path3370" /></g><g
                 transform="translate(158.5298,153.7798)"
                 id="g3372"><path
                   d="M 0,0 C -0.015,0.035 -0.024,0.064 -0.04,0.094 -0.04,0.08 -0.03,0.049 0,0"
                   style="fill:#ffffff;fill-opacity:1;fill-rule:nonzero;stroke:none"
                   id="path3374" /></g><g
                 transform="translate(158.6099,153.645)"
                 id="g3376"><path
                   d="M 0,0 C -0.03,0.045 -0.055,0.09 -0.08,0.135 -0.065,0.1 -0.04,0.055 0,0"
                   style="fill:#ffffff;fill-opacity:1;fill-rule:nonzero;stroke:none"
                   id="path3378" /></g><g
                 transform="translate(153.1362,187.979)"
                 id="g3380"><path
                   d="M 0,0 C 1.856,-3.643 9.927,-9.628 13.933,-14.43 11.942,-8.952 3.985,-5.14 0,0"
                   style="fill:#ffffff;fill-opacity:1;fill-rule:nonzero;stroke:none"
                   id="path3382" /></g><g
                 transform="translate(159.1074,113.8379)"
                 id="g3384"><path
                   d="M 0,0 1.99,0 C 1.711,1.035 1.214,1.05 0.498,0.498 0.786,1.682 1.259,2.816 -0.498,2.986 0.074,2.398 0.064,1.229 0,0"
                   style="fill:#6e6f6f;fill-opacity:1;fill-rule:nonzero;stroke:none"
                   id="path3386" /></g><g
                 transform="translate(165.0781,98.9102)"
                 id="g3388"><path
                   d="M 0,0 C -0.911,-0.309 0.861,-2.08 1.991,-1.99 1.976,-2.473 1.383,-2.378 0.995,-2.488 c 1.05,-1.906 0.667,-8.871 0.996,-1.497 0.427,0.402 0.293,1.368 0.995,1.497 C 2.861,-0.791 0.349,-1.473 0,0"
                   style="fill:#6e6f6f;fill-opacity:1;fill-rule:nonzero;stroke:none"
                   id="path3390" /></g><g
                 transform="translate(169.5566,167.0752)"
                 id="g3392"><path
                   d="M 0,0 C -0.269,2.035 -3.647,6.324 -1.493,2.991 -0.821,1.956 -1.229,1.165 0,0"
                   style="fill:#6e6f6f;fill-opacity:1;fill-rule:nonzero;stroke:none"
                   id="path3394" /></g><g
                 transform="translate(169.5566,95.4268)"
                 id="g3396"><path
                   d="M 0,0 C -0.622,2.424 -2.279,-1.089 -0.995,-1.99 1.572,-1.682 -2.488,0.09 0,0"
                   style="fill:#6e6f6f;fill-opacity:1;fill-rule:nonzero;stroke:none"
                   id="path3398" /></g><g
                 transform="translate(172.0444,248.6851)"
                 id="g3400"><path
                   d="M 0,0 0,-0.995 C 1.762,-0.727 2.563,-1.418 2.986,-2.488 4.29,-1.632 1.553,-0.642 1.991,0.995 1.528,0.632 1.239,0.089 0.995,-0.498 0.513,-0.483 0.607,0.104 0.498,0.493 0.075,0.587 0.03,0.298 0,0"
                   style="fill:#6e6f6f;fill-opacity:1;fill-rule:nonzero;stroke:none"
                   id="path3402" /></g><g
                 transform="translate(172.542,88.4609)"
                 id="g3404"><path
                   d="m 0,0 0.498,0 c 0.467,0.418 1.064,3.175 0,3.483 C -0.781,2.418 0.916,0.696 0,0"
                   style="fill:#6e6f6f;fill-opacity:1;fill-rule:nonzero;stroke:none"
                   id="path3406" /></g><g
                 transform="translate(173.0396,123.79)"
                 id="g3408"><path
                   d="M 0,0 C -0.005,-0.12 0,-0.234 0.02,-0.338 0.06,-0.408 0.104,-0.473 0.149,-0.542 0.085,-0.354 0.035,-0.174 0,0"
                   style="fill:#373535;fill-opacity:1;fill-rule:nonzero;stroke:none"
                   id="path3410" /></g><g
                 transform="translate(173.189,123.2476)"
                 id="g3412"><path
                   d="M 0,0 C -0.045,0.069 -0.089,0.134 -0.129,0.204 -0.089,-0.159 0.055,-0.423 0.264,-0.617 0.164,-0.408 0.075,-0.199 0,0"
                   style="fill:#ffffff;fill-opacity:1;fill-rule:nonzero;stroke:none"
                   id="path3414" /></g><g
                 transform="translate(173.189,123.2476)"
                 id="g3416"><path
                   d="m 0,0 c 0.075,-0.199 0.164,-0.408 0.264,-0.617 0,-0.005 0.005,-0.005 0.005,-0.005 C 0.428,-0.767 0.622,-0.871 0.846,-0.951 0.518,-0.667 0.239,-0.349 0,0"
                   style="fill:#373535;fill-opacity:1;fill-rule:nonzero;stroke:none"
                   id="path3418" /></g><g
                 transform="translate(175.0103,147.8481)"
                 id="g3420"><path
                   d="M 0,0 C 0.005,-0.055 0.01,-0.114 0.02,-0.174 0.045,-0.234 0.064,-0.293 0.089,-0.353 0.06,-0.234 0.03,-0.114 0,0"
                   style="fill:#373535;fill-opacity:1;fill-rule:nonzero;stroke:none"
                   id="path3422" /></g><g
                 transform="translate(176.0254,115.3306)"
                 id="g3424"><path
                   d="M 0,0 C -0.458,-1.07 1.209,-7.215 1.99,-8.458 2.03,-8.529 2.154,-8.574 2.313,-8.603 1.831,-5.483 1.09,-2.349 0.194,0.742 0.164,0.488 0.104,0.244 0,0"
                   style="fill:#6e6f6f;fill-opacity:1;fill-rule:nonzero;stroke:none"
                   id="path3426" /></g><g
                 transform="translate(175.0498,119.8491)"
                 id="g3428"><path
                   d="M 0,0 C 0.413,-1.249 0.806,-2.508 1.169,-3.777 1.324,-2.578 0.722,-1.269 0,0"
                   style="fill:#ffffff;fill-opacity:1;fill-rule:nonzero;stroke:none"
                   id="path3430" /></g><g
                 transform="translate(178.9414,106.6279)"
                 id="g3432"><path
                   d="m 0,0 c -0.204,0.035 -0.423,0.06 -0.603,0.1 0.229,-1.423 0.399,-2.842 0.508,-4.25 -0.045,1.279 0,2.672 0.095,4.15"
                   style="fill:#ffffff;fill-opacity:1;fill-rule:nonzero;stroke:none"
                   id="path3434" /></g></g></g></g></g></g></g></svg>