<?xml version="1.0" encoding="utf-8"?>
<!-- Generator: Adobe Illustrator 16.0.0, SVG Export Plug-In . SVG Version: 6.00 Build 0)  -->
<!DOCTYPE svg PUBLIC "-//W3C//DTD SVG 1.1//EN" "http://www.w3.org/Graphics/SVG/1.1/DTD/svg11.dtd">
<svg version="1.1" id="Isolation_Mode" xmlns="http://www.w3.org/2000/svg" xmlns:xlink="http://www.w3.org/1999/xlink" x="0px"
	 y="0px" width="157.048px" height="32.52px" viewBox="0 0 157.048 32.52" enable-background="new 0 0 157.048 32.52"
	 xml:space="preserve">
<g>
	<g>
		<path fill="#FFC60B" d="M25.2,4.707l-1.655-1.236c0,0-9.331-1.084-13.535,4.426c0,0,3.718-3.544,10.933,2.158L25.2,4.707z"/>
		<path fill="#FFC60B" d="M0,25.822l2.073,1.87c0,0,10.917,2.73,14.76-3.646c0,0-3.461,2.923-11.647-3.4L0,25.822z"/>
		<path fill="#333333" d="M20.322,14.215L20.322,14.215c0.001,0-1.17-0.493-4.376-1.342c0,0-1.61-0.409-2.61-0.653
			c-1.392-0.417-3.537-1.307-3.904-2.896c-0.07-0.307-0.083-0.637-0.023-0.996c0,0,0.035-0.122,0.029-0.123
			C9.496,8,9.59,7.775,9.733,7.536C9.768,7.48,9.805,7.427,9.841,7.372C9.853,7.354,9.863,7.338,9.875,7.32c0,0,0-0.001-0.001-0.001
			c3.598-5.387,13.122-4.271,13.122-4.271c0.006-0.007,0.011-0.016,0.016-0.023c-0.363-0.26-0.791-0.539-1.279-0.818
			c-0.002-0.002-0.003-0.002-0.003-0.002h-0.001c-1.522-0.874-3.641-1.748-6.302-2.04l0.001-0.001c0,0-8.703-1.578-13.157,5.075
			h0.001C1.446,6.436,0.867,7.893,0.867,9.631c0,0-0.089,1.592,0.634,3.427l0,0c1.37,3.639,4.677,4.601,4.677,4.601l0.001-0.001
			c0.198,0.077,0.402,0.152,0.614,0.221c0.949,0.354,2.244,0.778,4.009,1.273c0,0,0.659,0.177,1.484,0.394
			c0.343,0.09,0.715,0.186,1.079,0.28c0.708,0.195,1.231,0.365,1.618,0.51c0.139,0.054,0.324,0.133,0.529,0.238
			c0.301,0.163,0.767,0.45,1.163,0.845c0.003-0.003,0.006-0.004,0.008-0.006c0.925,0.952,1.336,2.537-1.233,4.922
			c-0.052,0.05-0.104,0.097-0.157,0.144c-0.038,0.035-0.077,0.069-0.116,0.104c-4.801,4.172-12.74,1.594-12.74,1.594
			c1.097,0.939,2.906,1.771,2.906,1.771h0.004c0.08,0.039,0.159,0.08,0.243,0.12c0.835,0.438,1.82,0.86,2.949,1.191
			c0,0,0.11,0.033,0.312,0.084c0.275,0.075,0.557,0.146,0.85,0.209c0.003,0.001,0.006,0.002,0.009,0.002l0,0
			c1.114,0.238,2.346,0.378,3.689,0.366c3.362,0.035,7.76-0.811,10.79-4.715c1.001-1.275,1.743-2.883,1.743-4.851
			C25.932,22.354,26.269,16.346,20.322,14.215"/>
	</g>
	<g>
		<path fill="#333333" d="M33.833,15.049l1.025-1.213c1.525,1.38,2.99,2.069,5.016,2.069c1.965,0,3.262-1.046,3.262-2.488v-0.04
			c0-1.36-0.734-2.132-3.805-2.78c-3.367-0.73-4.912-1.817-4.912-4.222V6.333c0-2.299,2.029-3.991,4.809-3.991
			c2.131,0,3.658,0.607,5.141,1.797l-0.963,1.276c-1.357-1.109-2.717-1.59-4.219-1.59c-1.902,0-3.117,1.046-3.117,2.36v0.044
			c0,1.379,0.754,2.152,3.973,2.842c3.258,0.711,4.764,1.902,4.764,4.139v0.04c0,2.509-2.088,4.139-4.994,4.139
			C37.494,17.389,35.591,16.615,33.833,15.049"/>
		<path fill="#333333" d="M50.449,11.057V2.551h1.652v8.401c0,3.156,1.691,4.933,4.473,4.933c2.695,0,4.408-1.631,4.408-4.828V2.551
			h1.652v8.381c0,4.263-2.445,6.479-6.104,6.479C52.916,17.411,50.449,15.194,50.449,11.057"/>
		<path fill="#333333" d="M74.314,10.514c2.426,0,4.014-1.295,4.014-3.219V7.253c0-2.089-1.568-3.177-3.928-3.177h-3.701v6.438
			H74.314z M69.048,2.551h5.477c3.301,0,5.473,1.755,5.473,4.641v0.042c0,3.154-2.633,4.784-5.746,4.784h-3.553v5.162h-1.65V2.551z"
			/>
		<polygon fill="#333333" points="84.109,2.666 94.685,2.666 94.685,4.171 85.757,4.171 85.757,9.166 93.742,9.166 93.742,10.671 
			85.757,10.671 85.757,15.791 94.787,15.791 94.787,17.296 84.109,17.296 		"/>
		<path fill="#333333" d="M105.064,10.127c2.193,0,3.762-1.128,3.762-3.01v-0.04c0-1.798-1.379-2.886-3.742-2.886h-4.514v5.936
			H105.064z M98.919,2.666h6.291c1.797,0,3.24,0.544,4.16,1.463c0.709,0.71,1.127,1.735,1.127,2.885v0.041
			c0,2.425-1.672,3.847-3.971,4.263l4.494,5.979h-2.027l-4.242-5.684h-4.182v5.684h-1.65V2.666z"/>
		<rect x="116.136" y="2.551" fill="#333333" width="1.65" height="14.629"/>
		<path fill="#333333" d="M136.082,10.022V9.981c0-3.324-2.422-6.041-5.768-6.041c-3.342,0-5.725,2.677-5.725,5.999v0.042
			c0,3.323,2.426,6.038,5.768,6.038C133.703,16.02,136.082,13.347,136.082,10.022 M122.876,10.022V9.981
			c0-4.033,3.029-7.566,7.48-7.566s7.441,3.491,7.441,7.524v0.042c0,4.033-3.033,7.565-7.484,7.565S122.876,14.056,122.876,10.022"
			/>
		<path fill="#333333" d="M149.937,10.127c2.195,0,3.764-1.128,3.764-3.01v-0.04c0-1.798-1.379-2.886-3.742-2.886h-4.514v5.936
			H149.937z M143.794,2.666h6.291c1.797,0,3.24,0.544,4.158,1.463c0.711,0.71,1.129,1.735,1.129,2.885v0.041
			c0,2.425-1.672,3.847-3.971,4.263l4.492,5.979h-2.025l-4.244-5.684h-4.18v5.684h-1.65V2.666z"/>
	</g>
	<g>
		<polygon fill="#333333" points="44.214,21.438 47.283,21.438 47.15,21.948 44.642,21.948 44.214,23.702 46.462,23.702 
			46.333,24.211 44.091,24.211 43.656,26.008 46.201,26.008 46.072,26.516 42.974,26.516 		"/>
		<polygon fill="#333333" points="61.888,21.438 64.957,21.438 64.824,21.948 62.316,21.948 61.888,23.702 64.136,23.702 
			64.005,24.211 61.763,24.211 61.33,26.008 63.875,26.008 63.744,26.516 60.648,26.516 		"/>
		<path fill="#333333" d="M69.447,24.674l-0.303-2.588l-1.559,2.588H69.447z M69.021,21.402h0.551l0.674,5.114h-0.566l-0.16-1.343
			h-2.254l-0.816,1.343h-0.602L69.021,21.402z"/>
		<polygon fill="#333333" points="74.175,21.955 72.753,21.955 72.89,21.438 76.291,21.438 76.154,21.955 74.732,21.955 
			73.625,26.516 73.064,26.516 		"/>
		<polygon fill="#333333" points="78.736,21.438 79.291,21.438 78.052,26.516 77.494,26.516 		"/>
		<polygon fill="#333333" points="88.876,21.438 89.398,21.438 91.007,25.522 92.001,21.438 92.544,21.438 91.304,26.516 
			90.847,26.516 89.195,22.331 88.181,26.516 87.636,26.516 		"/>
		<path fill="#333333" d="M97.306,24.674l-0.303-2.588l-1.561,2.588H97.306z M96.878,21.402h0.551l0.676,5.114h-0.568l-0.158-1.343
			h-2.256l-0.816,1.343h-0.602L96.878,21.402z"/>
		<polygon fill="#333333" points="101.693,21.438 102.25,21.438 101.142,26.001 103.476,26.001 103.345,26.516 100.453,26.516 		"/>
		<polygon fill="#333333" points="148.289,21.955 146.869,21.955 147.005,21.438 150.406,21.438 150.267,21.955 148.847,21.955 
			147.736,26.516 147.181,26.516 		"/>
		<path fill="#333333" d="M39.572,24.048c0.586,0,1.006-0.152,1.275-0.422c0.219-0.224,0.332-0.5,0.332-0.841
			c0-0.231-0.07-0.435-0.215-0.573c-0.182-0.188-0.48-0.274-0.893-0.274h-0.957l-0.516,2.11H39.572z M39.556,24.54h-0.174h-0.914
			l-0.471,1.958h-0.559l1.24-5.076h1.438c0.57,0,1.014,0.152,1.297,0.427c0.217,0.234,0.332,0.53,0.332,0.9
			c0,0.484-0.174,0.885-0.457,1.175c-0.283,0.284-0.695,0.457-1.16,0.552l0.877,2.022h-0.621L39.556,24.54z"/>
		<path fill="#333333" d="M151.687,25.681l0.436-0.354c0.369,0.47,0.789,0.761,1.375,0.761c0.576,0,1.025-0.391,1.025-0.886
			c0-0.354-0.219-0.615-0.842-1.008c-0.785-0.5-1.109-0.87-1.109-1.422c0-0.36,0.146-0.688,0.377-0.927
			c0.305-0.305,0.697-0.479,1.195-0.479c0.697,0,1.227,0.349,1.566,0.747l-0.396,0.384c-0.33-0.384-0.727-0.632-1.191-0.632
			c-0.609,0-0.971,0.414-0.971,0.835c0,0.362,0.232,0.61,0.885,1.022c0.717,0.45,1.066,0.834,1.066,1.407
			c0,0.384-0.145,0.717-0.414,0.986c-0.291,0.29-0.727,0.47-1.217,0.47C152.693,26.587,152.087,26.218,151.687,25.681"/>
		<path fill="#333333" d="M111.48,21.955h-0.775l-0.553,2.276h0.77c0.623,0,1.072-0.166,1.355-0.45
			c0.238-0.239,0.348-0.565,0.348-0.936c0-0.267-0.08-0.463-0.232-0.616C112.191,22.025,111.884,21.955,111.48,21.955
			 M110.273,21.438h1.234c0.594,0,1.031,0.133,1.334,0.428c0.232,0.24,0.363,0.553,0.363,0.959c0,0.493-0.174,0.941-0.508,1.276
			c-0.385,0.384-1.002,0.615-1.807,0.615h-0.861l-0.436,1.799h-0.557L110.273,21.438z"/>
		<path fill="#333333" d="M116.939,24.065c0.586,0,1.006-0.152,1.273-0.422c0.221-0.224,0.334-0.5,0.334-0.841
			c0-0.231-0.072-0.436-0.215-0.573c-0.184-0.188-0.48-0.274-0.893-0.274h-0.957l-0.516,2.11H116.939z M116.923,24.558h-0.174
			h-0.916l-0.469,1.958h-0.559l1.24-5.077h1.434c0.574,0,1.018,0.153,1.301,0.428c0.217,0.234,0.332,0.529,0.332,0.9
			c0,0.484-0.176,0.885-0.457,1.175c-0.283,0.283-0.695,0.457-1.16,0.552l0.877,2.022h-0.623L116.923,24.558z"/>
		<path fill="#333333" d="M124.216,25.573c0.521-0.522,0.824-1.443,0.824-2.175c0-0.906-0.49-1.524-1.289-1.524
			c-0.447,0-0.834,0.189-1.152,0.523c-0.523,0.515-0.826,1.429-0.826,2.168c0,0.899,0.492,1.515,1.291,1.515
			C123.511,26.08,123.898,25.893,124.216,25.573 M125.617,23.368c0,0.885-0.355,1.914-0.973,2.538
			c-0.443,0.435-0.994,0.696-1.625,0.696c-1.109,0-1.82-0.833-1.82-2.017c0-0.884,0.355-1.914,0.98-2.529
			c0.434-0.436,0.986-0.697,1.617-0.697C124.912,21.359,125.617,22.193,125.617,23.368"/>
		<path fill="#333333" d="M129.783,21.955h-0.557l-0.988,4.046h0.77c0.688,0,1.268-0.233,1.705-0.661
			c0.477-0.478,0.703-1.21,0.703-1.825c0-0.487-0.139-0.879-0.4-1.14C130.748,22.106,130.326,21.955,129.783,21.955 M128.798,21.438
			h1.021c0.723,0,1.281,0.22,1.645,0.574c0.355,0.348,0.521,0.849,0.521,1.473c0,0.746-0.268,1.609-0.861,2.205
			c-0.529,0.529-1.27,0.825-2.197,0.825h-1.371L128.798,21.438z"/>
		<path fill="#333333" d="M134.298,25.151c0-0.238,0.037-0.485,0.107-0.76l0.705-2.953h0.564l-0.746,3.083
			c-0.043,0.182-0.07,0.378-0.07,0.572c0,0.58,0.367,0.986,1.078,0.986c0.348,0,0.652-0.123,0.9-0.369
			c0.238-0.239,0.449-0.617,0.562-1.109l0.771-3.163h0.549l-0.781,3.257c-0.152,0.594-0.385,1.052-0.697,1.363
			c-0.348,0.349-0.803,0.537-1.355,0.537C134.871,26.596,134.298,26.022,134.298,25.151"/>
		<path fill="#333333" d="M140.597,24.602c0-0.9,0.355-1.885,0.973-2.509c0.457-0.457,1.014-0.726,1.66-0.726
			c0.727,0,1.232,0.355,1.543,0.855l-0.447,0.342c-0.268-0.421-0.604-0.682-1.133-0.682c-0.473,0-0.883,0.224-1.195,0.536
			c-0.492,0.493-0.82,1.348-0.82,2.167c0,0.914,0.51,1.487,1.275,1.487c0.471,0,0.826-0.189,1.197-0.522l0.332,0.378
			c-0.412,0.392-0.891,0.667-1.543,0.667C141.38,26.596,140.597,25.85,140.597,24.602"/>
		<path fill="#333333" d="M84.296,25.573c0.521-0.522,0.826-1.443,0.826-2.175c0-0.906-0.494-1.524-1.291-1.524
			c-0.449,0-0.834,0.189-1.152,0.523c-0.521,0.515-0.828,1.429-0.828,2.168c0,0.899,0.494,1.515,1.291,1.515
			C83.591,26.08,83.976,25.893,84.296,25.573 M85.695,23.368c0,0.885-0.355,1.914-0.971,2.538c-0.443,0.435-0.996,0.696-1.625,0.696
			c-1.107,0-1.822-0.833-1.822-2.017c0-0.884,0.355-1.914,0.98-2.529c0.434-0.436,0.986-0.697,1.617-0.697
			C84.992,21.359,85.695,22.193,85.695,23.368"/>
		<path fill="#333333" d="M56.718,24.065c0.59,0,1.01-0.152,1.277-0.422c0.217-0.224,0.334-0.5,0.334-0.841
			c0-0.231-0.072-0.436-0.219-0.573c-0.18-0.188-0.477-0.274-0.891-0.274h-0.959l-0.512,2.11H56.718z M56.707,24.558h-0.174h-0.916
			l-0.473,1.958h-0.557l1.238-5.077h1.438c0.574,0,1.016,0.153,1.299,0.428c0.217,0.234,0.332,0.529,0.332,0.9
			c0,0.484-0.172,0.885-0.455,1.175c-0.283,0.283-0.697,0.457-1.16,0.552l0.877,2.022h-0.625L56.707,24.558z"/>
		<path fill="#333333" d="M48.933,24.602c0-0.9,0.355-1.885,0.971-2.509c0.459-0.457,1.018-0.726,1.662-0.726
			c0.725,0,1.232,0.355,1.545,0.855l-0.453,0.342c-0.268-0.421-0.6-0.682-1.129-0.682c-0.471,0-0.887,0.224-1.197,0.536
			c-0.492,0.493-0.816,1.348-0.816,2.167c0,0.914,0.508,1.487,1.275,1.487c0.471,0,0.826-0.189,1.197-0.522l0.334,0.378
			c-0.416,0.392-0.893,0.667-1.547,0.667C49.716,26.596,48.933,25.85,48.933,24.602"/>
	</g>
</g>
</svg>
